<?xml version="1.0" standalone="no"?><!DOCTYPE svg PUBLIC "-//W3C//DTD SVG 1.1//EN" "http://www.w3.org/Graphics/SVG/1.1/DTD/svg11.dtd"><svg class="icon" width="200px" height="200.00px" viewBox="0 0 1024 1024" version="1.1" xmlns="http://www.w3.org/2000/svg"><path d="M700 271h76.3c9.7 0 17.5-7.8 17.5-17.5S786 236 776.3 236H700c-9.7 0-17.5 7.8-17.5 17.5S690.3 271 700 271zM396 675.7c33.7 11.5 69.8 17.8 107.3 17.8s73.6-6.3 107.3-17.8c1.3-0.3 2.6-0.7 3.8-1.3 126.9-45 217.7-164.6 221.4-305.8 32.2-12.9 54.1-44.4 54.1-81.2v-75.8c0-48.2-37.4-87.6-85.7-87.6h-602c-48.2 0-89.3 39.3-89.3 87.6v75.8c0 36.8 23.8 68.3 56 81.2 3.7 141.2 95.9 260.8 222.8 305.8 1.3 0.6 3 1 4.3 1.3z m18-29.9V530.2c0-29 26.6-49.2 55.5-49.2h67.7c29 0 51.8 20.3 51.8 49.2v115.5c-28 8.3-57.5 12.8-87.5 12.8S442 654 414 645.8z m441-357.3c0 29-23.5 52.5-52.5 52.5h-602c-29 0-52.5-23.5-52.5-52.5v-77c0-29 23.5-52.5 52.5-52.5h602c29 0 52.5 23.5 52.5 52.5v77zM205.1 376h596.6C795.9 488 722 588 624 632.7V530.2c0-48.2-38.6-84.2-86.8-84.2h-67.7c-48.2 0-90.5 36-90.5 84.2v102.4C281 588 210.8 488 205.1 376zM503.3 575.6m-42 0a42 42 0 1 0 84 0 42 42 0 1 0-84 0ZM508.5 733.9c-9.7 0-17.5 7.8-17.5 17.5v127.2c0 9.7 7.8 17.5 17.5 17.5s17.5-7.8 17.5-17.5V751.4c0-9.7-7.8-17.5-17.5-17.5zM682.2 695c-4.8-8.4-15.5-11.3-23.9-6.4-8.4 4.8-11.2 15.5-6.4 23.9l63.6 110.1c3.2 5.6 9.1 8.8 15.2 8.8 3 0 6-0.8 8.7-2.3 8.4-4.8 11.2-15.5 6.4-23.9L682.2 695zM365.8 694.4c-8.4-4.8-19.1-2-23.9 6.4l-63.6 110.1c-4.8 8.4-2 19.1 6.4 23.9 2.8 1.6 5.8 2.3 8.7 2.3 6 0 11.9-3.1 15.2-8.8l63.6-110.1c4.8-8.3 1.9-19-6.4-23.8zM949.4 657.2l-110.1-63.6c-8.4-4.8-19.1-2-23.9 6.4-4.8 8.4-2 19.1 6.4 23.9l110.1 63.6c2.8 1.6 5.8 2.3 8.7 2.3 6 0 11.9-3.1 15.2-8.8 4.8-8.2 1.9-18.9-6.4-23.8zM184.8 593.6L74.6 657.2c-8.4 4.8-11.2 15.5-6.4 23.9 3.2 5.6 9.1 8.8 15.2 8.8 3 0 6-0.8 8.7-2.3L202.3 624c8.4-4.8 11.2-15.5 6.4-23.9-4.9-8.4-15.6-11.3-23.9-6.5z" /></svg>