<svg width="17" height="18" viewBox="0 0 17 18" fill="none" xmlns="http://www.w3.org/2000/svg">
<g clip-path="url(#clip0_5785_24530)">
<path d="M8.5 16C7.01664 16 5.56659 15.5601 4.33323 14.736C3.09986 13.9119 2.13856 12.7406 1.57091 11.3701C1.00325 9.99968 0.854725 8.49168 1.14411 7.03682C1.4335 5.58197 2.14781 4.2456 3.1967 3.1967C4.2456 2.14781 5.58197 1.4335 7.03682 1.14411C8.49168 0.854725 9.99968 1.00325 11.3701 1.57091C12.7406 2.13856 13.9119 3.09986 14.736 4.33323C15.5601 5.56659 16 7.01664 16 8.5C15.9978 10.4885 15.2069 12.3948 13.8009 13.8009C12.3948 15.2069 10.4885 15.9978 8.5 16ZM8.5 2.125C7.23915 2.125 6.00661 2.49889 4.95824 3.19938C3.90988 3.89988 3.09278 4.89552 2.61027 6.0604C2.12776 7.22527 2.00152 8.50707 2.2475 9.7437C2.49348 10.9803 3.10064 12.1162 3.9922 13.0078C4.88376 13.8994 6.01967 14.5065 7.2563 14.7525C8.49293 14.9985 9.77473 14.8722 10.9396 14.3897C12.1045 13.9072 13.1001 13.0901 13.8006 12.0418C14.5011 10.9934 14.875 9.76086 14.875 8.5C14.873 6.80986 14.2007 5.1895 13.0056 3.99439C11.8105 2.79928 10.1901 2.12699 8.5 2.125ZM7.38775 10.6C7.24405 10.6016 7.10523 10.5479 7 10.45L5.095 8.65C5.04083 8.59928 4.99718 8.53838 4.96655 8.47079C4.93591 8.4032 4.91889 8.33023 4.91645 8.25606C4.91401 8.18189 4.92621 8.10797 4.95234 8.03851C4.97847 7.96905 5.01803 7.90542 5.06875 7.85125C5.11948 7.79708 5.18037 7.75343 5.24796 7.7228C5.31556 7.69216 5.38852 7.67514 5.46269 7.6727C5.53686 7.67026 5.61079 7.68246 5.68024 7.70859C5.7497 7.73472 5.81333 7.77428 5.8675 7.825L7.38775 9.2605L11.1325 5.725C11.1867 5.67428 11.2503 5.63472 11.3198 5.60859C11.3892 5.58246 11.4631 5.57026 11.5373 5.5727C11.6115 5.57514 11.6844 5.59216 11.752 5.6228C11.8196 5.65343 11.8805 5.69708 11.9313 5.75125C11.982 5.80542 12.0215 5.86905 12.0477 5.93851C12.0738 6.00797 12.086 6.08189 12.0836 6.15606C12.0811 6.23023 12.0641 6.3032 12.0335 6.37079C12.0028 6.43838 11.9592 6.49928 11.905 6.55L7.77325 10.45C7.66836 10.5475 7.53018 10.6011 7.387 10.6H7.38775Z" fill="#0975E5" stroke="#0975E5" stroke-width="0.1"/>
</g>
<defs>
<clipPath id="clip0_5785_24530">
<rect width="17" height="17" fill="white" transform="translate(0 0.5)"/>
</clipPath>
</defs>
</svg>
