<svg width="17" height="18" viewBox="0 0 17 18" fill="none" xmlns="http://www.w3.org/2000/svg">
<path d="M7.47878 8.00165H6.45834V2.34734C6.45834 1.79654 6.91511 1.34998 7.47878 1.34998H9.51966C10.0833 1.34998 10.5391 1.79654 10.5391 2.34734V8.00165H9.51868V2.78053C9.51843 2.66555 9.47183 2.55537 9.38911 2.47416C9.30639 2.39295 9.19432 2.34734 9.07747 2.34734H7.92097C7.86299 2.34709 7.80554 2.35811 7.7519 2.37977C7.69826 2.40142 7.6495 2.43329 7.60841 2.47354C7.56733 2.51379 7.53472 2.56163 7.51248 2.61431C7.49023 2.66699 7.47878 2.72348 7.47878 2.78053V8.00165ZM9.51966 8.00165H14.2788C14.8425 8.00165 15.2992 8.44918 15.2992 8.99998V11.3284H1.69922V8.99998C1.69922 8.44918 2.15599 8.00165 2.71966 8.00165H7.47878V8.99998H3.16087C3.04419 8.99997 2.93226 9.04545 2.84957 9.12646C2.76688 9.20746 2.72017 9.31739 2.71966 9.4322V10.3311H14.2788V9.4322C14.2787 9.37531 14.2671 9.31901 14.2449 9.2665C14.2227 9.21399 14.1901 9.16631 14.1491 9.12618C14.1082 9.08604 14.0596 9.05424 14.0061 9.03258C13.9526 9.01093 13.8954 8.99985 13.8376 8.99998H9.51966V8.00165ZM10.4653 15.6517H11.3885V13.6569H10.4653V15.6526H3.39995C3.31087 15.6529 3.22261 15.6358 3.14021 15.6025C3.05781 15.5692 2.98288 15.5203 2.91971 15.4585C2.85654 15.3967 2.80636 15.3232 2.77204 15.2423C2.73771 15.1615 2.71991 15.0747 2.71966 14.9871V12.6586H14.2788V14.9871C14.2785 15.0747 14.2607 15.1615 14.2264 15.2423C14.1921 15.3232 14.1419 15.3967 14.0787 15.4585C14.0156 15.5203 13.9406 15.5692 13.8582 15.6025C13.7758 15.6358 13.6876 15.6529 13.5985 15.6526H13.3594V13.6569H12.4089V15.6526H8.52157H10.4653V15.6517ZM1.69922 15.6517C1.69922 16.2034 2.15599 16.65 2.71966 16.65H14.2788C14.8425 16.65 15.2992 16.2034 15.2992 15.6526V11.6612H1.69922V15.6526V15.6517Z" fill="#0975E5"/>
</svg>
