<svg width="17" height="18" viewBox="0 0 17 18" fill="none" xmlns="http://www.w3.org/2000/svg">
<path d="M15.5141 13.1437H13.9203V5.17498C13.9203 4.28248 13.2191 3.58123 12.3266 3.58123H4.35781V1.98748C4.35781 1.60498 4.10281 1.34998 3.72031 1.34998C3.33781 1.34998 3.08281 1.60498 3.08281 1.98748V3.58123H1.48906C1.10656 3.58123 0.851562 3.83623 0.851562 4.21873C0.851562 4.60123 1.10656 4.85623 1.48906 4.85623H3.08281V12.825C3.08281 13.7175 3.78406 14.4187 4.67656 14.4187H12.6453V16.0125C12.6453 16.395 12.9003 16.65 13.2828 16.65C13.6653 16.65 13.9203 16.395 13.9203 16.0125V14.4187H15.5141C15.8966 14.4187 16.1516 14.1637 16.1516 13.7812C16.1516 13.3987 15.8966 13.1437 15.5141 13.1437ZM12.3266 4.85623C12.5178 4.85623 12.6453 4.98373 12.6453 5.17498V10.275L10.4778 8.17123C10.2228 7.91623 9.84031 7.91623 9.58531 8.17123L7.48156 10.3387L6.58906 9.44623C6.33406 9.19123 6.01531 9.19123 5.76031 9.38247L4.42156 10.4662V4.85623H12.3266ZM4.67656 13.1437C4.48531 13.1437 4.35781 13.0162 4.35781 12.825V12.1875L6.07906 10.785L7.03531 11.7412C7.16281 11.8687 7.29031 11.9325 7.48156 11.9325C7.67281 11.9325 7.80031 11.8687 7.92781 11.7412L10.0316 9.57373L12.6453 12.06V13.1437H4.67656Z" fill="#0975E5"/>
<path d="M6.37474 8.50412C7.22474 8.50412 7.93307 7.79578 7.93307 6.94578C7.93307 6.09578 7.22474 5.38745 6.37474 5.38745C5.52474 5.38745 4.81641 6.02495 4.81641 6.87495C4.81641 7.72495 5.52474 8.50412 6.37474 8.50412ZM6.37474 6.37912C6.65807 6.37912 6.94141 6.59162 6.94141 6.94578C6.94141 7.29995 6.65807 7.44162 6.37474 7.44162C6.09141 7.44162 5.80807 7.15828 5.80807 6.87495C5.80807 6.59162 6.09141 6.37912 6.37474 6.37912Z" fill="#0975E5"/>
</svg>
