<svg width="17" height="18" viewBox="0 0 17 18" fill="none" xmlns="http://www.w3.org/2000/svg">
<path d="M6.11766 13.25L5.09766 15.8H11.8977L10.8777 13.25" stroke="#0975E5" stroke-width="1.2" stroke-linecap="round" stroke-linejoin="round"/>
<path fill-rule="evenodd" clip-rule="evenodd" d="M2.71922 4.24005C2.71922 4.14616 2.79533 4.07005 2.88922 4.07005H14.4492C14.5431 4.07005 14.6192 4.14616 14.6192 4.24005V9.19214C14.5637 9.18413 14.5069 9.17998 14.4492 9.17998H2.88922C2.83149 9.17998 2.77473 9.18413 2.71922 9.19214V4.24005ZM14.6192 10.3007V12.4C14.6192 12.4939 14.5431 12.57 14.4492 12.57H2.88922C2.79533 12.57 2.71922 12.4939 2.71922 12.4V10.3007C2.74373 10.2304 2.81058 10.18 2.88922 10.18H14.4492C14.5279 10.18 14.5947 10.2304 14.6192 10.3007ZM2.88922 3.05005C2.232 3.05005 1.69922 3.58283 1.69922 4.24005V12.4C1.69922 13.0573 2.232 13.59 2.88922 13.59H14.4492C15.1064 13.59 15.6392 13.0573 15.6392 12.4V4.24005C15.6392 3.58283 15.1065 3.05005 14.4492 3.05005H2.88922Z" fill="#0975E5"/>
<path d="M8.49844 12.4001C8.96788 12.4001 9.34844 12.0195 9.34844 11.5501C9.34844 11.0806 8.96788 10.7001 8.49844 10.7001C8.029 10.7001 7.64844 11.0806 7.64844 11.5501C7.64844 12.0195 8.029 12.4001 8.49844 12.4001Z" fill="#0975E5"/>
<path d="M8.50078 4.75C7.56347 4.75 6.80078 5.51257 6.80078 6.45C6.80078 7.38743 7.56335 8.15 8.50078 8.15C9.43809 8.15 10.2008 7.38743 10.2008 6.45C10.2008 5.51257 9.43821 4.75 8.50078 4.75ZM9.19426 6.9736C9.24162 7.0212 9.24149 7.09794 9.19402 7.1453C9.17034 7.16886 9.13938 7.18076 9.10829 7.18076C9.07708 7.18076 9.046 7.16886 9.02232 7.14506L8.50017 6.62133L7.97633 7.1396C7.95266 7.16291 7.92181 7.17469 7.89097 7.17469C7.85964 7.17469 7.82843 7.16266 7.80463 7.13862C7.75752 7.0909 7.75788 7.01416 7.8056 6.96692L8.32884 6.44939L7.80754 5.9264C7.76019 5.87892 7.76031 5.80206 7.80778 5.7547C7.85527 5.70722 7.932 5.70747 7.97949 5.75494L8.50151 6.27854L9.02535 5.76029C9.07295 5.71305 9.14993 5.71354 9.19705 5.76126C9.24428 5.80898 9.2438 5.88584 9.19608 5.93296L8.67285 6.45048L9.19426 6.9736Z" fill="#0975E5"/>
</svg>
