<svg width="17" height="18" viewBox="0 0 17 18" fill="none" xmlns="http://www.w3.org/2000/svg">
<g clip-path="url(#clip0_5584_24512)">
<path d="M8.5 15.8375C4.72375 15.8375 1.6625 12.7763 1.6625 9H0.4625C0.4625 13.439 4.061 17.0375 8.5 17.0375V15.8375ZM15.3375 9C15.3375 12.7763 12.2763 15.8375 8.5 15.8375V17.0375C12.939 17.0375 16.5375 13.439 16.5375 9H15.3375ZM8.5 2.1625C12.2763 2.1625 15.3375 5.22375 15.3375 9H16.5375C16.5375 4.561 12.939 0.9625 8.5 0.9625V2.1625ZM1.6625 9C1.6625 5.22375 4.72375 2.1625 8.5 2.1625V0.9625C4.061 0.9625 0.4625 4.561 0.4625 9H1.6625ZM4.6 9C4.6 8.77909 4.77909 8.6 5 8.6V7.4C4.11634 7.4 3.4 8.11634 3.4 9H4.6ZM5 9.4C4.77909 9.4 4.6 9.22091 4.6 9H3.4C3.4 9.88366 4.11634 10.6 5 10.6V9.4ZM12 9.4H5V10.6H12V9.4ZM12.4 9C12.4 9.22091 12.2209 9.4 12 9.4V10.6C12.8837 10.6 13.6 9.88366 13.6 9H12.4ZM12 8.6C12.2209 8.6 12.4 8.77909 12.4 9H13.6C13.6 8.11634 12.8837 7.4 12 7.4V8.6ZM5 8.6H12V7.4H5V8.6Z" fill="#0975E5"/>
</g>
<defs>
<clipPath id="clip0_5584_24512">
<rect width="17" height="17" fill="white" transform="translate(0 0.5)"/>
</clipPath>
</defs>
</svg>
