<svg width="17" height="18" viewBox="0 0 17 18" fill="none" xmlns="http://www.w3.org/2000/svg">
<g clip-path="url(#clip0_5573_24525)">
<path d="M8.48232 1.50769C4.40498 1.50769 1.06641 4.82468 1.06641 8.92361C1.06641 13.001 4.38174 16.3379 8.48066 16.3379C12.5796 16.3379 15.8949 13.0225 15.8949 8.92361C15.8966 4.84626 12.5813 1.50769 8.48232 1.50769ZM10.8032 11.037C10.8032 11.1831 10.6837 11.3026 10.5376 11.3026H6.46357C6.31748 11.3026 6.19795 11.1831 6.19795 11.037V6.96296C6.19795 6.81687 6.31748 6.69734 6.46357 6.69734H10.5393C10.6854 6.69734 10.8049 6.81687 10.8049 6.96296V11.037H10.8032Z" stroke="#0975E5" stroke-width="1.2"/>
</g>
<defs>
<clipPath id="clip0_5573_24525">
<rect width="17" height="17" fill="white" transform="translate(0 0.5)"/>
</clipPath>
</defs>
</svg>
