<svg width="17" height="18" viewBox="0 0 17 18" fill="none" xmlns="http://www.w3.org/2000/svg">
<path d="M0 16.5H17V17H0.0001986V16.5H0ZM4.13561 16.5L0.944489 13.1211V11.707L4.72224 15.707V16.5H4.13561ZM2.8003 16.5H0.944687V14.5352L2.8003 16.5ZM4.72224 14.2929L0.944489 10.2929V8.87884L4.72224 12.8789V14.2929ZM4.72224 11.4648L0.998108 7.52153C1.20087 6.64848 1.94438 6 2.83347 6C3.87745 6 4.72244 6.8945 4.72244 7.9999V11.4648H4.72224ZM2.83347 7.9999C3.09362 7.9999 3.30571 7.77533 3.30571 7.50009C3.30571 7.22463 3.09362 7.00006 2.83347 7.00006C2.57351 7.00006 2.36122 7.22463 2.36122 7.50009C2.36122 7.77533 2.57331 7.9999 2.83347 7.9999Z" fill="#0975E5"/>
<path d="M3.15509 7.21701L9.08285 2.10482C9.26641 1.94582 9.54185 1.97028 9.6965 2.1607C9.85115 2.34943 9.82736 2.63261 9.64215 2.79161L3.71439 7.90211C3.53082 8.06111 3.25538 8.03665 3.10073 7.84604C2.94773 7.6575 2.97152 7.37601 3.15509 7.21701ZM9.18826 9.05574C9.9379 8.94736 10.5567 8.95093 11.2401 9.05574C11.7093 9.15697 12.1835 9.2375 12.6444 9.36846C12.9861 9.46631 13.2326 9.70415 13.3532 10.0675C13.547 10.6425 13.7492 11.2123 13.9634 11.7785C13.9991 11.8729 14.118 12.0127 14.1845 12.0058C14.6332 11.9533 14.8441 12.2103 14.9817 12.5894C15.0139 12.7065 14.9969 12.8218 14.9817 12.8988C14.7946 12.953 14.6076 13.0053 14.4359 13.0544C14.4597 13.2536 14.504 13.4563 14.5057 13.6608C14.5124 14.5872 14.5192 15.5118 14.5005 16.4381C14.4971 16.6024 14.4054 16.8611 14.3389 16.9012C14.2778 17.0096 12.9143 17.0043 12.8089 16.9292C12.4553 16.6933 12.6729 16.2964 12.5591 15.9749H7.93038C7.84016 16.3156 7.78763 16.8871 7.67873 16.9292C7.44246 17.0218 6.17927 17.0254 6.10972 16.9292C6.01456 16.8594 5.94812 16.5796 5.93622 16.3997C5.9106 16.0099 5.92433 15.6166 5.92945 15.2252C5.93622 14.4982 5.94647 13.7711 5.95654 13.0388C5.82403 13.0038 5.63534 12.9515 5.44647 12.9008C5.4364 12.8308 5.42268 12.7452 5.44647 12.6527C5.57733 12.2524 5.7695 11.9431 6.26071 12.0078C6.32019 12.0148 6.42909 11.8855 6.4613 11.7982C6.62949 11.3455 6.80977 10.8947 6.93038 10.4261C7.13096 9.6413 7.68349 9.325 8.38738 9.18519C8.65294 9.13082 8.92142 9.0977 9.18826 9.05574ZM7.07533 12.1563C9.20364 12.6088 11.2437 12.6194 13.3347 12.1563C13.1596 11.6005 12.9828 11.106 12.8503 10.599C12.7364 10.1638 12.4626 9.95064 12.0547 9.93145C11.062 9.8861 10.0691 9.84922 9.07626 9.84057C8.74994 9.83887 8.41831 9.91752 8.09711 9.99618C7.96442 10.0293 7.79111 10.1324 7.74517 10.2494C7.51036 10.8593 7.30812 11.4815 7.07533 12.1563ZM7.48327 14.5226C7.48327 14.5104 7.48327 14.5332 7.48327 14.5226C7.65329 14.5226 7.83174 14.5157 7.99499 14.4773C8.1123 14.4492 8.26183 14.3514 8.29935 14.2466C8.32479 14.1732 8.2126 13.9845 8.11907 13.9389C7.7298 13.7536 7.33027 13.5859 6.92397 13.4478C6.72155 13.3797 6.49553 13.3918 6.42927 13.6891C6.3341 14.1243 6.4225 14.3672 6.73857 14.4336C6.9818 14.4876 7.23327 14.4948 7.48327 14.5226ZM12.9963 14.5209C13.2156 14.4929 13.4894 14.484 13.7494 14.4212C14.1065 14.3373 14.0298 14.0279 14.023 13.7658C14.0163 13.5421 13.8803 13.3726 13.6846 13.4354C13.1934 13.5927 12.7055 13.7762 12.2448 14.0069C12.0324 14.1136 12.1089 14.4054 12.3503 14.4596C12.5424 14.5034 12.7463 14.5 12.9963 14.5209Z" fill="#0975E5"/>
</svg>
