<svg width="17" height="18" viewBox="0 0 17 18" fill="none" xmlns="http://www.w3.org/2000/svg">
<path d="M5.69464 2L6.0923 1.6969C5.99745 1.57246 5.84982 1.4996 5.69335 1.5C5.53688 1.50041 5.38963 1.57403 5.29542 1.69896L5.69464 2ZM2.59375 6.11223L2.19453 5.81119C2.08036 5.96259 2.06167 6.16554 2.14625 6.33525C2.23083 6.50496 2.40413 6.61223 2.59375 6.61223V6.11223ZM8.82897 6.11223V6.61223C9.01906 6.61223 9.1927 6.50444 9.27705 6.3341C9.3614 6.16375 9.34186 5.96031 9.22663 5.80913L8.82897 6.11223ZM6.73942 6.11223V5.61223C6.46328 5.61223 6.23942 5.83608 6.23942 6.11223H6.73942ZM6.73942 9.7518H6.23942C6.23942 9.92111 6.3251 10.0789 6.46708 10.1711C6.60907 10.2633 6.78808 10.2774 6.94275 10.2086L6.73942 9.7518ZM10.36 9.45557V9.95557C10.6361 9.95557 10.86 9.73172 10.86 9.45557H10.36ZM10.36 7.25737L10.6711 6.86599C10.5209 6.74655 10.3156 6.72364 10.1427 6.80705C9.96985 6.89045 9.85999 7.06544 9.85999 7.25737H10.36ZM14.397 10.4669L14.7057 10.8603C14.826 10.7658 14.8965 10.6215 14.897 10.4685C14.8975 10.3155 14.8279 10.1707 14.7082 10.0755L14.397 10.4669ZM10.36 13.6347L9.86 13.6338C9.85968 13.8253 9.96876 14.0002 10.1409 14.0841C10.313 14.168 10.518 14.1463 10.6687 14.028L10.36 13.6347ZM10.36 13.6263L10.86 13.6272C10.8602 13.4944 10.8077 13.367 10.7139 13.2731C10.6201 13.1791 10.4928 13.1263 10.36 13.1263V13.6263ZM10.3266 13.6263H9.82659C9.82659 13.9025 10.0504 14.1263 10.3266 14.1263V13.6263ZM10.3266 11.5368H10.8266C10.8266 11.2606 10.6027 11.0368 10.3266 11.0368V11.5368ZM6.74091 15.9666V16.4666C7.01705 16.4666 7.24091 16.2428 7.24091 15.9666H6.74091ZM6.73942 15.9666V15.4666C6.46328 15.4666 6.23942 15.6905 6.23942 15.9666H6.73942ZM6.73942 16V16.5C7.01556 16.5 7.23942 16.2761 7.23942 16H6.73942ZM4.6833 16H4.1833C4.1833 16.2761 4.40716 16.5 4.6833 16.5V16ZM4.6833 15.9666H5.1833C5.1833 15.6905 4.95945 15.4666 4.6833 15.4666V15.9666ZM4.65137 15.9666H4.15137C4.15137 16.2428 4.37522 16.4666 4.65137 16.4666V15.9666ZM4.6833 12.5225L5.17895 12.5883C5.18185 12.5665 5.1833 12.5445 5.1833 12.5225H4.6833ZM4.6833 6.11223H5.1833C5.1833 5.83608 4.95945 5.61223 4.6833 5.61223V6.11223ZM5.29542 1.69896L2.19453 5.81119L2.99297 6.41326L6.09386 2.30104L5.29542 1.69896ZM9.22663 5.80913L6.0923 1.6969L5.29698 2.3031L8.43131 6.41532L9.22663 5.80913ZM6.73942 6.61223H8.82897V5.61223H6.73942V6.61223ZM7.23942 9.7518V6.11223H6.23942V9.7518H7.23942ZM8.13674 8.95557C7.56931 8.95557 7.02725 9.07638 6.53609 9.29501L6.94275 10.2086C7.30863 10.0457 7.71237 9.95557 8.13674 9.95557V8.95557ZM10.36 8.95557H8.13674V9.95557H10.36V8.95557ZM9.85999 7.25737V9.45557H10.86V7.25737H9.85999ZM14.7082 10.0755L10.6711 6.86599L10.0488 7.64875L14.0859 10.8583L14.7082 10.0755ZM10.6687 14.028L14.7057 10.8603L14.0884 10.0736L10.0513 13.2413L10.6687 14.028ZM9.86002 13.6255L9.86 13.6338L10.86 13.6355L10.86 13.6272L9.86002 13.6255ZM10.3266 14.1263H10.36V13.1263H10.3266V14.1263ZM9.82659 11.5368V13.6263H10.8266V11.5368H9.82659ZM8.47942 12.0368H10.3266V11.0368H8.47942V12.0368ZM7.24091 13.3171C7.24091 12.6013 7.79984 12.0368 8.47942 12.0368V11.0368C7.2199 11.0368 6.24091 12.0771 6.24091 13.3171H7.24091ZM7.24091 15.9666V13.3171H6.24091V15.9666H7.24091ZM6.73942 16.4666H6.74091V15.4666H6.73942V16.4666ZM7.23942 16V15.9666H6.23942V16H7.23942ZM4.6833 16.5H6.73942V15.5H4.6833V16.5ZM4.1833 15.9666V16H5.1833V15.9666H4.1833ZM4.65137 16.4666H4.6833V15.4666H4.65137V16.4666ZM4.15137 13.0078V15.9666H5.15137V13.0078H4.15137ZM4.18766 12.4566C4.1637 12.6369 4.15137 12.8209 4.15137 13.0078H5.15137C5.15137 12.865 5.16079 12.725 5.17895 12.5883L4.18766 12.4566ZM4.1833 6.11223V12.5225H5.1833V6.11223H4.1833ZM2.59375 6.61223H4.6833V5.61223H2.59375V6.61223Z" fill="#0975E5"/>
</svg>
