<svg width="17" height="18" viewBox="0 0 17 18" fill="none" xmlns="http://www.w3.org/2000/svg">
<path d="M1 15.4091L16 15.4091V16L1.00023 16L1 15.4091ZM5.77186 15.4091L2.08979 11.4158V9.74465L6.44874 14.4719V15.4091H5.77186ZM4.23112 15.4091H2.09002V13.087L4.23112 15.4091ZM6.44874 12.8008L2.08979 8.07346V6.40227L6.44874 11.1296V12.8008ZM6.44874 9.45837L2.15166 4.79818C2.38562 3.76639 3.24352 3 4.26938 3C5.47398 3 6.44897 4.05714 6.44897 5.36352L6.44874 9.45837ZM4.26938 5.36352C4.56956 5.36352 4.81428 5.09812 4.81428 4.77283C4.81428 4.44729 4.56956 4.18189 4.26938 4.18189C3.96944 4.18189 3.72449 4.44729 3.72449 4.77283C3.72449 5.09812 3.96921 5.36352 4.26938 5.36352Z" fill="#0975E5"/>
<path d="M5.18632 5.71754L14.2177 5.61661C14.4979 5.61288 14.7227 5.83932 14.7175 6.12232C14.7135 6.40383 14.4819 6.63594 14.2003 6.63845L5.17016 6.73788C4.88997 6.74161 4.66519 6.51517 4.67053 6.23201C4.67578 5.95189 4.90613 5.72127 5.18632 5.71754Z" fill="#0975E5"/>
</svg>
