<svg width="20" height="20" viewBox="0 0 20 20" fill="none" xmlns="http://www.w3.org/2000/svg">
<g clip-path="url(#clip0_3372_7041)">
<path d="M19.2657 10.798H17.3457C16.3266 10.8561 16.3266 9.19328 17.3457 9.25233H19.2657C20.2448 9.19328 20.2448 10.8561 19.2657 10.798ZM15.7385 5.37902C15.6678 5.45224 15.5834 5.51082 15.49 5.55141C15.3966 5.592 15.2962 5.6138 15.1944 5.61557C15.0926 5.61734 14.9915 5.59904 14.8967 5.56172C14.802 5.5244 14.7156 5.46879 14.6424 5.39806C14.5714 5.32504 14.5156 5.23872 14.4782 5.14406C14.4407 5.0494 14.4224 4.94827 14.4241 4.84649C14.4259 4.7447 14.4478 4.64427 14.4885 4.55097C14.5292 4.45767 14.588 4.37334 14.6614 4.30283L16.0152 2.93474C16.0866 2.86424 16.1714 2.80871 16.2646 2.77143C16.3578 2.73414 16.4575 2.71585 16.5578 2.71762C16.6581 2.7194 16.7571 2.7412 16.8489 2.78176C16.9407 2.82231 17.0235 2.8808 17.0924 2.95379C17.4057 3.24808 17.4057 3.71712 17.0924 4.03045L15.7405 5.37997L15.7385 5.37902ZM14.0943 14.0442C12.9781 15.159 11.6061 15.7271 10.0199 15.7271C8.43279 15.7271 7.06183 15.1604 5.92563 14.0442C4.80896 12.9294 4.24086 11.5599 4.24086 9.97565C4.24086 8.39185 4.80896 7.02186 5.92563 5.90663C7.06183 4.79235 8.43279 4.22521 10.0199 4.22521C11.6057 4.22521 12.9781 4.79283 14.0943 5.90758C15.2104 7.02282 15.7785 8.39186 15.7785 9.97661C15.7785 11.5599 15.2104 12.9294 14.0943 14.0442ZM12.9981 7.00282C12.1742 6.16139 11.1752 5.75044 9.99994 5.75044C8.84422 5.75044 7.84517 6.16139 7.02278 7.00282C6.19992 7.82376 5.78801 8.82233 5.78801 9.9947C5.78801 11.1495 6.19992 12.148 7.02278 12.9685C7.84517 13.7904 8.84279 14.1999 9.99994 14.1999C11.1752 14.1999 12.1742 13.7904 12.9971 12.968C13.8195 12.1466 14.2314 11.149 14.2314 9.99518C14.2314 8.8209 13.8195 7.82376 12.9971 7.00329L12.9981 7.00282ZM10.1952 3.46188H9.82375C9.6694 3.45816 9.52238 3.39531 9.41303 3.28632C9.30368 3.17733 9.24035 3.03051 9.23613 2.87617V0.586663C9.23613 0.254284 9.51089 0 9.82375 0H10.1957C10.5099 0 10.7838 0.254284 10.7838 0.587139V2.8757C10.7795 3.02995 10.7163 3.1767 10.607 3.28568C10.4978 3.39466 10.3509 3.45756 10.1966 3.46141L10.1952 3.46188ZM4.27991 5.35997L2.90752 4.0095C2.76633 3.86608 2.68719 3.6729 2.68719 3.47165C2.68719 3.27039 2.76633 3.07721 2.90752 2.93379C2.97831 2.85957 3.06343 2.80049 3.15772 2.76012C3.25202 2.71975 3.35352 2.69894 3.45609 2.69894C3.55866 2.69894 3.66017 2.71975 3.75446 2.76012C3.84875 2.80049 3.93387 2.85957 4.00467 2.93379L5.35706 4.28426C5.67134 4.57759 5.67134 5.06521 5.35706 5.37949C5.28567 5.45009 5.20088 5.50568 5.10768 5.543C5.01448 5.58032 4.91475 5.59861 4.81437 5.59679C4.71399 5.59497 4.61498 5.57308 4.5232 5.53241C4.43141 5.49174 4.34869 5.4331 4.27991 5.35997ZM2.65371 10.7771H0.734647C-0.244882 10.8361 -0.244882 9.17328 0.734647 9.23137H2.65371C3.67276 9.17328 3.67276 10.8361 2.65371 10.7771ZM4.25991 14.6504C4.32873 14.5763 4.4121 14.5171 4.50481 14.4767C4.59752 14.4363 4.69758 14.4154 4.79872 14.4154C4.89986 14.4154 4.99992 14.4363 5.09263 14.4767C5.18534 14.5171 5.26871 14.5763 5.33753 14.6504C5.4116 14.719 5.4707 14.8022 5.51111 14.8948C5.55152 14.9874 5.57238 15.0873 5.57238 15.1882C5.57238 15.2892 5.55152 15.3891 5.51111 15.4817C5.4707 15.5742 5.4116 15.6574 5.33753 15.7261L3.98657 17.0951C3.69181 17.3889 3.20276 17.3889 2.88942 17.0951C2.81849 17.0221 2.7627 16.9358 2.72525 16.8411C2.6878 16.7465 2.66943 16.6453 2.6712 16.5436C2.67297 16.4418 2.69485 16.3413 2.73557 16.248C2.77628 16.1547 2.83505 16.0704 2.90847 15.9999L4.25991 14.6504ZM10.7647 17.3499V19.2661C10.8223 20.2446 9.15803 20.2446 9.21613 19.2661V17.3518C9.15803 16.3342 10.8223 16.3342 10.7642 17.3518L10.7647 17.3499ZM15.7205 14.669L17.0914 16.0194C17.1623 16.0925 17.2181 16.1789 17.2555 16.2736C17.2929 16.3683 17.3112 16.4694 17.3095 16.5712C17.3077 16.673 17.2858 16.7735 17.2452 16.8668C17.2045 16.9602 17.1457 17.0446 17.0724 17.1151C16.7776 17.408 16.3076 17.408 15.9952 17.0951L14.6424 15.7451C14.5691 15.6765 14.5104 15.5939 14.4696 15.5022C14.4289 15.4104 14.407 15.3114 14.4052 15.2111C14.4034 15.1107 14.4218 15.011 14.4593 14.9179C14.4968 14.8248 14.5525 14.7401 14.6233 14.669C14.9357 14.3566 15.4266 14.3566 15.7205 14.669Z" fill="#0975E5"/>
</g>
<defs>
<clipPath id="clip0_3372_7041">
<rect width="20" height="20" fill="white"/>
</clipPath>
</defs>
</svg>
