<svg width="17" height="18" viewBox="0 0 17 18" fill="none" xmlns="http://www.w3.org/2000/svg">
<path d="M13.2004 1H3.798C3.32112 1.00085 2.86405 1.18508 2.527 1.51231C2.18995 1.83953 2.00044 2.28304 2 2.7456V15.2544C2.00044 15.717 2.18995 16.1605 2.527 16.4877C2.86405 16.8149 3.32112 16.9992 3.798 17H13.2004C13.6775 16.9996 14.135 16.8155 14.4724 16.4883C14.8098 16.161 14.9996 15.7172 15 15.2544V2.7456C14.9996 2.28277 14.8098 1.83901 14.4724 1.51174C14.135 1.18447 13.6775 1.00042 13.2004 1ZM14.0251 2.7456V15.2544C14.0251 15.3595 14.0038 15.4635 13.9623 15.5605C13.9209 15.6576 13.8601 15.7458 13.7836 15.8201C13.707 15.8944 13.616 15.9533 13.516 15.9935C13.4159 16.0337 13.3087 16.0544 13.2004 16.0544H3.798C3.57925 16.0544 3.36947 15.9701 3.2148 15.8201C3.06012 15.6701 2.97323 15.4666 2.97323 15.2544V2.7456C2.97323 2.53343 3.06012 2.32994 3.2148 2.17991C3.36947 2.02989 3.57925 1.9456 3.798 1.9456H13.2004C13.4191 1.9456 13.6289 2.02989 13.7836 2.17991C13.9382 2.32994 14.0251 2.53343 14.0251 2.7456Z" fill="#0975E5"/>
<path d="M10.2158 3.38093L3 2V16L10.4717 14.3657C10.8106 14.2831 11 13.8853 11 13.5402V4.3508C10.9959 4.11363 10.9147 3.8858 10.7711 3.70809C10.6274 3.53039 10.4306 3.41441 10.2158 3.38093ZM9.40075 10.3145C9.24253 10.3145 9.08786 10.2632 8.9563 10.167C8.82474 10.0709 8.7222 9.93424 8.66165 9.77437C8.6011 9.61449 8.58526 9.43857 8.61613 9.26884C8.64699 9.09912 8.72319 8.94322 8.83507 8.82086C8.94695 8.69849 9.0895 8.61516 9.24468 8.5814C9.39987 8.54764 9.56072 8.56497 9.7069 8.63119C9.85308 8.69741 9.97803 8.80956 10.0659 8.95344C10.1538 9.09733 10.2008 9.26649 10.2008 9.43954C10.2004 9.6713 10.1159 9.89342 9.96591 10.0572C9.81592 10.2209 9.61267 10.3128 9.40075 10.3128V10.3145Z" stroke="#0975E5" stroke-linejoin="round"/>
</svg>
