<svg width="17" height="18" viewBox="0 0 17 18" fill="none" xmlns="http://www.w3.org/2000/svg">
<path d="M3.4125 3C3.4125 2.77909 3.59159 2.6 3.8125 2.6V1.4C2.92884 1.4 2.2125 2.11635 2.2125 3H3.4125ZM3.4125 15V3H2.2125V15H3.4125ZM3.8125 15.4C3.59159 15.4 3.4125 15.2209 3.4125 15H2.2125C2.2125 15.8837 2.92884 16.6 3.8125 16.6V15.4ZM13.1875 15.4H3.8125V16.6H13.1875V15.4ZM13.5875 15C13.5875 15.2209 13.4084 15.4 13.1875 15.4V16.6C14.0712 16.6 14.7875 15.8837 14.7875 15H13.5875ZM13.5875 3V15H14.7875V3H13.5875ZM13.1875 2.6C13.4084 2.6 13.5875 2.77909 13.5875 3H14.7875C14.7875 2.11634 14.0712 1.4 13.1875 1.4V2.6ZM3.8125 2.6H13.1875V1.4H3.8125V2.6ZM12.7125 9C12.7125 9.15188 12.5894 9.275 12.4375 9.275V10.475C13.2521 10.475 13.9125 9.81462 13.9125 9H12.7125ZM12.4375 8.725C12.5894 8.725 12.7125 8.84812 12.7125 9H13.9125C13.9125 8.18538 13.2521 7.525 12.4375 7.525V8.725ZM12.1625 9C12.1625 8.84812 12.2856 8.725 12.4375 8.725V7.525C11.6229 7.525 10.9625 8.18538 10.9625 9H12.1625ZM12.4375 9.275C12.2856 9.275 12.1625 9.15188 12.1625 9H10.9625C10.9625 9.81462 11.6229 10.475 12.4375 10.475V9.275Z" fill="#0975E5"/>
</svg>
