<svg width="17" height="18" viewBox="0 0 17 18" fill="none" xmlns="http://www.w3.org/2000/svg">
<g clip-path="url(#clip0_5573_24616)">
<path d="M8.5 16.4375C4.39238 16.4375 1.0625 13.1076 1.0625 9C1.0625 4.89238 4.39238 1.5625 8.5 1.5625C12.6076 1.5625 15.9375 4.89238 15.9375 9C15.9375 13.1076 12.6076 16.4375 8.5 16.4375ZM5.47931 5.99313C5.28012 6.19237 5.16823 6.46258 5.16823 6.74431C5.16823 7.02605 5.28012 7.29625 5.47931 7.4955L9.98697 12.0032C10.0856 12.1018 10.2027 12.1801 10.3316 12.2335C10.4605 12.287 10.5987 12.3145 10.7382 12.3145C10.8778 12.3145 11.0159 12.2871 11.1449 12.2337C11.2738 12.1803 11.3909 12.1021 11.4896 12.0034C11.5883 11.9048 11.6666 11.7877 11.72 11.6588C11.7734 11.5299 11.8009 11.3917 11.8009 11.2522C11.801 11.1126 11.7735 10.9745 11.7201 10.8455C11.6668 10.7166 11.5885 10.5995 11.4899 10.5008L6.98222 5.99259C6.88355 5.89389 6.7664 5.81558 6.63747 5.76216C6.50853 5.70874 6.37033 5.68124 6.23077 5.68124C6.0912 5.68124 5.953 5.70874 5.82407 5.76216C5.69513 5.81558 5.57798 5.89389 5.47931 5.99259V5.99313Z" stroke="#0975E5" stroke-width="1.2"/>
</g>
<defs>
<clipPath id="clip0_5573_24616">
<rect width="17" height="17" fill="white" transform="translate(0 0.5)"/>
</clipPath>
</defs>
</svg>
