<svg width="17" height="18" viewBox="0 0 17 18" fill="none" xmlns="http://www.w3.org/2000/svg">
<g clip-path="url(#clip0_5573_24565)">
<path d="M8.52542 16.5747L8.52599 17.1747L8.52693 17.1747L8.52542 16.5747ZM8.40342 16.5586L8.55902 15.9792L8.55834 15.979L8.40342 16.5586ZM8.65442 16.5565L8.81869 17.1336L8.82001 17.1332L8.65442 16.5565ZM8.90442 16.4847L9.07001 17.0614L9.07895 17.0588L9.08781 17.056L8.90442 16.4847ZM9.16142 16.4022L9.34484 16.9736L9.35541 16.97L9.16142 16.4022ZM15.0254 7.80522L15.6254 7.80527V7.80522H15.0254ZM15.0254 4.25349H15.6254V4.22555L15.6228 4.19773L15.0254 4.25349ZM15.0164 4.15707L15.6138 4.10131L15.6117 4.07857L15.6079 4.05605L15.0164 4.15707ZM14.5254 3.71779L14.5265 3.11779H14.5254V3.71779ZM8.74442 1.62854L8.46745 2.16079L8.46768 2.1609L8.74442 1.62854ZM8.5049 1.57518L8.4778 0.975796L8.5049 1.57518ZM8.27042 1.64997L7.94803 1.14394L7.93516 1.15214L7.92274 1.16097L8.27042 1.64997ZM2.52542 3.71779V4.31779H2.54545L2.56543 4.31645L2.52542 3.71779ZM2.02542 4.25349L2.62514 4.27184L2.62542 4.26267V4.25349H2.02542ZM2.02542 8.087L1.42568 8.10447L2.02542 8.087ZM8.60657 7.73469H8.00657V8.33469H8.60657V7.73469ZM12 11.8666H12.6L12.6 11.859L12 11.8666ZM11.769 11.8666L11.2377 12.1454L11.2423 12.1542L11.2472 12.1628L11.769 11.8666ZM8.60711 10.2092V9.60924H8.00711V10.2092H8.60711ZM8.03516 11.8959L7.64489 12.3516L7.64511 12.3518L8.03516 11.8959ZM5.22875 9.49262L5.61902 9.03689L5.61841 9.03636L5.22875 9.49262ZM5.22767 8.54556L5.61813 9.00113L5.61847 9.00084L5.22767 8.54556ZM8.05562 6.11814L8.44642 6.57341L8.44667 6.5732L8.05562 6.11814ZM8.52485 15.9747C8.53669 15.9747 8.54821 15.9763 8.55902 15.9792L8.24782 17.1381C8.33842 17.1624 8.4319 17.1748 8.52599 17.1747L8.52485 15.9747ZM8.49015 15.9794C8.50073 15.9764 8.51213 15.9747 8.52391 15.9747L8.52693 17.1747C8.62581 17.1745 8.72393 17.1605 8.81869 17.1336L8.49015 15.9794ZM8.73883 15.908L8.48883 15.9798L8.82001 17.1332L9.07001 17.0614L8.73883 15.908ZM8.97803 15.8309L8.72103 15.9134L9.08781 17.056L9.34481 16.9735L8.97803 15.8309ZM12.9073 12.791C11.9231 14.2338 10.5416 15.2966 8.96744 15.8344L9.35541 16.97C11.1854 16.3448 12.7746 15.1151 13.8986 13.4672L12.9073 12.791ZM14.4254 7.80516C14.4252 9.6016 13.8918 11.3477 12.9073 12.791L13.8986 13.4672C15.0223 11.8197 15.6252 9.83696 15.6254 7.80527L14.4254 7.80516ZM14.4254 4.25349V7.80522H15.6254V4.25349H14.4254ZM14.419 4.21282L14.428 4.30925L15.6228 4.19773L15.6138 4.10131L14.419 4.21282ZM14.445 4.28946C14.4295 4.27562 14.4258 4.26312 14.425 4.25808L15.6079 4.05605C15.5649 3.8047 15.44 3.56947 15.2451 3.39513L14.445 4.28946ZM14.5244 4.31779C14.4892 4.31772 14.4614 4.30415 14.445 4.28946L15.2451 3.39513C15.0493 3.21994 14.7954 3.11827 14.5265 3.11779L14.5244 4.31779ZM8.46768 2.1609C9.81509 2.86134 10.9936 3.39626 11.9927 3.75735C12.9819 4.11482 13.8376 4.31779 14.5254 4.31779V3.11779C14.0443 3.11779 13.3429 2.96933 12.4006 2.62878C11.4683 2.29185 10.3407 1.78214 9.02116 1.09617L8.46768 2.1609ZM8.53199 2.17457C8.5077 2.17567 8.48528 2.17006 8.46745 2.16079L9.02139 1.09629C8.85459 1.00949 8.66756 0.967217 8.4778 0.975796L8.53199 2.17457ZM8.59282 2.15599C8.57719 2.16595 8.55624 2.17348 8.53199 2.17457L8.4778 0.975796C8.28809 0.984372 8.106 1.04329 7.94803 1.14394L8.59282 2.15599ZM2.56543 4.31645C4.72991 4.17179 6.81735 3.41933 8.61811 2.13896L7.92274 1.16097C6.29866 2.31573 4.42334 2.9896 2.48541 3.11912L2.56543 4.31645ZM2.6105 4.28409C2.59544 4.30021 2.56582 4.31779 2.52542 4.31779V3.11779C2.21981 3.11779 1.93583 3.24824 1.73324 3.4653L2.6105 4.28409ZM2.62542 4.25349C2.62542 4.25644 2.62491 4.26021 2.62311 4.26484C2.62132 4.26948 2.61768 4.27639 2.6105 4.28409L1.73324 3.4653C1.53195 3.68095 1.42542 3.96513 1.42542 4.25349H2.62542ZM2.62517 8.06953C2.59687 7.09821 2.59684 6.14819 2.60394 5.43994C2.60749 5.08613 2.61281 4.79338 2.61724 4.58937C2.61945 4.48738 2.62144 4.40761 2.62287 4.35352C2.62358 4.32648 2.62415 4.30587 2.62455 4.29211C2.62474 4.28523 2.6249 4.28006 2.625 4.27666C2.62505 4.27497 2.62508 4.27371 2.62511 4.2729C2.62512 4.2725 2.62513 4.27221 2.62513 4.27203C2.62514 4.27194 2.62514 4.27188 2.62514 4.27185C2.62514 4.27183 2.62514 4.27183 2.62514 4.27182C2.62514 4.27182 2.62514 4.27184 2.02542 4.25349C1.4257 4.23515 1.4257 4.23517 1.4257 4.23521C1.4257 4.23523 1.4257 4.23527 1.4257 4.23531C1.42569 4.23539 1.42569 4.2355 1.42569 4.23564C1.42568 4.23591 1.42567 4.2363 1.42565 4.23681C1.42562 4.23781 1.42558 4.23927 1.42552 4.24117C1.42541 4.24497 1.42525 4.25054 1.42504 4.25784C1.42462 4.27243 1.42402 4.2939 1.42328 4.32183C1.42181 4.37768 1.41977 4.45934 1.41752 4.56334C1.41301 4.77131 1.4076 5.06878 1.404 5.4279C1.39681 6.14551 1.39677 7.11225 1.42568 8.10447L2.62517 8.06953ZM4.36699 13.1086C3.29261 11.6815 2.67885 9.91238 2.62517 8.06953L1.42568 8.10447C1.48639 10.1887 2.18034 12.1993 3.40831 13.8303L4.36699 13.1086ZM8.55834 15.979C6.91424 15.5396 5.44092 14.535 4.36699 13.1086L3.40831 13.8303C4.63671 15.462 6.33452 16.6268 8.2485 17.1383L8.55834 15.979ZM8.65827 7.13469H8.60657V8.33469H8.65827V7.13469ZM12.6 11.859C12.5857 10.7426 12.141 9.5858 11.4596 8.70441C10.7835 7.82991 9.79747 7.13469 8.65827 7.13469V8.33469C9.29252 8.33469 9.96496 8.73308 10.5102 9.43836C11.0501 10.1367 11.3895 11.0459 11.4 11.8742L12.6 11.859ZM11.2472 12.1628C11.2991 12.2543 11.3732 12.3575 11.4791 12.4417C11.5826 12.524 11.7651 12.6236 12.0001 12.5946C12.2519 12.5636 12.4181 12.4038 12.5021 12.2552C12.5807 12.116 12.6 11.9737 12.6 11.8666H11.4C11.4 11.8371 11.4045 11.7583 11.4574 11.6647C11.5156 11.5616 11.6452 11.4293 11.8533 11.4036C12.0446 11.38 12.1763 11.463 12.2259 11.5024C12.278 11.5438 12.2951 11.578 12.2907 11.5704L11.2472 12.1628ZM9.03202 10.8092C10.036 10.8092 10.7681 11.2507 11.2377 12.1454L12.3002 11.5878C11.6238 10.2988 10.4828 9.60924 9.03202 9.60924V10.8092ZM8.60711 10.8092H9.03202V9.60924H8.60711V10.8092ZM9.20711 11.5046V10.2092H8.00711V11.5046H9.20711ZM7.64511 12.3518C7.79046 12.4762 7.97862 12.5779 8.20205 12.5969C8.43338 12.6166 8.64319 12.542 8.80454 12.416C9.10419 12.182 9.20711 11.8101 9.20711 11.5046H8.00711C8.00711 11.5341 8.00177 11.5471 8.00287 11.5443C8.00312 11.5437 8.01667 11.5087 8.06594 11.4702C8.12234 11.4262 8.20818 11.3931 8.30374 11.4012C8.3914 11.4087 8.43201 11.4458 8.42521 11.44L7.64511 12.3518ZM4.83848 9.94835L7.64489 12.3516L8.42543 11.4402L5.61902 9.03689L4.83848 9.94835ZM4.83722 8.08998C4.25384 8.58997 4.25405 9.44923 4.8391 9.94887L5.61841 9.03636C5.60426 9.02428 5.60027 9.01618 5.59973 9.01503C5.59911 9.01372 5.6 9.01521 5.6 9.01862C5.6 9.02202 5.59912 9.02351 5.59973 9.02222C5.60026 9.02109 5.60418 9.01308 5.61813 9.00113L4.83722 8.08998ZM7.66483 5.66286L4.83688 8.09028L5.61847 9.00084L8.44642 6.57341L7.66483 5.66286ZM9.20657 6.50719C9.20657 6.21618 9.1348 5.8022 8.79824 5.55728C8.37227 5.24729 7.91508 5.44782 7.66458 5.66307L8.44667 6.5732C8.46987 6.55326 8.44657 6.58214 8.37455 6.59488C8.28707 6.61035 8.17987 6.59139 8.09216 6.52756C8.05433 6.50003 8.03045 6.47147 8.01677 6.45141C8.0033 6.43166 7.99849 6.41846 7.99793 6.41689C7.99749 6.41564 8.00657 6.4427 8.00657 6.50719H9.20657ZM9.20657 7.73469V6.50719H8.00657V7.73469H9.20657Z" fill="#0975E5"/>
</g>
<defs>
<clipPath id="clip0_5573_24565">
<rect width="17" height="17" fill="white" transform="translate(0 0.5)"/>
</clipPath>
</defs>
</svg>
