<svg width="17" height="18" viewBox="0 0 17 18" fill="none" xmlns="http://www.w3.org/2000/svg">
<path d="M5.09969 4.57996H11.8997C14.3409 4.57996 16.3197 6.55876 16.3197 8.99996C16.3197 11.4412 14.3409 13.42 11.8997 13.42H5.09969C2.65849 13.42 0.679688 11.4412 0.679688 8.99996C0.679688 6.55876 2.65849 4.57996 5.09969 4.57996Z" fill="#0975E5"/>
<path d="M8.5 8.99998C8.5 9.90171 8.85821 10.7665 9.49584 11.4041C10.1335 12.0418 10.9983 12.4 11.9 12.4C12.8017 12.4 13.6665 12.0418 14.3042 11.4041C14.9418 10.7665 15.3 9.90171 15.3 8.99998C15.3 8.09824 14.9418 7.23344 14.3042 6.59581C13.6665 5.95819 12.8017 5.59998 11.9 5.59998C10.9983 5.59998 10.1335 5.95819 9.49584 6.59581C8.85821 7.23344 8.5 8.09824 8.5 8.99998Z" fill="white"/>
</svg>
