<svg width="17" height="18" viewBox="0 0 17 18" fill="none" xmlns="http://www.w3.org/2000/svg">
<path d="M5.09969 4.57996H11.8997C14.3409 4.57996 16.3197 6.55876 16.3197 8.99996C16.3197 11.4412 14.3409 13.42 11.8997 13.42H5.09969C2.65849 13.42 0.679688 11.4412 0.679688 8.99996C0.679688 6.55876 2.65849 4.57996 5.09969 4.57996Z" stroke="#0975E5"/>
<path d="M2 8.99998C2 9.90171 2.35821 10.7665 2.99584 11.4041C3.63346 12.0418 4.49826 12.4 5.4 12.4C6.30174 12.4 7.16654 12.0418 7.80416 11.4041C8.44179 10.7665 8.8 9.90171 8.8 8.99998C8.8 8.09824 8.44179 7.23344 7.80416 6.59581C7.16654 5.95819 6.30174 5.59998 5.4 5.59998C4.49826 5.59998 3.63346 5.95819 2.99584 6.59581C2.35821 7.23344 2 8.09824 2 8.99998Z" fill="#0975E5"/>
</svg>
