<?xml version="1.0" standalone="no"?><!DOCTYPE svg PUBLIC "-//W3C//DTD SVG 1.1//EN" "http://www.w3.org/Graphics/SVG/1.1/DTD/svg11.dtd"><svg class="icon" width="200px" height="200.00px" viewBox="0 0 1024 1024" version="1.1" xmlns="http://www.w3.org/2000/svg"><path d="M64 576h896c0-224-166.4-409.6-377.6-441.6V0H192v64h262.4v64C236.8 160 64 345.6 64 576z m441.6 448c204.8 0 371.2-166.4 371.2-371.2H134.4c0 204.8 166.4 371.2 371.2 371.2z m0-307.2c64 0 121.6 51.2 121.6 121.6 0 64-51.2 121.6-121.6 121.6S384 908.8 384 838.4c6.4-70.4 57.6-121.6 121.6-121.6z" /></svg>