<?xml version="1.0" standalone="no"?><!DOCTYPE svg PUBLIC "-//W3C//DTD SVG 1.1//EN" "http://www.w3.org/Graphics/SVG/1.1/DTD/svg11.dtd"><svg class="icon" width="200px" height="200.00px" viewBox="0 0 1024 1024" version="1.1" xmlns="http://www.w3.org/2000/svg"><path d="M869.632 73.984H154.2656a35.2768 35.2768 0 0 0-35.2768 35.2768V913.92c0 19.5072 15.8208 35.2768 35.2768 35.2768h715.4176a35.328 35.328 0 0 0 35.328-35.2768V109.2608a35.328 35.328 0 0 0-35.3792-35.2768zM288.2048 476.3136H219.7504a35.328 35.328 0 0 1 0-70.656h68.4032a35.328 35.328 0 0 1 0.0512 70.656z m0-99.328H219.7504a35.328 35.328 0 0 1 0-70.6048h68.4032a35.328 35.328 0 0 1 0.0512 70.6048z m0-99.328H219.7504a35.328 35.328 0 0 1 0-70.6048h68.4032a35.328 35.328 0 0 1 0.0512 70.6048z m157.3888 198.656H377.1904a35.328 35.328 0 0 1 0-70.656h68.4032a35.328 35.328 0 0 1 0 70.656z m0-99.328H377.1904a35.328 35.328 0 0 1 0-70.6048h68.4032a35.328 35.328 0 1 1 0 70.6048z m0-99.328H377.1904a35.328 35.328 0 0 1 0-70.6048h68.4032a35.328 35.328 0 1 1 0 70.6048z m393.8816 164.1472a30.72 30.72 0 0 1-31.2832 30.0544h-252.3648a30.72 30.72 0 0 1-31.2832-30.0544V237.056a30.72 30.72 0 0 1 31.2832-30.0544h252.3648a30.72 30.72 0 0 1 31.2832 30.0544v204.7488z" fill="#00A0E9" /><path d="M742.1952 395.776c-7.5776 29.0304-36.8128 44.1856-66.048 44.3904 14.8992-0.1536 29.696-7.936 33.536-22.6816a35.328 35.328 0 0 0-0.7168-18.8928c-1.8432-5.12-5.888-10.1376-15.8208-17.6128-15.9232-15.0528-17.6128-36.2496-17.6128-36.2496-8.2944 3.7888-28.16 26.7776-33.4848 50.7392-1.8944 8.6016-2.0992 18.5344 1.7408 26.7264 5.5296 11.776 18.0736 17.664 30.7712 17.9712-25.1904-0.3072-50.176-11.776-61.184-35.2256-7.5776-16.0256-7.168-35.3792-3.3792-52.2752 10.3936-46.848 49.2032-91.8016 65.4848-99.2768 0 0 3.3792 41.472 34.4064 70.9632 19.3536 14.6432 27.2896 24.4736 30.9248 34.5088 3.8912 10.7008 4.2496 25.9584 1.3824 36.9152z" fill="#00A0E9" /></svg>