<svg width="20" height="20" viewBox="0 0 20 20" fill="none" xmlns="http://www.w3.org/2000/svg">
<path d="M10 1C10.1451 1.00001 10.2851 1.0532 10.3925 1.14922C10.5 1.24523 10.5672 1.37718 10.5811 1.51933L10.5839 1.57448V4.01715L11.9228 2.70007C12.0286 2.5956 12.1712 2.53517 12.321 2.53128C12.4708 2.52738 12.6164 2.58033 12.7277 2.67916C12.8389 2.77798 12.9073 2.91512 12.9186 3.06217C12.9299 3.20922 12.8833 3.35492 12.7885 3.4691L12.7484 3.51276L10.5839 5.64178V9.00476L13.544 7.32346L14.3361 4.41469C14.3748 4.27238 14.4675 4.15013 14.5952 4.0732C14.7229 3.99627 14.8757 3.97053 15.0221 4.00131C15.1685 4.03208 15.2973 4.11703 15.3819 4.23858C15.4665 4.36013 15.5004 4.50901 15.4766 4.65444L15.4637 4.71189L14.9733 6.51153L17.1242 5.28981C17.2541 5.21627 17.4077 5.19467 17.5534 5.22951C17.699 5.26434 17.8254 5.35293 17.9065 5.47694C17.9875 5.60094 18.017 5.75088 17.9889 5.8957C17.9607 6.04052 17.877 6.16914 17.7552 6.25493L17.7081 6.28481L15.5579 7.50615L17.3866 7.98871C17.5314 8.02665 17.6558 8.11792 17.7341 8.24363C17.8124 8.36934 17.8386 8.51987 17.8073 8.66405C17.7759 8.80823 17.6894 8.93503 17.5657 9.0182C17.4419 9.10137 17.2904 9.13454 17.1425 9.11085L17.0841 9.09821L14.1279 8.31846L11.1677 10.0001L14.1279 11.6814L17.0841 10.9021C17.2286 10.8643 17.3822 10.8824 17.5135 10.9528C17.6447 11.0232 17.7435 11.1404 17.7896 11.2803C17.8356 11.4202 17.8254 11.5721 17.761 11.7048C17.6966 11.8375 17.5829 11.9409 17.4434 11.9936L17.3866 12.012L15.5571 12.4938L17.7081 13.7155C17.838 13.7893 17.934 13.9094 17.9763 14.051C18.0186 14.1926 18.0039 14.3448 17.9352 14.476C17.8665 14.6072 17.7492 14.7074 17.6074 14.7558C17.4657 14.8041 17.3105 14.7969 17.174 14.7357L17.1242 14.7105L14.9741 13.4891L15.4637 15.2884C15.5021 15.4305 15.4837 15.5817 15.4122 15.7109C15.3407 15.84 15.2216 15.9372 15.0794 15.9825C14.9372 16.0279 14.7827 16.0178 14.6479 15.9544C14.513 15.891 14.408 15.7792 14.3544 15.6419L14.3361 15.5856L13.544 12.6768L10.5835 10.9951L10.5839 14.3581L12.748 16.4875C12.8543 16.5915 12.9159 16.7318 12.92 16.8793C12.924 17.0267 12.8703 17.1701 12.7699 17.2796C12.6694 17.3892 12.53 17.4565 12.3805 17.4677C12.231 17.4789 12.0829 17.433 11.9668 17.3397L11.9224 17.3002L10.5839 15.9824V18.4258C10.5838 18.5733 10.526 18.7152 10.4226 18.822C10.3191 18.9287 10.1778 18.9922 10.0281 18.9993C9.87829 19.0064 9.73149 18.9566 9.61808 18.86C9.50467 18.7635 9.43334 18.6278 9.41887 18.481L9.41614 18.4258V15.9831L8.07717 17.3002C7.97138 17.4047 7.82881 17.4651 7.67899 17.469C7.52916 17.4729 7.38355 17.42 7.27231 17.3211C7.16106 17.2223 7.09271 17.0852 7.08139 16.9381C7.07007 16.7911 7.11666 16.6454 7.2115 16.5312L7.2516 16.4875L9.41614 14.3585V10.9951L6.456 12.6764L5.6639 15.5856C5.62522 15.7279 5.53246 15.8502 5.40479 15.9271C5.27711 16.004 5.12428 16.0298 4.97787 15.999C4.83146 15.9682 4.70266 15.8833 4.61809 15.7617C4.53352 15.6402 4.49963 15.4913 4.52343 15.3458L4.53628 15.2884L5.02672 13.4887L2.87579 14.7105C2.74591 14.784 2.59226 14.8056 2.44664 14.7708C2.30103 14.7359 2.1746 14.6474 2.09353 14.5233C2.01246 14.3993 1.98295 14.2494 2.01112 14.1046C2.03928 13.9598 2.12296 13.8311 2.24484 13.7453L2.29193 13.7155L4.44208 12.4941L2.61344 12.0116C2.46864 11.9736 2.3442 11.8824 2.26589 11.7567C2.18758 11.6309 2.16139 11.4804 2.19275 11.3362C2.22411 11.192 2.31061 11.0652 2.43435 10.9821C2.55809 10.8989 2.70959 10.8657 2.8575 10.8894L2.91588 10.9021L5.87214 11.6818L8.83151 9.99976L5.87214 8.31846L2.91588 9.0986C2.77144 9.13638 2.61777 9.11823 2.48652 9.04787C2.35528 8.97751 2.25645 8.86031 2.2104 8.72041C2.16435 8.5805 2.17459 8.42855 2.239 8.29584C2.3034 8.16314 2.41708 8.05979 2.55662 8.00709L2.61344 7.98871L4.44286 7.50691L2.29193 6.28519C2.16203 6.2114 2.06598 6.09124 2.02369 5.94964C1.9814 5.80804 1.99612 5.65585 2.06479 5.52464C2.13347 5.39343 2.25084 5.29326 2.39256 5.24491C2.53428 5.19655 2.68947 5.20372 2.82597 5.26492L2.87579 5.29019L5.02594 6.51153L4.53628 4.71227C4.49787 4.57015 4.51632 4.41895 4.58783 4.28981C4.65933 4.16067 4.77845 4.06344 4.92064 4.01813C5.06283 3.97282 5.21726 3.98288 5.35214 4.04626C5.48701 4.10963 5.59204 4.22148 5.6456 4.35878L5.6639 4.41507L6.456 7.32384L9.41576 9.00515L9.41614 5.64254L7.25199 3.51315C7.14568 3.40912 7.08411 3.26885 7.08005 3.12138C7.07598 2.97392 7.12973 2.83056 7.23015 2.72102C7.33057 2.61148 7.46997 2.54415 7.61947 2.53298C7.76896 2.52181 7.9171 2.56765 8.03318 2.661L8.07756 2.70045L9.41614 4.01792V1.57448C9.41614 1.42212 9.47766 1.276 9.58715 1.16826C9.69665 1.06053 9.84515 1 10 1Z" fill="#0975E5"/>
</svg>
