<?xml version="1.0" standalone="no"?><!DOCTYPE svg PUBLIC "-//W3C//DTD SVG 1.1//EN" "http://www.w3.org/Graphics/SVG/1.1/DTD/svg11.dtd"><svg class="icon" width="200px" height="200.00px" viewBox="0 0 1024 1024" version="1.1" xmlns="http://www.w3.org/2000/svg"><path d="M710.656 540.672c0-112.64-88.064-204.8-198.656-204.8-108.544 0-198.656 92.16-198.656 204.8v231.424h395.264V540.672z m75.776-43.008c-12.288 0-22.528-10.24-24.576-22.528-2.048-12.288 8.192-24.576 20.48-26.624l100.352-18.432c6.144-2.048 12.288 0 18.432 4.096 6.144 4.096 8.192 10.24 10.24 16.384 2.048 12.288-6.144 26.624-18.432 28.672l-100.352 18.432h-6.144z m-96.256-167.936c-6.144 0-10.24-2.048-14.336-6.144-10.24-8.192-12.288-24.576-2.048-34.816l65.536-79.872c4.096-4.096 10.24-8.192 16.384-8.192 6.144 0 12.288 2.048 18.432 6.144 10.24 8.192 12.288 24.576 2.048 34.816l-65.536 79.872c-6.144 6.144-12.288 8.192-20.48 8.192z m-452.608 167.936h-4.096l-100.352-18.432c-12.288-2.048-22.528-14.336-18.432-28.672 2.048-6.144 4.096-12.288 10.24-16.384 6.144-4.096 12.288-6.144 18.432-4.096l100.352 18.432c12.288 2.048 20.48 12.288 20.48 26.624-4.096 12.288-14.336 22.528-26.624 22.528z m94.208-167.936c-6.144 0-14.336-4.096-18.432-8.192l-65.536-79.872c-8.192-10.24-8.192-24.576 2.048-34.816 4.096-4.096 10.24-6.144 18.432-6.144 6.144 0 12.288 4.096 16.384 8.192l65.536 79.872c8.192 10.24 8.192 24.576-2.048 34.816-4.096 4.096-10.24 6.144-16.384 6.144z m180.224-65.536c-6.144 0-12.288-2.048-16.384-6.144-4.096-4.096-6.144-10.24-6.144-16.384v-102.4c0-12.288 10.24-24.576 24.576-24.576 12.288 0 24.576 10.24 24.576 24.576v102.4c0 6.144-2.048 12.288-6.144 16.384-8.192 4.096-14.336 6.144-20.48 6.144z m276.48 602.112c0 24.576-20.48 45.056-45.056 45.056H280.576c-12.288 0-22.528-4.096-30.72-12.288-8.192-8.192-12.288-20.48-12.288-30.72 0-24.576 20.48-45.056 45.056-45.056h464.896c20.48-2.048 40.96 18.432 40.96 43.008z m0 0" /></svg>