<?xml version="1.0" standalone="no"?><!DOCTYPE svg PUBLIC "-//W3C//DTD SVG 1.1//EN" "http://www.w3.org/Graphics/SVG/1.1/DTD/svg11.dtd"><svg class="icon" width="200px" height="200.00px" viewBox="0 0 1024 1024" version="1.1" xmlns="http://www.w3.org/2000/svg"><path d="M874.957469 232.771936c-58.695115 0-106.444501-47.749386-106.444501-106.437276v-16.595603H615.691813c-5.635425-10.288262-16.566703-17.274744-29.123586-17.274744-18.32958 0-33.191206 14.861626-33.191206 33.191206s14.861626 33.191206 33.191206 33.191206c11.99334 0 22.476674-6.386815 28.307172-15.923687h121.436175c7.586149 63.752547 58.30497 114.471368 122.057517 122.050292v93.04953c0 231.854373-135.618661 442.012361-346.116219 537.460559-210.497559-95.448198-346.116219-305.606186-346.11622-537.460559V264.980555c63.752547-7.586149 114.471368-58.297745 122.057517-122.050292h120.70646c5.830497 9.536872 16.306607 15.923687 28.307172 15.923687 18.32958 0 33.191206-14.861626 33.191206-33.191206s-14.861626-33.191206-33.191206-33.191206c-12.564107 0-23.488161 6.979257-29.123586 17.274744H255.978325v16.595603c0 58.68789-47.749386 106.437276-106.437276 106.437276H132.938221v125.258149c0 247.481839 146.268168 471.540541 372.63884 570.832388l6.668586 2.926086 6.668585-2.926086C745.284904 829.570626 891.553072 605.504699 891.553072 358.030085V232.771936h-16.595603zM361.36799 354.446533c8.048542-10.223238 17.346993-19.218243 26.992239-27.924252 7.058731-6.36514 7.477775-16.386081 1.466656-22.816244-6.235092-6.675811-15.656366-6.972032-22.895719-0.708041-7.578924 6.552987-14.818277 13.445545-21.508537 20.92332-31.695651 35.430926-50.372026 76.779048-56.043576 123.928767-3.417379 28.42277-1.13431 56.513194 6.444614 84.11955 10.057065 36.637485 28.292721 68.701606 54.685294 96.004515 7.268253 7.521124 14.211385 15.620241 24.109502 20.063557h6.827534c0.621342-0.975362 1.777326-0.874213 2.673214-1.249908 6.37959-2.694889 10.158214-8.778258 9.796969-15.670816-0.296221-5.577625-3.34513-9.450174-7.354952-12.889227-15.916462-13.669517-29.340332-29.470381-39.932041-47.575989-22.722321-38.833855-31.04541-80.564897-24.658595-125.14255 4.86236-33.906471 18.235656-64.178816 39.397398-91.062682zM407.556797 594.327774c4.739537 4.118195 10.013716 5.881071 16.068185 4.06762 12.267886-3.684701 15.287895-18.466853 5.563176-27.483532-6.184517-5.729348-12.238986-11.545396-17.54929-18.112833-32.374792-39.982615-37.042079-97.333898-11.567071-141.99825 7.391076-12.961477 16.696752-24.347924 27.960376-34.123219 3.337905-2.897186 6.054469-6.155618 6.704711-10.714531 1.011486-7.109305-2.015748-13.351621-8.048543-16.667852-6.032794-3.323456-13.0843-2.398668-18.907572 2.723788-36.543561 32.085796-55.017639 72.552479-55.971326 113.893377-0.093924 24.969266 3.323456 44.49818 9.161178 60.667513 9.623571 26.659893 25.214913 49.172692 46.586176 67.747919zM457.538679 396.49547c-6.025569 0.78029-9.717495 5.165806-13.618943 9.060029-15.844213 15.786414-25.178788 34.867384-27.620806 57.055062-2.738238 24.860892 3.525753 47.48929 18.31513 67.682894 4.717862 6.444614 10.07874 12.36181 16.523354 17.086897 6.675811 4.89126 15.793639 3.482403 21.161742-2.817713 5.151356-6.040019 4.87681-15.230096-0.700815-21.111167-1.719527-1.813451-3.576327-3.496853-5.375329-5.23083-19.225468-18.539102-24.188976-49.909632-11.863291-73.585641 4.327717-8.315864 10.454435-15.027799 17.079672-21.472412 4.89126-4.753986 5.700449-10.728981 3.381254-16.985748-2.196371-5.938871-8.23639-9.876443-15.201196-9.963142-0.288996 0.043349-1.184884 0.166173-2.080772 0.281771zM635.090678 618.755172c-4.009821 3.439054-7.058731 7.318827-7.354951 12.889227-0.361245 6.885333 3.410154 12.968701 9.796969 15.670816 0.895888 0.375695 2.051873 0.274546 2.673214 1.249908h6.827533c9.898118-4.443316 16.84125-12.542432 24.109503-20.063557 26.392572-27.30291 44.628228-59.374256 54.685293-96.004515 7.578924-27.606356 9.861993-55.69678 6.444614-84.11955-5.664324-47.142494-24.347924-88.497841-56.043575-123.928767-6.683036-7.47055-13.929614-14.370333-21.508537-20.92332-7.239353-6.263991-16.660627-5.96777-22.895719 0.708041-6.01112 6.430164-5.592075 16.451105 1.466655 22.816244 9.645246 8.706009 18.943697 17.693788 26.992239 27.924252 21.161742 26.883865 34.527813 57.15621 39.390173 91.062682 6.386815 44.570429-1.936274 86.308695-24.658595 125.135325-10.584483 18.112833-24.008354 33.913696-39.924816 47.583214zM613.885587 352.553608c-5.830497-5.115232-12.874778-6.047244-18.907572-2.723788-6.025569 3.316231-9.052804 9.565772-8.048542 16.667852 0.643016 4.558914 3.366805 7.817345 6.70471 10.714531 11.270849 9.775294 20.5693 21.154517 27.960376 34.123219 25.475009 44.664352 20.807722 102.015635-11.567071 141.99825-5.317529 6.567437-11.364773 12.383484-17.54929 18.112833-9.731945 9.009454-6.70471 23.791607 5.563176 27.483532 6.054469 1.820676 11.321424 0.057799 16.068185-4.067621 21.371264-18.582451 36.962605-41.088025 46.593402-67.740693 5.844947-16.169334 9.262326-35.698247 9.161177-60.667514-0.960912-41.348122-19.43499-81.814805-55.978551-113.900601zM567.29941 445.162419c12.31846 23.676008 7.362177 55.053763-11.863291 73.585641-1.799001 1.733977-3.655801 3.417379-5.375328 5.23083-5.577625 5.881071-5.852172 15.063923-0.700816 21.111167 5.375328 6.300116 14.485931 7.708972 21.161742 2.817713 6.444614-4.725087 11.812717-10.649508 16.523354-17.086897 14.789377-20.193605 21.053368-42.822002 18.31513-67.682894-2.442017-22.187678-11.776592-41.275873-27.620806-57.055062-3.908673-3.894223-7.593373-8.279739-13.618942-9.060029-0.895888-0.115598-1.791776-0.238422-2.087997-0.281771-6.964807 0.086699-12.997601 4.024271-15.201197 9.963142-2.319194 6.256766-1.510005 12.231761 3.381255 16.985747 6.632461 6.444614 12.759179 13.149324 17.086896 21.472413zM512.166173 505.064093c19.767336-0.75139 31.710101-16.805125 30.97316-32.960009-0.859763-18.943697-16.140434-31.226032-32.584314-30.66249-19.947958 0.693591-31.710101 17.281969-30.95871 32.952784 0.700816 18.372929 15.952587 31.305506 32.569864 30.669715z" /></svg>