<?xml version="1.0" standalone="no"?><!DOCTYPE svg PUBLIC "-//W3C//DTD SVG 1.1//EN" "http://www.w3.org/Graphics/SVG/1.1/DTD/svg11.dtd"><svg class="icon" width="200px" height="168.56px" viewBox="0 0 1215 1024" version="1.1" xmlns="http://www.w3.org/2000/svg"><path d="M63.679045 0.993433h382.089552c42.457791 0 63.686687 21.228896 63.686687 63.686686V956.217313c0 42.457791-21.228896 63.686687-63.686687 63.686687h-382.089552c-42.450149 0-63.679045-21.228896-63.679045-63.686687V64.680119C0 22.222328 21.228896 0.993433 63.679045 0.993433z" fill="#8a8a8a" /><path d="M63.679045 64.680119h382.089552V956.217313h-382.089552z" fill="#8a8a8a" /><path d="M509.455284 192.038209a63.679045 63.679045 0 1 0 0 127.365731h573.134328a63.679045 63.679045 0 0 0 0-127.365731h-573.134328z m0-63.679045h573.134328c70.335045 0 127.35809 57.023045 127.358089 127.365732 0 70.335045-57.023045 127.35809-127.358089 127.358089h-573.134328C439.112597 383.082985 382.089552 326.05994 382.089552 255.724896c0-70.342687 57.023045-127.365731 127.365732-127.365732z" fill="#8a8a8a" /><path d="M509.455284 192.038209a63.679045 63.679045 0 1 0 0 127.365731h573.134328a63.679045 63.679045 0 0 0 0-127.365731h-573.134328zM127.365731 255.724896a127.365731 127.365731 0 1 0 254.723821 0c0-70.342687-57.023045-127.365731-127.365731-127.365732-70.335045 0-127.35809 57.023045-127.35809 127.365732z" fill="#FFFFFF" /><path d="M191.044776 255.724896a63.679045 63.679045 0 1 0 95.522388-55.158448A63.679045 63.679045 0 0 0 191.044776 255.724896zM127.365731 446.769672H382.089552v63.679044H127.365731z" fill="#FFFFFF" /><path d="M700.50006 128.359164H764.179104L636.813373 383.082985H573.134328l127.365732-254.723821z m254.723821 0h63.679044L891.544836 383.082985h-63.686687L955.223881 128.359164z" fill="#8a8a8a" /></svg>