<?xml version="1.0" standalone="no"?><!DOCTYPE svg PUBLIC "-//W3C//DTD SVG 1.1//EN" "http://www.w3.org/Graphics/SVG/1.1/DTD/svg11.dtd"><svg class="icon" width="200px" height="200.00px" viewBox="0 0 1024 1024" version="1.1" xmlns="http://www.w3.org/2000/svg"><path d="M389.66613333 343.06275555H194.51448889V232.37973333c0-21.55406222-17.47626667-39.61287111-39.61287111-39.61287111h-122.33386667c-21.55406222 0-39.61287111 17.47626667-39.61287111 39.61287111v559.24053334c0 21.55406222 17.47626667 39.61287111 39.61287111 39.61287111h122.33386667c21.55406222 0 39.61287111-17.47626667 39.61287111-39.61287111v-81.55591112H389.66613333c41.94304 0 75.73048889-33.78744889 75.73048889-75.73048888V418.79324445c0-41.94304-33.78744889-75.73048889-75.73048889-75.7304889z m26.79694222 196.89927112l-177.67537777 110.10048c-2.91271111 1.74762667-5.82542222 2.91271111-9.32067556 2.91271111-5.82542222 0-11.65084445-2.91271111-15.14609777-8.15559111-5.24288-8.15559111-2.33016889-19.22389333 5.82542222-23.88423112l152.62606222-94.37184L214.90346667 435.68696889c-8.15559111-4.66033778-11.06830222-15.72864-6.40796445-23.88423111 4.66033778-8.15559111 15.72864-11.06830222 23.88423111-6.40796445l183.5008 104.8576c5.24288 2.91271111 8.73813333 8.73813333 8.73813334 15.14609778 0 5.82542222-2.91271111 11.65084445-8.15559112 14.56355556zM995.51004445 192.76686222h-122.33386667c-21.55406222 0-39.61287111 17.47626667-39.61287111 39.61287111v110.68302222h-195.15164445c-41.94304 0-75.73048889 33.78744889-75.73048889 75.7304889v215.54062222c0 41.94304 33.78744889 75.73048889 75.73048889 75.73048888h195.15164445v82.13845334c0 21.55406222 17.47626667 39.61287111 39.61287111 39.61287111h122.33386667c21.55406222 0 39.61287111-17.47626667 39.6128711-39.61287111V232.37973333c0-21.55406222-17.47626667-39.61287111-39.6128711-39.61287111z m-188.74368 428.16853333c8.15559111 5.24288 10.48576 15.72864 5.82542222 23.88423112-3.49525333 5.24288-8.73813333 8.15559111-15.14609778 8.15559111-2.91271111 0-6.40796445-0.58254222-9.32067556-2.91271111l-177.67537778-110.10048c-5.24288-3.49525333-8.15559111-8.73813333-8.1555911-15.14609778s3.49525333-11.65084445 8.73813333-15.14609778l183.5008-104.8576c8.15559111-4.66033778 19.22389333-1.74762667 23.88423111 6.40796444 4.66033778 8.15559111 1.74762667 19.22389333-6.40796444 23.88423112l-157.86894223 90.29404444 152.62606223 95.53692444z" fill="#ADB0B5" /></svg>