<?xml version="1.0" standalone="no"?><!DOCTYPE svg PUBLIC "-//W3C//DTD SVG 1.1//EN" "http://www.w3.org/Graphics/SVG/1.1/DTD/svg11.dtd"><svg class="icon" width="200px" height="200.00px" viewBox="0 0 1024 1024" version="1.1" xmlns="http://www.w3.org/2000/svg"><path d="M532.48 235.52v184.32h-184.32v-184.32h184.32m20.48-61.44H327.68c-22.528 0-40.96 18.432-40.96 40.96v225.28c0 22.528 18.432 40.96 40.96 40.96h225.28c22.528 0 40.96-18.432 40.96-40.96V215.04c0-22.528-18.432-40.96-40.96-40.96zM962.56 673.792v40.96H348.16v-40.96h614.4m20.48-61.44H327.68c-22.528 0-40.96 18.432-40.96 40.96v81.92c0 22.528 18.432 40.96 40.96 40.96h655.36c22.528 0 40.96-18.432 40.96-40.96v-81.92c0-22.528-18.432-40.96-40.96-40.96z" fill="#646464" /><path d="M747.52 752.2304V952.32c0 5.7344-4.5056 10.24-10.24 10.24H143.36c-5.7344 0-10.24-4.5056-10.24-10.24V71.68c0-5.7344 4.5056-10.24 10.24-10.24h593.92c5.7344 0 10.24 4.5056 10.24 10.24v562.176h61.44V71.68c0-39.5264-32.1536-71.68-71.68-71.68H143.36C103.8336 0 71.68 32.1536 71.68 71.68v880.64c0 39.5264 32.1536 71.68 71.68 71.68h593.92c39.5264 0 71.68-32.1536 71.68-71.68v-200.0896h-61.44z" fill="#646464" /></svg>