<svg width="36" height="36" viewBox="0 0 36 36" fill="none" xmlns="http://www.w3.org/2000/svg">
<path d="M25.4223 20.6611V18.7003H10.5763V20.6611H9.87606C9.69034 20.6611 9.51222 20.5873 9.38089 20.456C9.24956 20.3247 9.17578 20.1465 9.17578 19.9608V12.818C9.17578 12.6322 9.24956 12.4541 9.38089 12.3228C9.51222 12.1915 9.69034 12.1177 9.87606 12.1177H26.1226C26.3083 12.1177 26.4864 12.1915 26.6177 12.3228C26.7491 12.4541 26.8228 12.6322 26.8228 12.818V19.9608C26.8228 20.1465 26.7491 20.3247 26.6177 20.456C26.4864 20.5873 26.3083 20.6611 26.1226 20.6611H25.4223ZM12.0469 19.6807H23.9517C24.0817 19.6807 24.2064 19.7323 24.2983 19.8243C24.3902 19.9162 24.4419 20.0409 24.4419 20.1709C24.4419 20.3009 24.3902 20.4256 24.2983 20.5175C24.2064 20.6094 24.0817 20.6611 23.9517 20.6611H12.0469C11.9169 20.6611 11.7922 20.6094 11.7003 20.5175C11.6084 20.4256 11.5567 20.3009 11.5567 20.1709C11.5567 20.0409 11.6084 19.9162 11.7003 19.8243C11.7922 19.7323 11.9169 19.6807 12.0469 19.6807ZM12.0469 21.6415C12.1769 21.6415 12.3016 21.6931 12.3936 21.7851C12.4855 21.877 12.5371 22.0017 12.5371 22.1317V23.3922C12.5371 23.5222 12.4855 23.6469 12.3936 23.7388C12.3016 23.8307 12.1769 23.8824 12.0469 23.8824C11.9169 23.8824 11.7922 23.8307 11.7003 23.7388C11.6084 23.6469 11.5567 23.5222 11.5567 23.3922V22.1317C11.5567 22.0017 11.6084 21.877 11.7003 21.7851C11.7922 21.6931 11.9169 21.6415 12.0469 21.6415ZM21.0105 21.6415C21.1405 21.6415 21.2652 21.6931 21.3571 21.7851C21.4491 21.877 21.5007 22.0017 21.5007 22.1317V23.3922C21.5007 23.5222 21.4491 23.6469 21.3571 23.7388C21.2652 23.8307 21.1405 23.8824 21.0105 23.8824C20.8805 23.8824 20.7558 23.8307 20.6639 23.7388C20.572 23.6469 20.5203 23.5222 20.5203 23.3922V22.1317C20.5203 22.0017 20.572 21.877 20.6639 21.7851C20.7558 21.6931 20.8805 21.6415 21.0105 21.6415ZM23.9517 21.6415C24.0817 21.6415 24.2064 21.6931 24.2983 21.7851C24.3902 21.877 24.4419 22.0017 24.4419 22.1317V23.3922C24.4419 23.5222 24.3902 23.6469 24.2983 23.7388C24.2064 23.8307 24.0817 23.8824 23.9517 23.8824C23.8217 23.8824 23.697 23.8307 23.6051 23.7388C23.5131 23.6469 23.4615 23.5222 23.4615 23.3922V22.1317C23.4615 22.0017 23.5131 21.877 23.6051 21.7851C23.697 21.6931 23.8217 21.6415 23.9517 21.6415ZM17.9293 21.6415C18.0593 21.6415 18.184 21.6931 18.2759 21.7851C18.3678 21.877 18.4195 22.0017 18.4195 22.1317V23.3922C18.4195 23.5222 18.3678 23.6469 18.2759 23.7388C18.184 23.8307 18.0593 23.8824 17.9293 23.8824C17.7993 23.8824 17.6746 23.8307 17.5827 23.7388C17.4907 23.6469 17.4391 23.5222 17.4391 23.3922V22.1317C17.4391 22.0017 17.4907 21.877 17.5827 21.7851C17.6746 21.6931 17.7993 21.6415 17.9293 21.6415ZM14.9881 21.6415C15.1181 21.6415 15.2428 21.6931 15.3347 21.7851C15.4267 21.877 15.4783 22.0017 15.4783 22.1317V23.3922C15.4783 23.5222 15.4267 23.6469 15.3347 23.7388C15.2428 23.8307 15.1181 23.8824 14.9881 23.8824C14.8581 23.8824 14.7334 23.8307 14.6415 23.7388C14.5496 23.6469 14.4979 23.5222 14.4979 23.3922V22.1317C14.4979 22.0017 14.5496 21.877 14.6415 21.7851C14.7334 21.6931 14.8581 21.6415 14.9881 21.6415Z" fill="#0975E5"/>
</svg>
