<?xml version="1.0" standalone="no"?><!DOCTYPE svg PUBLIC "-//W3C//DTD SVG 1.1//EN" "http://www.w3.org/Graphics/SVG/1.1/DTD/svg11.dtd"><svg class="icon" width="200px" height="200.00px" viewBox="0 0 1024 1024" version="1.1" xmlns="http://www.w3.org/2000/svg"><path d="M160.016 849.345092H863.9956v124.68722a49.871688 49.871688 0 0 1-49.871688 49.871689H209.887688a49.887688 49.887688 0 0 1-49.871688-49.871689v-124.68722z" fill="#B3B3B3" /><path d="M839.051756 914.176686H184.943844a24.927844 24.927844 0 0 1-24.927844-24.319848V63.094006A63.9516 63.9516 0 0 1 224.831595 0.0064h574.33241A63.9516 63.9516 0 0 1 863.9956 63.078006v826.778832a24.943844 24.943844 0 0 1-24.943844 24.319848z" fill="#E6E6E6" /><path d="M208.639696 854.46506V59.734027a12.479922 12.479922 0 0 1 12.463922-12.463922h581.548366a12.479922 12.479922 0 0 1 12.463922 12.463922v794.731033a12.479922 12.479922 0 0 1-12.463922 12.463922H221.359617a12.479922 12.479922 0 0 1-12.719921-12.223924v-0.239998z" fill="#6B7179" /><path d="M712.01255 197.317167h-59.999625a6.671958 6.671958 0 0 0-6.671958 6.671958v19.999875c0 3.679977 2.991981 6.671958 6.671958 6.671958h59.999625c18.415885 0 33.327792 14.927907 33.327792 33.327792v59.999625c0 3.679977 2.991981 6.671958 6.671958 6.671958h19.999875c3.679977 0 6.671958-2.991981 6.671958-6.671958v-59.999625a66.687583 66.687583 0 0 0-66.671583-66.671583z m-400.0295 0a66.671583 66.671583 0 0 0-66.671583 66.671583v59.999625c0 3.679977 2.991981 6.671958 6.671958 6.671958h19.999875c3.679977 0 6.671958-2.991981 6.671959-6.671958v-59.999625c0-18.415885 14.927907-33.327792 33.327791-33.327792h59.999625c3.679977 0 6.671958-2.991981 6.671959-6.671958v-19.999875a6.671958 6.671958 0 0 0-6.671959-6.671958h-59.999625zM745.340342 604.002625v59.999625a33.327792 33.327792 0 0 1-33.327792 33.327792h-59.999625a6.671958 6.671958 0 0 0-6.671958 6.671958v19.999875c0 3.679977 2.991981 6.671958 6.671958 6.671958h59.999625a66.671583 66.671583 0 0 0 66.671583-66.671583v-59.999625a6.671958 6.671958 0 0 0-6.671958-6.671958h-19.999875a6.687958 6.687958 0 0 0-6.671958 6.671958z m-433.357292 93.343417a33.327792 33.327792 0 0 1-33.327791-33.327792v-59.999625a6.671958 6.671958 0 0 0-6.671959-6.671958h-19.999875a6.671958 6.671958 0 0 0-6.671958 6.671958v59.999625a66.671583 66.671583 0 0 0 66.671583 66.671583h59.999625c3.679977 0 6.671958-2.991981 6.671959-6.671958V704.002a6.671958 6.671958 0 0 0-6.671959-6.671958l-59.999625 0.016zM511.9978 313.988438a65.247592 65.247592 0 0 1 33.343792 121.439241L511.9978 454.995556l-33.327792-19.615877A65.215592 65.215592 0 0 1 511.9978 313.988438m0 168.734945l39.615753 13.055918a121.695239 121.695239 0 0 1 79.9995 86.111462l0.271998 1.167993 0.383997 1.103993a22.831857 22.831857 0 0 1-21.663864 29.839813H413.390416a22.831857 22.831857 0 0 1-21.663864-29.823813l0.383997-1.103993 0.271999-1.167993a121.391241 121.391241 0 0 1 79.9995-86.111462L511.9978 482.723383m0-202.062737A98.559384 98.559384 0 0 0 461.998113 464.0035a154.671033 154.671033 0 0 0-101.999363 109.887313 56.159649 56.159649 0 0 0 53.327667 73.439541h197.278767a56.191649 56.191649 0 0 0 53.343666-73.439541A154.959032 154.959032 0 0 0 561.997488 464.0035 98.575384 98.575384 0 0 0 511.9978 280.660646z" fill="#00EDFF" /></svg>