<?xml version="1.0" standalone="no"?><!DOCTYPE svg PUBLIC "-//W3C//DTD SVG 1.1//EN" "http://www.w3.org/Graphics/SVG/1.1/DTD/svg11.dtd"><svg class="icon" width="200px" height="200.00px" viewBox="0 0 1024 1024" version="1.1" xmlns="http://www.w3.org/2000/svg"><path d="M112.286897 88.275862m69.737931 0l672.662069 0q69.737931 0 69.737931 69.737931l0 672.662069q0 69.737931-69.737931 69.737931l-672.662069 0q-69.737931 0-69.737931-69.737931l0-672.662069q0-69.737931 69.737931-69.737931Z" fill="#FFFFFF" /><path d="M437.495172 865.103448a44.314483 44.314483 0 0 0-25.070344 80.86069c44.491034 30.190345 79.448276 60.38069 101.164138 60.38069s65.324138-30.190345 109.815172-60.38069A44.314483 44.314483 0 0 0 598.157241 865.103448z" fill="#B5BDC9" /><path d="M857.511724 935.724138H179.376552a102.576552 102.576552 0 0 1-102.4-102.4V155.365517a102.576552 102.576552 0 0 1 102.4-102.4h678.135172a102.4 102.4 0 0 1 102.223448 102.4v677.958621a102.4 102.4 0 0 1-102.223448 102.4zM179.376552 123.586207a31.955862 31.955862 0 0 0-31.779311 31.77931v677.958621a31.955862 31.955862 0 0 0 31.779311 31.77931h678.135172a31.77931 31.77931 0 0 0 31.602759-31.77931V155.365517A31.77931 31.77931 0 0 0 857.511724 123.586207z" fill="#B5BDC9" /><path d="M441.37931 447.205517a32.132414 32.132414 0 0 0-32.485517-29.660689c-29.131034 0-38.488276 28.248276-38.488276 55.437241s9.357241 55.26069 38.488276 55.26069c20.833103 0 29.131034-14.653793 32.838621-33.544828h60.910345a86.686897 86.686897 0 0 1-91.983449 83.862069c-65.324138 0-102.4-46.08-102.4-105.931034 0-63.735172 40.253793-105.931034 102.4-105.931035 55.26069 0 85.804138 29.307586 91.277242 79.977931zM625.69931 367.227586a99.222069 99.222069 0 0 1 102.223449 105.931035 99.222069 99.222069 0 0 1-102.223449 105.931034 99.222069 99.222069 0 0 1-102.223448-105.931034 99.222069 99.222069 0 0 1 102.223448-105.931035z m0 161.015173c15.889655 0 40.077241-10.416552 40.077242-55.26069s-24.187586-55.437241-40.077242-55.437241-40.077241 10.416552-40.077241 55.437241 24.187586 55.26069 40.077241 55.26069z" fill="#B5BDC9" /></svg>