<?xml version="1.0" standalone="no"?><!DOCTYPE svg PUBLIC "-//W3C//DTD SVG 1.1//EN" "http://www.w3.org/Graphics/SVG/1.1/DTD/svg11.dtd"><svg class="icon" width="200px" height="200.00px" viewBox="0 0 1024 1024" version="1.1" xmlns="http://www.w3.org/2000/svg"><path d="M527.97716 495.616h-13.722v39.22h11.878a28.186 28.186 0 0 0 19.661-5.428c3.789-3.686 5.837-8.704 5.632-13.926a20.894 20.894 0 0 0-4.915-13.927c-5.12-4.505-11.878-6.656-18.534-5.939zM963.79116 0H60.21316C44.03416 0.102 28.67416 6.86 17.61516 18.74A66.12 66.12 0 0 0 0.00216 64v832c-0.102 16.794 6.247 32.973 17.613 45.26A58.46 58.46 0 0 0 60.21316 960v64h180.736v-64h180.736v64H602.42116v-64h180.736v64h180.736v-64c16.18-0.102 31.642-6.86 42.599-18.74a66.12 66.12 0 0 0 17.613-45.26V64c0.102-16.794-6.247-32.973-17.613-45.26A59.034 59.034 0 0 0 963.79116 0zM120.42516 167.629H301.16116v64H120.42516v-64z m248.115 434.483c0.102 17.51-2.253 35.02-7.168 51.814-4.403 15.565-12.083 30.106-22.426 42.599a90.644 90.644 0 0 1-32.051 25.6c-17.715 7.27-36.762 10.854-55.808 10.342a290.918 290.918 0 0 1-41.165-3.174 95.324 95.324 0 0 1-37.273-12.595 100.24 100.24 0 0 1-27.444-26.727c-7.884-10.65-13.721-22.835-16.998-35.635a215.065 215.065 0 0 1-7.373-52.326V417.69H200.50116v188.825c-0.921 14.131 3.277 28.16 11.674 39.527a39.731 39.731 0 0 0 32.563 14.233c12.39 0.615 24.371-4.505 32.359-13.926a60.058 60.058 0 0 0 11.673-39.731V417.792h79.77v184.32z m248.73-16.282a91.576 91.576 0 0 1-71.885 26.317h-43.828v114.79h-80.281V417.69H554.19116a82.082 82.082 0 0 1 65.126 24.678c15.565 19.968 23.348 44.954 21.607 70.246 1.536 26.522-6.861 52.634-23.552 73.216h-0.103z m272.486 95.437a91.484 91.484 0 0 1-38.503 38.093c-19.456 9.318-40.755 13.722-62.361 13.005-44.032 0-74.547-10.035-91.443-30.208a131.246 131.246 0 0 1-28.775-77.21l76.083-5.734c0.717 11.878 4.199 23.347 10.036 33.69a39.547 39.547 0 0 0 35.328 18.739c9.728 0.614 19.353-2.868 26.419-9.626 5.939-5.837 9.318-13.926 9.318-22.22a30.63 30.63 0 0 0-8.806-21.505 92.786 92.786 0 0 0-40.96-17.92 161.075 161.075 0 0 1-75.06-37.58 82.76 82.76 0 0 1-22.63-59.7 92.632 92.632 0 0 1 11.674-45.056c7.987-14.336 20.07-26.01 34.816-33.28 19.968-9.011 41.779-13.21 63.693-12.083 27.033-1.843 53.862 5.94 75.673 22.016a101.09 101.09 0 0 1 30.925 70.144l-75.366 5.222a51.528 51.528 0 0 0-12.596-30.208c-7.168-6.656-16.793-10.035-26.624-9.523-7.68-0.614-15.155 1.946-20.992 6.963-4.608 4.506-7.168 10.752-6.963 17.204 0 5.017 2.15 9.83 5.837 13.312 7.885 5.836 17.1 9.728 26.829 11.366 26.214 5.632 51.405 14.848 75.161 27.34 14.03 8.09 25.498 19.969 32.973 34.305a101.212 101.212 0 0 1 10.343 45.773c0.102 19.148-4.71 37.99-13.927 54.784l-0.102-0.103z m13.721-449.638h-60.21v64h-60.212v-64h-60.211v-64h60.211v-64h60.211v64h60.211v64z" /></svg>