<?xml version="1.0" standalone="no"?><!DOCTYPE svg PUBLIC "-//W3C//DTD SVG 1.1//EN" "http://www.w3.org/Graphics/SVG/1.1/DTD/svg11.dtd"><svg class="icon" width="200px" height="200.00px" viewBox="0 0 1024 1024" version="1.1" xmlns="http://www.w3.org/2000/svg"><path d="M622.413913 667.826087a133.565217 133.565217 0 0 0-17.808696-70.344348c-22.706087-27.603478-66.782609-60.549565-66.782608-91.714782a143.36 143.36 0 0 1 21.370434-65.00174c5.787826 28.93913 59.65913 53.426087 100.173914 59.213913s38.288696-28.93913 8.45913-37.39826a119.763478 119.763478 0 0 1-85.036522-73.015653 81.92 81.92 0 0 0-85.926956-52.535652C467.478261 337.029565 369.975652 405.147826 369.975652 405.147826c-20.48 17.363478-37.843478 113.530435-17.363478 117.982609s22.706087-26.713043 34.726956-62.775652S455.012174 400.695652 455.012174 400.695652a178.086957 178.086957 0 0 1-7.123478 67.673044A322.782609 322.782609 0 0 0 422.956522 575.666087c-5.787826 57.878261-28.493913 63.666087-68.118261 109.078261s-10.685217 66.337391 7.568696 64.111304a445.217391 445.217391 0 0 0 114.420869-121.989565 260.452174 260.452174 0 0 0 12.02087-65.446957l39.17913 32.50087a128.667826 128.667826 0 0 1 40.069565 73.906087H512v133.565217h178.086957v-133.565217zM244.869565 0h534.26087a89.043478 89.043478 0 0 1 89.043478 89.043478v845.913044a89.043478 89.043478 0 0 1-89.043478 89.043478H244.869565a89.043478 89.043478 0 0 1-89.043478-89.043478V89.043478a89.043478 89.043478 0 0 1 89.043478-89.043478z m247.54087 280.041739A59.213913 59.213913 0 1 0 551.624348 222.608696a57.878261 57.878261 0 0 0-59.213913 57.433043zM200.347826 845.913043v89.043479h133.565217v-89.043479z m133.565217-89.043478v133.565218h178.086957v-133.565218z m356.173914-178.086956v133.565217h133.565217v-133.565217z" fill="#999999" /></svg>