<svg width="16" height="17" viewBox="0 0 16 17" fill="none" xmlns="http://www.w3.org/2000/svg">
<path d="M2.60738 10.8814C2.57176 10.6427 2.55384 10.3983 2.55384 10.1548C2.55384 7.99299 6.05987 4.19128 7.99766 2.33718C8.40058 2.72476 8.97068 3.28964 9.58998 3.9552L10.8976 2.82364C9.66348 1.49749 8.64188 0.576799 8.59906 0.53828L8.00013 0L7.40121 0.53828C7.33492 0.597846 5.76072 2.01751 4.16202 3.8728C1.92919 6.46432 0.796818 8.57793 0.796818 10.1548C0.796818 10.4785 0.820907 10.8041 0.86826 11.1224L2.60738 10.8814ZM12.3466 7.40349C13.2556 8.82454 13.4464 9.68388 13.4464 10.1548C13.4464 12.995 11.0032 15.3055 8.00013 15.3055C7.04235 15.3055 6.10063 15.0673 5.27709 14.6168L4.4099 16.0904C5.49718 16.6855 6.73867 17 7.99993 17C11.9719 17 15.2032 13.9294 15.2032 10.1548C15.2032 9.13706 14.7579 7.94593 13.8417 6.51396L12.3466 7.40349ZM0 15.0453L14.7577 0.813019L16 2.01103L1.24223 16.2433L0 15.0453Z" fill="#0975E5"/>
</svg>
