<?xml version="1.0" standalone="no"?><!DOCTYPE svg PUBLIC "-//W3C//DTD SVG 1.1//EN" "http://www.w3.org/Graphics/SVG/1.1/DTD/svg11.dtd"><svg class="icon" width="200px" height="200.00px" viewBox="0 0 1024 1024" version="1.1" xmlns="http://www.w3.org/2000/svg"><path d="M914.922667 143.850667a64 64 0 0 1-45.269334 78.378666L277.333333 380.949333V896a21.333333 21.333333 0 0 1-21.333333 21.333333H85.333333a21.333333 21.333333 0 0 1-21.333333-21.333333V298.666667a106.666667 106.666667 0 0 1 202.304-47.274667l570.24-152.789333a64 64 0 0 1 78.378667 45.248zM777.941333 426.666667c36.501333 0 69.504 22.186667 83.968 56.490666l54.954667 130.432h20.266667c12.629333 0 22.869333 10.453333 22.869333 23.36v23.36c0 12.906667-10.24 23.381333-22.848 23.381334v140.181333c0 17.28-9.173333 32.384-22.826667 40.469333l-0.042666 29.632c0 12.906667-10.24 23.36-22.848 23.36h-45.717334c-12.629333 0-22.869333-10.453333-22.869333-23.36V870.613333H457.173333v23.36c0 12.906667-10.24 23.36-22.869333 23.36h-45.717333c-12.608 0-22.848-10.453333-22.848-23.36v-29.632a46.912 46.912 0 0 1-22.869334-40.469333v-133.269333l0.170667-6.912c-12.8 0-23.018667-10.453333-23.018667-23.381334v-23.36c0-12.906667 10.24-23.36 22.848-23.36h20.266667l54.976-130.432C432.554667 448.853333 465.557333 426.666667 502.058667 426.666667h275.882666zM457.152 695.36c-25.258667 0-45.717333 20.906667-45.717333 46.72s20.48 46.741333 45.717333 46.741333c25.237333 0 45.696-20.906667 45.696-46.72s-20.458667-46.72-45.696-46.72z m365.696 0c-25.237333 0-45.696 20.906667-45.696 46.72s20.458667 46.741333 45.696 46.741333c25.258667 0 45.717333-20.906667 45.717333-46.72s-20.48-46.72-45.717333-46.72zM768.746667 473.386667H511.232c-16.768 0-32.064 9.365333-40.064 24.213333l-1.578667 3.264-43.541333 98.282667a23.808 23.808 0 0 0-2.048 9.642666c0 11.989333 8.832 21.866667 20.202667 23.210667l2.666666 0.149333h386.261334c3.242667 0 6.464-0.704 9.429333-2.069333 10.666667-4.949333 15.829333-17.237333 12.352-28.373333l-0.96-2.56-43.562667-98.304a45.76 45.76 0 0 0-38.08-27.306667l-3.562666-0.149333zM170.666667 298.666667a42.666667 42.666667 0 1 0 0 85.333333 42.666667 42.666667 0 0 0 0-85.333333z" fill="#222529" /></svg>