<?xml version="1.0" standalone="no"?><!DOCTYPE svg PUBLIC "-//W3C//DTD SVG 1.1//EN" "http://www.w3.org/Graphics/SVG/1.1/DTD/svg11.dtd"><svg class="icon" width="200px" height="200.00px" viewBox="0 0 1024 1024" version="1.1" xmlns="http://www.w3.org/2000/svg"><path d="M640 298.666667a42.666667 42.666667 0 0 1 42.666667 42.666666v341.333334a42.666667 42.666667 0 0 1-42.666667 42.666666h-74.666667a42.666667 42.666667 0 0 1-42.666666-42.666666V341.333333a42.666667 42.666667 0 0 1 42.666666-42.666666H640z m-138.666667 384a42.666667 42.666667 0 0 1-42.666666 42.666666H384a42.666667 42.666667 0 0 1-42.666667-42.666666V341.333333a42.666667 42.666667 0 0 1 42.666667-42.666666h74.666667a42.666667 42.666667 0 0 1 42.666666 42.666666v341.333334zM213.333333 192a21.333333 21.333333 0 0 1 21.333334-21.333333h42.666666a21.333333 21.333333 0 0 1 21.333334 21.333333v640a21.333333 21.333333 0 0 1-21.333334 21.333333h-42.666666a21.333333 21.333333 0 0 1-21.333334-21.333333v-640z m512 0a21.333333 21.333333 0 0 1 21.333334-21.333333h42.666666a21.333333 21.333333 0 0 1 21.333334 21.333333v640a21.333333 21.333333 0 0 1-21.333334 21.333333h-42.666666a21.333333 21.333333 0 0 1-21.333334-21.333333v-640z m-238.933333-23.466667a42.666667 42.666667 0 0 1 51.2 0l52.906667 39.68a17.066667 17.066667 0 0 1-20.48 27.306667l-34.730667-26.026667a38.826667 38.826667 0 0 0-46.549333 0l-34.773334 26.026667a17.066667 17.066667 0 1 1-20.48-27.306667l52.906667-39.68z m17.066667 61.866667a14.208 14.208 0 1 1 17.066666 22.741333 14.208 14.208 0 0 1-17.066666-22.741333z m66.56 558.08a17.066667 17.066667 0 1 1 20.48 27.306667l-52.906667 39.68a42.666667 42.666667 0 0 1-51.2 0l-52.906667-39.68a17.066667 17.066667 0 0 1 20.48-27.306667l34.730667 26.026667a38.826667 38.826667 0 0 0 46.549333 0l34.773334-26.026667zM512 773.333333a14.208 14.208 0 1 1 0 28.458667 14.208 14.208 0 0 1 0-28.458667z" /></svg>