<?xml version="1.0" standalone="no"?><!DOCTYPE svg PUBLIC "-//W3C//DTD SVG 1.1//EN" "http://www.w3.org/Graphics/SVG/1.1/DTD/svg11.dtd"><svg class="icon" width="200px" height="200.00px" viewBox="0 0 1024 1024" version="1.1" xmlns="http://www.w3.org/2000/svg"><path d="M949.333333 170.666667c-17.066667 0-32 14.933333-32 32v10.666666H512c-164.266667 0-298.666667 134.4-298.666667 298.666667 0 38.4 6.4 72.533333 19.2 106.666667H106.666667v-10.666667c0-17.066667-14.933333-32-32-32S42.666667 590.933333 42.666667 608v213.333333c0 17.066667 14.933333 32 32 32S106.666667 838.4 106.666667 821.333333V810.666667h405.333333c164.266667 0 298.666667-134.4 298.666667-298.666667 0-38.4-6.4-72.533333-19.2-106.666667H917.333333v10.666667c0 17.066667 14.933333 32 32 32s32-14.933333 32-32v-213.333333c0-17.066667-14.933333-32-32-32zM512 682.666667c-93.866667 0-170.666667-76.8-170.666667-170.666667s76.8-170.666667 170.666667-170.666667 170.666667 76.8 170.666667 170.666667-76.8 170.666667-170.666667 170.666667zM503.466667 413.866667c-19.2 38.4-55.466667 117.333333-55.466667 140.8 0 36.266667 27.733333 64 64 64s64-27.733333 64-64c0-23.466667-36.266667-102.4-55.466667-140.8-4.266667-6.4-12.8-6.4-17.066666 0z" /></svg>