<?xml version="1.0" standalone="no"?><!DOCTYPE svg PUBLIC "-//W3C//DTD SVG 1.1//EN" "http://www.w3.org/Graphics/SVG/1.1/DTD/svg11.dtd"><svg class="icon" width="200px" height="200.00px" viewBox="0 0 1024 1024" version="1.1" xmlns="http://www.w3.org/2000/svg"><path d="M827.1 928.3H217.3c-57.2 0-103.6-46.5-103.6-103.7V214.9c0-57.2 46.5-103.7 103.6-103.7h609.8c57.2 0 103.7 46.5 103.7 103.7v609.8c0 57.1-46.5 103.6-103.7 103.6zM217.3 176c-21.4 0-38.8 17.4-38.8 38.9v609.8c0 21.4 17.4 38.8 38.8 38.8h609.8c21.4 0 38.9-17.4 38.9-38.8V214.9c0-21.4-17.4-38.9-38.9-38.9H217.3z" fill="#666666" /><path d="M828 123.5v216.8c0 17.9-14.5 32.4-32.4 32.4H248.8c-17.9 0-32.4-14.5-32.4-32.4V145.5c0-17.9 14.5-32.4 32.4-32.4s32.4 14.5 32.4 32.4v162.4h482V123.5" fill="#666666" /><path d="M375.6 339.8c-17.9 0-32.4-18.5-32.4-41.4V186.2c0-22.8 14.5-41.4 32.4-41.4s32.4 18.5 32.4 41.4v112.2c0 22.9-14.5 41.4-32.4 41.4zM668.9 337.1c-17.9 0-32.4-18.5-32.4-41.4V188.9c0-22.8 14.5-41.4 32.4-41.4s32.4 18.5 32.4 41.4v106.8c0 22.9-14.5 41.4-32.4 41.4zM522.2 337.1c-17.9 0-32.4-18.5-32.4-41.4V188.9c0-22.8 14.5-41.4 32.4-41.4s32.4 18.5 32.4 41.4v106.8c0 22.9-14.5 41.4-32.4 41.4z" fill="#666666" /><path d="M522.2 823.5c-86 0-155.9-70.3-155.9-156.6 0-77.6 110.3-197.7 132.4-221 12.3-12.9 34.7-12.9 47 0 22.1 23.3 132.4 143.4 132.4 221 0 86.4-69.9 156.6-155.9 156.6z m0-306.9c-43.5 50.5-91.1 118-91.1 150.3 0 50.6 40.9 91.8 91.1 91.8s91.1-41.2 91.1-91.8c0-32.4-47.6-99.9-91.1-150.3z" fill="#666666" /></svg>