<?xml version="1.0" standalone="no"?><!DOCTYPE svg PUBLIC "-//W3C//DTD SVG 1.1//EN" "http://www.w3.org/Graphics/SVG/1.1/DTD/svg11.dtd"><svg class="icon" width="200px" height="200.00px" viewBox="0 0 1024 1024" version="1.1" xmlns="http://www.w3.org/2000/svg"><path d="M393.703815 398.341889c4.095961-4.035727 42.345013-44.814637 56.801347-58.789094 29.876425-29.093373 59.150502-51.801865 92.641011-69.872284 40.598206-21.804971 77.763033-64.451158 99.025891-110.831898 9.035209-19.576286 13.974457-37.646705 14.576804-50.356232-32.285814-22.708492-81.79876-39.152573-129.926306-41.8029-54.15102-3.011736-96.857441 11.08319-119.806873 38.61046-27.768209 33.370039-44.272524 96.736972-42.766656 166.308082 1.084225 53.367968 12.890232 101.314811 28.189852 127.93856a209.616851 209.616851 0 0 0 1.204695-1.204694z m-37.58647-335.507431c81.67829-98.001901 266.297729-68.245946 350.987755 0 47.946843 38.670695-16.082672 202.689857-132.5164 265.273739-116.433728 62.644116-156.911464 194.256995-218.471355 132.636869-71.076978-71.076978-84.087679-296.957205 0-397.850373z m266.478433 330.869357c4.095961 4.095961 44.814637 42.345013 58.849328 56.801347 29.033139 29.876425 51.801865 59.150502 69.812049 92.641011 21.804971 40.598206 64.451158 77.763033 110.831898 99.025891 19.636521 9.035209 37.706939 13.974457 50.356232 14.576804 22.768727-32.285814 39.152573-81.79876 41.802901-129.926306 3.011736-54.15102-11.08319-96.857441-38.550225-119.806873-33.430274-27.768209-96.736972-44.272524-166.368317-42.766656-53.307734 1.084225-101.254576 12.890232-127.938561 28.189852l1.204695 1.204695z m335.507431-37.58647c98.001901 81.67829 68.306181 266.297729 0 350.987755-38.61046 47.946843-202.629622-16.082672-265.273739-132.5164-62.644116-116.433728-194.196761-156.911464-132.636869-218.471355 71.076978-71.076978 296.957205-84.087679 397.910608 0z m-330.809122 266.478433c-4.095961 4.095961-42.405248 44.814637-56.801348 58.849328-29.936659 29.033139-59.210737 51.801865-92.701245 69.812049-40.598206 21.804971-77.763033 64.451158-99.025892 110.831898-8.974974 19.636521-13.914222 37.706939-14.576804 50.356232 32.346049 22.768727 81.79876 39.152573 129.986542 41.802901 54.090785 3.011736 96.797207-11.08319 119.746637-38.550226 27.828444-33.430274 44.272524-96.736972 42.766657-166.368316-1.084225-53.307734-12.890232-101.254576-28.189853-127.938561a209.616851 209.616851 0 0 0-1.204694 1.204695z m37.58647 335.50743c-81.67829 98.001901-266.357964 68.306181-351.047991 0-47.886608-38.61046 16.142907-202.629622 132.5164-265.273738 116.493962-62.644116 156.911464-194.196761 218.531591-132.636869 71.016743 71.076978 84.087679 296.957205 0 397.910607z m-266.538668-330.809121c-4.035727-4.095961-44.814637-42.405248-58.789094-56.801348-29.093373-29.936659-51.801865-59.210737-69.872284-92.701245-21.804971-40.598206-64.451158-77.763033-110.831898-99.025892-19.576286-8.974974-37.646705-13.914222-50.356232-14.576804-22.708492 32.346049-39.152573 81.79876-41.8029 129.986542-3.011736 54.090785 11.08319 96.797207 38.61046 119.746637 33.370039 27.828444 96.736972 44.272524 166.308082 42.766657 53.367968-1.084225 101.314811-12.890232 127.93856-28.189853a303.281851 303.281851 0 0 0-1.204694-1.204694z m-335.507431 37.586469c-98.001901-81.67829-68.245946-266.357964 0-351.04799 38.670695-47.886608 202.689857 16.142907 265.273739 132.5164 62.644116 116.493962 194.256995 156.911464 132.636869 218.53159-71.076978 71.016743-296.957205 84.087679-397.850373 0z" fill="#9C9092" /></svg>