<?xml version="1.0" standalone="no"?><!DOCTYPE svg PUBLIC "-//W3C//DTD SVG 1.1//EN" "http://www.w3.org/Graphics/SVG/1.1/DTD/svg11.dtd"><svg class="icon" width="200px" height="200.00px" viewBox="0 0 1024 1024" version="1.1" xmlns="http://www.w3.org/2000/svg"><path d="M543.744 273.7152v315.3408c60.1088 25.2416 98.3552 79.1552 98.0992 138.2912 0 81.1008-73.9328 146.8416-165.12 146.8416-91.136 0-165.0688-65.7408-165.0688-146.8416-0.512-59.3408 37.7856-113.5104 98.0992-138.8544V273.7152c1.9456-14.0288 10.0864-26.8288 22.6816-35.5328 12.5952-8.704 28.5184-12.544 44.288-10.752 15.8208-1.792 31.744 2.048 44.3392 10.752 12.544 8.704 20.736 21.504 22.6816 35.5328z m154.88-109.568v347.2384c131.584 116.7872 134.5536 305.664 6.6048 425.5744-59.6992 55.6032-142.336 87.04-228.7616 87.04-86.4256 0-169.1136-31.4368-228.8128-87.04-127.9488-119.9616-125.0304-308.7872 6.6048-425.5744V164.1472c1.28-47.4112 27.136-91.5968 69.9904-119.7056C414.976-14.848 538.4704-14.848 629.248 44.4416c42.6496 28.2112 68.2496 72.3968 69.376 119.7056zM305.664 881.4592c45.0048 40.96 106.7008 64 171.0592 64 63.7952-0.8192 124.5184-24.2688 168.8064-65.1264 44.2368-40.8576 68.3008-95.744 66.8672-152.4224 0.3584-64.3072-30.8736-125.4912-85.504-167.5776l-15.5648-12.288V164.1984c0-45.7728-59.8016-84.5824-135.168-84.5824-75.3664 0-135.168 38.8096-135.168 84.5824v383.9488l-15.5648 12.2368c-55.552 41.6768-87.6544 102.912-87.9104 167.5776-1.4336 57.2416 23.0912 112.64 68.096 153.6z m527.7696-773.632h-1.024c20.992 0 37.9904 12.032 37.9904 26.9312 0 14.848-16.9984 26.9312-37.9904 26.9312h-89.3952c-20.992 0-38.0416-12.0832-38.0416-26.9312 0-14.8992 17.0496-26.9824 38.0416-26.9824h90.4192z m0 107.776h-1.024c20.992 0 37.9904 12.032 37.9904 26.9312 0 14.848-16.9984 26.9312-37.9904 26.9312h-89.3952c-20.992 0-38.0416-12.0832-38.0416-26.9312 0-14.848 17.0496-26.9312 38.0416-26.9312h90.4192z m0 107.776h-1.024c20.992 0 37.9904 12.032 37.9904 26.9312 0 14.848-16.9984 26.9312-37.9904 26.9312h-89.3952c-20.992 0-38.0416-12.032-38.0416-26.9312 0-14.848 17.0496-26.9312 38.0416-26.9312h90.4192z m0 107.776h-1.024c20.992 0 37.9904 12.0832 37.9904 26.9312 0 14.8992-16.9984 26.9824-37.9904 26.9824h-89.3952c-20.992 0-38.0416-12.0832-38.0416-26.9824 0-14.848 17.0496-26.9312 38.0416-26.9312h90.4192z" fill="#666666" /></svg>