<svg width="17" height="18" viewBox="0 0 17 18" fill="none" xmlns="http://www.w3.org/2000/svg">
<g clip-path="url(#clip0_5785_24535)">
<path d="M8.61017 0.5L8.936 0.772C10.177 1.80758 12.1051 2.47483 14.6678 2.75392L15.1552 2.80633V10.1263C15.1552 12.5502 13.016 14.6624 8.79433 16.4063L8.56483 16.4998L8.341 16.3978C4.074 14.4372 2 12.3887 2 10.1263V2.74967H2.54825C4.39417 2.74967 6.31658 2.07392 8.25883 0.740833L8.61017 0.5ZM8.55208 1.82883C6.72033 3.01883 4.88858 3.67475 3.0965 3.78667V10.1263C3.0965 11.8787 4.94383 13.6339 8.58892 15.3424C12.2184 13.8039 14.0573 12.0501 14.0573 10.1263V3.74275C11.7169 3.43392 9.86675 2.79217 8.5535 1.82883H8.55208ZM11.4407 6.10717C11.5351 5.99841 11.6675 5.92989 11.8108 5.91567C11.9541 5.90145 12.0974 5.94259 12.2113 6.03067C12.4465 6.21483 12.4819 6.54633 12.2907 6.77158L8.90625 10.7666C8.80084 10.8886 8.67034 10.9865 8.52364 11.0535C8.37695 11.1205 8.21752 11.155 8.05625 11.1547C7.90223 11.1558 7.74967 11.1249 7.60823 11.0639C7.46678 11.003 7.33955 10.9133 7.23458 10.8006L5.14783 8.52967C5.08429 8.46158 5.04055 8.37743 5.02133 8.28631C5.0021 8.19518 5.00813 8.10054 5.03875 8.01258C5.07083 7.92368 5.12564 7.84472 5.19772 7.78358C5.2698 7.72243 5.35663 7.68124 5.44958 7.66408C5.54331 7.64535 5.64027 7.65087 5.73126 7.68013C5.82225 7.70939 5.90426 7.7614 5.9695 7.83125L8.05625 10.1022L11.4407 6.10717Z" fill="#0975E5" stroke="#0975E5" stroke-width="0.1"/>
</g>
<defs>
<clipPath id="clip0_5785_24535">
<rect width="17" height="17" fill="white" transform="translate(0 0.5)"/>
</clipPath>
</defs>
</svg>
