<?xml version="1.0" standalone="no"?><!DOCTYPE svg PUBLIC "-//W3C//DTD SVG 1.1//EN" "http://www.w3.org/Graphics/SVG/1.1/DTD/svg11.dtd"><svg class="icon" width="200px" height="200.00px" viewBox="0 0 1024 1024" version="1.1" xmlns="http://www.w3.org/2000/svg"><path d="M199.111111 711.111111c0 79.758222 57.002667 142.222222 142.222222 142.222222s142.222222-62.464 142.222223-142.222222c0-46.279111-15.530667-83.655111-42.638223-107.832889a42.666667 42.666667 0 0 1-14.250666-31.857778V256a85.333333 85.333333 0 1 0-170.666667 0v314.737778a42.666667 42.666667 0 0 1-14.592 32.142222C214.158222 626.688 199.111111 663.836444 199.111111 711.111111z m142.222222 227.555556c-134.712889 0-227.555556-103.082667-227.555555-227.555556 0-58.368 16.952889-115.456 56.888889-158.350222V256a170.666667 170.666667 0 1 1 341.333333 0v297.671111c38.968889 42.467556 56.888889 98.901333 56.888889 157.44 0 124.472889-92.842667 227.555556-227.555556 227.555556z m85.333334-256a85.333333 85.333333 0 1 1-128-73.927111V341.333333c0-15.701333 19.086222-28.444444 42.666666-28.444444s42.666667 12.743111 42.666667 28.444444v267.406223A85.304889 85.304889 0 0 1 426.666667 682.666667z m297.073777-191.573334a45.795556 45.795556 0 0 1 23.608889-6.656c11.264 0 19.512889 4.266667 22.954667 6.257778 4.096 2.360889 7.253333 4.977778 9.272889 6.769778 4.096 3.697778 7.68 7.822222 10.467555 11.264 5.774222 7.168 12.117333 16.440889 18.488889 26.481778 12.970667 20.394667 28.359111 47.587556 43.093334 76.458666a936.362667 936.362667 0 0 1 40.192 89.031111c10.268444 26.965333 19.712 57.344 19.712 81.720889a157.098667 157.098667 0 1 1-314.197334 0c0-23.296 7.879111-52.849778 16.867556-79.985777a983.153778 983.153778 0 0 1 34.986667-88.775112c12.913778-28.842667 26.453333-56.092444 38.058666-76.572444 5.688889-10.069333 11.463111-19.484444 16.867556-26.823111 2.56-3.527111 6.030222-7.907556 10.126222-11.804445 2.019556-1.962667 5.233778-4.778667 9.500444-7.367111z m-28.529777 238.193778c-8.846222 26.680889-12.544 44.8-12.544 53.134222a71.765333 71.765333 0 1 0 143.530666 0c0-7.224889-3.925333-24.576-14.136889-51.370666a852.024889 852.024889 0 0 0-36.437333-80.583111c-8.96-17.578667-18.033778-34.161778-26.368-48.469334a1008.753778 1008.753778 0 0 0-22.158222 46.478222 899.185778 899.185778 0 0 0-31.886222 80.810667z m75.264-8.647111a21.333333 21.333333 0 0 1 28.330666 10.382222c12.003556 25.884444 14.165333 52.536889-0.682666 75.804445a21.333333 21.333333 0 0 1-35.982223-22.926223c4.465778-6.997333 6.144-17.237333-2.048-34.929777a21.333333 21.333333 0 0 1 10.382223-28.330667z" /></svg>