<?xml version="1.0" standalone="no"?><!DOCTYPE svg PUBLIC "-//W3C//DTD SVG 1.1//EN" "http://www.w3.org/Graphics/SVG/1.1/DTD/svg11.dtd"><svg class="icon" width="200px" height="200.00px" viewBox="0 0 1024 1024" version="1.1" xmlns="http://www.w3.org/2000/svg"><path d="M600.16 472.864H419.632a10.512 10.512 0 0 1 0-21.04h180.512a10.512 10.512 0 1 1 0 21.04" fill="#36B3C8" /><path d="M619.76 527.456H399.984a31.648 31.648 0 0 1-31.648-31.632V223.808c0-17.472 14.192-31.632 31.648-31.632h148.8a10.544 10.544 0 1 1 0 21.056h-148.8a10.56 10.56 0 0 0-10.544 10.56V495.84a10.56 10.56 0 0 0 10.544 10.576h219.776a10.56 10.56 0 0 0 10.56-10.576v-83.952a10.56 10.56 0 1 1 21.072 0v83.952a31.632 31.632 0 0 1-31.632 31.632" fill="#36B3C8" /><path d="M485.584 420.288a10.928 10.928 0 0 1-7.552-3.104c-3.568-3.52-3.568-3.52-1.456-29.488l2.304-27.424c1.168-13.968 9.808-32.608 19.744-42.544l100.912-100.928c11.92-11.888 32.832-11.936 44.768 0l34.112 34.144a31.68 31.68 0 0 1 0 44.752l-100.928 100.928c-9.92 9.872-28.592 18.56-42.528 19.68l-27.408 2.32c-13.248 1.088-20.624 1.664-21.968 1.664m136.32-191.648a10.56 10.56 0 0 0-7.44 3.04l-100.96 100.96c-6.464 6.464-12.832 20.208-13.6 29.376l-2.288 27.408c-0.24 3.136-0.512 6.208-0.736 8.88 2.72-0.192 5.728-0.448 8.912-0.704l27.44-2.272c9.12-0.768 22.848-7.152 29.344-13.664l100.96-100.896a10.592 10.592 0 0 0 0-14.928l-34.176-34.16a10.464 10.464 0 0 0-7.44-3.04" fill="#36B3C8" /><path d="M950.864 819.2c18.72 0 37.44-8 51.712-24 14.288-16 21.424-36.96 21.424-57.92V81.92c0-20.96-7.136-41.92-21.424-57.92S969.568 0 950.864 0H73.12c-18.72 0-37.44 8-51.712 24C7.136 40 0 60.96 0 81.92v655.36c0 20.96 7.136 41.92 21.424 57.92s33.008 24 51.712 24H438.88v122.88h-128a17.28 17.28 0 0 0-12.944 6c-3.568 4-5.344 9.232-5.344 14.48v40.96c0 5.248 1.776 10.48 5.344 14.48 3.584 4 8.256 6 12.944 6H713.12c4.688 0 9.36-2 12.944-6 3.568-4 5.344-9.232 5.344-14.48v-40.96c0-5.248-1.776-10.48-5.344-14.48a17.28 17.28 0 0 0-12.944-6h-128V819.2H950.88z m-402.288-80.64c0 22.608-16.384 40.96-36.576 40.96s-36.576-18.336-36.576-40.96c0-22.624 16.384-40.96 36.576-40.96s36.576 18.336 36.576 40.96zM950.864 122.88v532.48H73.12V122.88c0-10.48 3.584-20.96 10.72-28.96 7.136-8 16.496-12 25.856-12h804.576c9.36 0 18.72 4 25.856 12 7.136 8 10.72 18.48 10.72 28.96z" fill="#36B3C8" /></svg>