<?xml version="1.0" standalone="no"?><!DOCTYPE svg PUBLIC "-//W3C//DTD SVG 1.1//EN" "http://www.w3.org/Graphics/SVG/1.1/DTD/svg11.dtd"><svg class="icon" width="200px" height="200.00px" viewBox="0 0 1024 1024" version="1.1" xmlns="http://www.w3.org/2000/svg"><path d="M587.707733 239.121067c-13.124267-70.843733-68.215467-136.448-162.679466-191.5392h-10.513067s-2.628267 0-2.628267 2.628266h-2.628266l-2.628267 2.628267-2.628267 2.628267v10.496s0 2.628267 2.628267 2.628266v2.628267c39.355733 65.604267 23.620267 141.687467-47.223467 228.283733-13.124267 15.735467-31.488 34.116267-52.48 57.719467-52.48 44.612267-99.703467 94.464-125.952 136.448-34.116267 49.851733-44.612267 107.5712-31.488 160.0512 15.735467 68.215467 70.843733 131.191467 162.679467 183.671467 2.628267 2.628267 5.239467 2.628267 7.867733 2.628266 2.628267 0 5.256533 0 7.867734-2.628266 2.628267-2.628267 5.239467-2.628267 5.239466-5.239467v-10.513067c0-2.628267 0-2.628267-2.628266-2.628266v-2.628267c-52.48-76.100267 0-162.679467 34.116266-204.663467l2.628267-2.628266c34.116267-44.612267 68.215467-78.711467 97.092267-110.199467 20.992-20.992 39.355733-39.355733 55.108266-60.347733 57.7536-70.8608 78.7456-136.448 68.2496-199.424zM899.9424 428.032c-13.124267-65.604267-62.976-125.952-149.5552-175.803733h-10.513067c-2.628267 0-2.628267 0-2.628266 2.628266h-2.628267l-2.628267 2.628267-2.628266 2.628267v10.496s0 2.628267 2.628266 2.628266v2.628267c36.727467 57.719467 20.992 125.952-41.984 204.663467-10.496 13.124267-28.859733 31.488-47.223466 52.48-39.355733 39.355733-83.968 86.596267-107.5712 125.952-28.859733 44.612267-39.355733 97.092267-28.859734 146.944 15.735467 62.976 65.604267 118.0672 149.5552 167.936 2.628267 2.628267 5.256533 2.628267 7.867734 2.628266 2.628267 0 5.239467 0 7.867733-2.628266 2.628267-2.628267 5.256533-2.628267 5.256533-5.239467v-10.513067s0-2.628267-2.628266-2.628266v-2.628267c-44.612267-68.215467 0-144.315733 31.488-183.671467l2.628266-2.628266c31.488-41.984 60.347733-73.472 89.207467-99.703467 18.363733-18.363733 36.727467-36.727467 49.851733-52.48 44.629333-70.8608 62.993067-128.580267 52.497067-186.3168z" /></svg>