<?xml version="1.0" standalone="no"?><!DOCTYPE svg PUBLIC "-//W3C//DTD SVG 1.1//EN" "http://www.w3.org/Graphics/SVG/1.1/DTD/svg11.dtd"><svg class="icon" width="200px" height="200.00px" viewBox="0 0 1024 1024" version="1.1" xmlns="http://www.w3.org/2000/svg"><path d="M784.896 633.856m-27.136 0a27.136 27.136 0 1 0 54.272 0 27.136 27.136 0 1 0-54.272 0ZM732.672 796.672m-13.824 0a13.824 13.824 0 1 0 27.648 0 13.824 13.824 0 1 0-27.648 0ZM785.408 796.672m-13.824 0a13.824 13.824 0 1 0 27.648 0 13.824 13.824 0 1 0-27.648 0ZM838.144 813.056c-8.704 0-16.384-7.168-16.384-16.384s7.168-16.384 16.384-16.384 16.384 7.168 16.384 16.384-7.168 16.384-16.384 16.384z m0-27.648c-6.144 0-11.264 5.12-11.264 11.264s5.12 11.264 11.264 11.264 11.264-5.12 11.264-11.264-5.12-11.264-11.264-11.264zM851.968 845.312h-134.144c-11.776 0-21.504-9.728-21.504-21.504v-247.296c0-11.776 9.728-21.504 21.504-21.504h134.144c11.776 0 21.504 9.728 21.504 21.504v247.296c-0.512 12.288-9.728 21.504-21.504 21.504z m-134.144-285.184c-9.216 0-16.384 7.168-16.384 16.384v247.296c0 8.704 7.68 16.384 16.384 16.384h134.144c8.704 0 15.872-7.168 16.384-16.384v-247.296c0-8.704-7.68-16.384-16.384-16.384h-134.144zM715.1104 888.0384l8.38656-5.87776 34.68288 49.46944-8.38144 5.87776zM769.92512 888.04864l8.38656-5.87776 34.67776 49.47456-8.38656 5.87776zM824.5248 888.07936l8.3456-5.9392 35.32288 49.65376-8.3456 5.9392zM950.784 867.328H73.216c-13.824 0-24.576-11.264-24.576-24.576v-285.184c0-13.824 11.264-24.576 24.576-24.576h877.056c13.824 0 24.576 11.264 24.576 24.576v285.184c0.512 13.824-10.752 24.576-24.064 24.576zM73.216 538.112c-10.752 0-19.456 8.704-19.456 19.456v285.184c0 10.752 8.704 19.456 19.456 19.456h877.056c10.752 0 19.456-8.704 19.456-19.456v-285.184c0-10.752-8.704-19.456-19.456-19.456H73.216zM962.56 496.128h-196.608V486.4h19.456v-42.496c69.632-12.8 122.88-74.24 122.88-147.968 0-82.944-67.072-150.528-150.528-150.528-82.944 0-150.528 67.584-150.528 150.528 0 73.728 53.248 134.656 122.88 147.968V486.4h19.968v9.728H274.944V486.4h18.432v-42.496c70.656-12.288 124.416-74.24 124.416-147.968 0-82.944-67.072-150.528-150.528-150.528-82.944 0-150.528 67.584-150.528 150.528C116.736 369.152 168.96 430.08 238.08 443.392V486.4h20.992v9.728H61.44c-33.792 0-61.44 27.648-61.44 61.44v349.696c0 33.792 27.648 61.44 61.44 61.44h901.12c33.792 0 61.44-27.648 61.44-61.44v-349.696c0-33.792-27.648-61.44-61.44-61.44z m-345.088-200.192c0-77.312 62.976-140.288 140.288-140.288 77.312 0 140.288 62.976 140.288 140.288 0 77.312-62.976 140.288-140.288 140.288-77.312 0-140.288-62.976-140.288-140.288z m-489.984 0c0-77.312 62.464-140.288 139.776-140.288 77.312 0 140.288 62.976 140.288 140.288 0 77.312-62.976 140.288-140.288 140.288-77.312 0-139.776-62.976-139.776-140.288zM1008.64 907.264c0 25.6-20.48 46.08-46.08 46.08H61.44c-25.6 0-46.08-20.48-46.08-46.08v-349.696c0-25.6 20.48-46.08 46.08-46.08h901.12c25.6 0 46.08 20.48 46.08 46.08v349.696zM888.832 295.936c0-72.192-58.368-130.56-130.56-130.56s-130.56 58.88-130.56 130.56c0 72.192 58.88 130.56 130.56 130.56s130.56-58.368 130.56-130.56zM801.28 409.6l-30.72-84.48c3.072-1.536 5.632-3.072 7.68-5.12L836.608 389.12c-10.24 8.704-22.528 15.872-35.328 20.48z m36.864-22.016l-57.856-69.12c2.048-2.048 4.096-4.608 5.632-7.168l78.336 45.056c-7.168 11.264-15.872 22.016-26.112 31.232z m27.136-33.792l-78.336-45.056c1.024-2.56 2.048-5.632 2.56-8.704l89.088 15.872c-2.56 13.312-7.168 26.112-13.312 37.888z m14.336-57.856c0 5.632-0.512 11.776-1.024 17.408l-89.088-15.872v-1.536c0-2.56-0.512-4.608-1.024-6.656l89.088-15.872c1.536 7.168 2.048 14.848 2.048 22.528z m-2.56-25.088L787.968 286.72c-1.024-2.56-2.048-5.12-3.584-7.68l78.336-45.056c6.656 11.264 11.776 23.552 14.336 36.864z m-15.36-38.912L783.36 276.992c-1.536-2.048-3.584-4.096-5.632-5.632l57.856-69.12c10.24 8.192 18.944 18.432 26.112 29.696z m-27.648-31.232l-57.856 69.12c-2.048-1.536-4.608-2.56-6.656-3.584l30.72-84.48c11.776 4.096 23.552 10.752 33.792 18.944zM758.784 174.08c13.312 0 26.112 2.56 38.4 6.656l-30.72 84.48c-2.56-0.512-5.12-1.024-7.68-1.024V174.08z m0 153.6c3.072 0 6.144-0.512 9.216-1.536l30.72 84.48c-12.8 4.608-26.112 7.168-39.936 7.168V327.68z m-43.008-145.92l30.72 84.48c-2.56 1.024-4.608 2.048-6.656 3.584l-57.856-68.608c10.24-8.192 21.504-14.848 33.792-19.456z m-35.84 20.992L737.792 271.36c-2.048 1.536-4.096 3.584-5.632 5.632l-77.824-45.056c7.168-10.752 15.872-20.992 25.6-29.184z m-26.624 31.744l77.312 44.544c-1.536 2.56-2.56 4.608-3.584 7.68l-88.064-15.36c3.072-13.312 7.68-25.6 14.336-36.864z m-16.896 61.44c0-7.68 0.512-15.36 2.048-22.528l88.064 15.36c-0.512 2.048-1.024 4.608-1.024 6.656v1.536l-87.552 15.36 0.512 2.56 87.552-15.36c0.512 3.072 1.024 5.632 2.56 8.704l-76.288 44.032 1.024 2.048 76.288-44.032c1.536 2.56 3.072 5.12 5.632 7.168l-57.856 68.608c-25.088-21.504-40.96-53.76-40.96-90.112z m43.008 92.672L737.28 320c2.56 2.048 5.12 3.584 7.68 5.12l-30.72 84.48c-12.8-5.12-24.576-12.288-34.816-20.992z m77.312 29.184c-13.824 0-27.648-2.56-39.936-7.168l30.72-84.48c3.072 1.024 6.144 1.536 9.216 1.536v90.112z m0-153.6c-2.56 0-5.12 0.512-7.68 1.024l-30.72-84.48c11.776-4.096 25.088-6.656 38.4-6.656v90.112zM397.824 295.936c0-72.192-58.368-130.56-130.56-130.56S136.704 224.256 136.704 295.936c0 72.192 58.88 130.56 130.56 130.56 72.192 0 130.56-58.368 130.56-130.56zM308.224 410.624l-30.72-84.992c2.56-1.024 4.608-2.048 6.656-3.584l58.368 69.632c-10.24 7.68-21.504 14.336-34.304 18.944z m36.352-20.48L286.208 320.512c2.048-1.536 4.096-3.584 5.632-5.632l78.848 45.568c-7.168 11.264-15.872 20.992-26.112 29.696z m27.136-31.744l-78.848-45.568c1.536-2.048 2.56-4.608 3.584-7.168l89.6 15.872c-2.56 12.8-7.168 25.088-14.336 36.864zM389.12 295.936c0 7.68-1.024 15.36-2.048 23.04L296.96 303.104c0.512-2.048 1.024-4.608 1.024-7.168v-1.536l90.112-15.872c0.512 5.632 1.024 11.776 1.024 17.408z m-1.536-19.456l-89.6 15.872c-0.512-3.072-1.024-5.632-2.048-8.192l78.848-45.568c6.144 11.264 10.24 24.064 12.8 37.888z m-14.336-40.448L294.4 281.6c-1.536-2.56-3.072-5.12-5.12-7.168L347.648 204.8c10.24 8.704 18.944 19.456 25.6 31.232z m-27.136-32.768L287.744 272.384c-2.048-2.048-4.608-3.584-7.68-5.12l30.72-84.992c13.312 5.12 25.088 12.288 35.328 20.992zM268.8 174.08c13.824 0 27.648 2.56 39.936 7.168l-30.72 84.992c-3.072-1.024-5.632-2.048-9.216-2.048V174.08z m-1.536 153.6c2.56 0 5.12-0.512 7.68-1.024l30.72 84.992c-12.288 4.096-25.088 6.144-38.4 6.144V327.68z m-43.52-145.408l30.72 84.48c-3.072 1.024-5.632 2.56-8.192 4.608L189.44 202.752c10.24-8.704 22.016-15.872 34.304-20.48z m-36.352 22.016l57.344 68.096c-2.048 2.048-4.096 4.608-5.632 7.168l-76.8-44.544c6.144-11.264 14.848-22.016 25.088-30.72z m-26.624 33.28l76.8 44.544c-1.536 2.56-2.048 5.632-2.56 8.704l-87.04-15.36c2.048-13.824 6.656-26.112 12.8-37.888z m-14.848 58.368c0-6.144 0.512-12.288 1.536-18.432l87.552 15.36v-0.512 3.584c0 2.048 0 4.096 0.512 6.144l-87.04 15.36c-2.048-7.168-2.56-14.336-2.56-21.504z m2.56 23.552l87.552-15.36c0.512 2.56 2.048 5.632 3.584 7.68l-76.8 44.544c-7.168-11.264-11.776-23.552-14.336-36.864z m14.848 39.424l76.8-44.544c1.536 2.048 3.584 4.096 5.632 6.144L188.416 388.608c-9.728-8.704-18.432-18.432-25.088-29.696z m27.136 31.232l57.344-68.608c2.048 1.536 4.608 2.56 7.168 3.584l-30.72 84.48c-12.288-4.608-23.552-11.264-33.792-19.456z m74.752 27.648c-13.312 0-26.624-2.56-38.4-7.168l30.72-84.48c2.56 0.512 5.12 1.024 7.68 1.024v90.624z m1.024-153.6c-3.072 0-6.144 0.512-9.216 1.536l-30.72-84.48c12.288-4.608 26.112-7.168 39.936-7.168v90.112zM533.504 799.232H158.208v-223.744h375.296v223.744z m-370.176-5.12h365.056v-213.504H163.328v213.504z" /></svg>