<?xml version="1.0" standalone="no"?><!DOCTYPE svg PUBLIC "-//W3C//DTD SVG 1.1//EN" "http://www.w3.org/Graphics/SVG/1.1/DTD/svg11.dtd"><svg class="icon" width="200px" height="200.00px" viewBox="0 0 1024 1024" version="1.1" xmlns="http://www.w3.org/2000/svg"><path d="M922.43 659.6V180.05c0-14.73-11.94-26.67-26.67-26.67H634.53c-31.84-43.61-83.31-72.01-141.32-72.01s-109.48 28.4-141.32 72.01H90.67c-14.73 0-26.67 11.94-26.67 26.67v533.19c0 14.73 11.94 26.67 26.67 26.67h28V874c0 14.73 11.94 26.67 26.67 26.67h109.33c8.09 0 15.74-3.68 20.81-9.99l120.06-149.79c0.25-0.31 0.4-0.66 0.64-0.98h216.24c-1.45 9.06-2.24 18.35-2.24 27.81 0 96.45 78.47 174.91 174.92 174.91S960 864.17 960 767.72c0-40.8-14.08-78.34-37.57-108.12z m-53.34-201.8H717.41V206.71H869.1V457.8zM493.21 134.7c67.04 0 121.58 54.54 121.58 121.58 0 67.04-54.54 121.58-121.58 121.58-67.04 0-121.58-54.54-121.58-121.58 0.01-67.04 54.55-121.58 121.58-121.58zM319.65 277.61c4.5 36.83 20.45 70.18 44.23 96.3H199.35v-96.3h120.3z m5.85-70.9c-2.7 9.12-4.67 18.56-5.85 28.23H178.02c-11.78 0-21.33 9.55-21.33 21.33v138.97c0 11.78 9.55 21.33 21.33 21.33h245.31c21.42 9.38 45.05 14.61 69.89 14.61 96.45 0 174.92-78.47 174.92-174.92 0-17.22-2.54-33.84-7.2-49.57h13.81V457.8H117.33V206.71H325.5z m-83.64 640.62H172V739.91h155.97l-86.11 107.42zM117.33 686.57V511.14h751.76v103.21c-24.95-13.72-53.58-21.55-84.01-21.55-67.17 0-125.59 38.08-154.88 93.77H117.33zM785.09 889.3c-67.04 0-121.58-54.54-121.58-121.58 0-67.04 54.54-121.58 121.58-121.58 67.04 0 121.58 54.54 121.58 121.58 0 67.04-54.55 121.58-121.58 121.58zM785.09 668.83c-54.52 0-98.88 44.36-98.88 98.89 0 54.52 44.36 98.88 98.88 98.88 54.52 0 98.88-44.36 98.88-98.88 0-54.53-44.36-98.89-98.88-98.89z m0 144.44c-25.11 0-45.55-20.43-45.55-45.55 0-25.12 20.43-45.55 45.55-45.55 25.11 0 45.55 20.43 45.55 45.55 0 25.11-20.44 45.55-45.55 45.55zM515.11 550.84H184.64c-11.78 0-21.33 9.55-21.33 21.33s9.55 21.33 21.33 21.33h330.47c11.78 0 21.33-9.55 21.33-21.33s-9.55-21.33-21.33-21.33zM515.11 612.59H184.64c-11.78 0-21.33 9.55-21.33 21.33s9.55 21.33 21.33 21.33h330.47c11.78 0 21.33-9.55 21.33-21.33s-9.55-21.33-21.33-21.33zM795.03 251.44m-26.67 0a26.67 26.67 0 1 0 53.34 0 26.67 26.67 0 1 0-53.34 0ZM795.03 332.26m-26.67 0a26.67 26.67 0 1 0 53.34 0 26.67 26.67 0 1 0-53.34 0ZM795.03 413.07m-26.67 0a26.67 26.67 0 1 0 53.34 0 26.67 26.67 0 1 0-53.34 0ZM456.31 274.12h33.72l-29.57 43.9c-6.58 9.77-4 23.03 5.78 29.61 3.66 2.46 7.8 3.64 11.9 3.64 6.86 0 13.59-3.3 17.71-9.42l51.96-77.15c4.41-6.54 4.84-14.97 1.14-21.94s-10.95-11.31-18.83-11.31h-30.43l27.59-35.8c7.19-9.33 5.46-22.72-3.88-29.92-9.33-7.19-22.72-5.46-29.92 3.88l-54.07 70.15a21.34 21.34 0 0 0-2.25 22.44c3.6 7.3 11.02 11.92 19.15 11.92z" /></svg>