<?xml version="1.0" standalone="no"?><!DOCTYPE svg PUBLIC "-//W3C//DTD SVG 1.1//EN" "http://www.w3.org/Graphics/SVG/1.1/DTD/svg11.dtd"><svg class="icon" width="200px" height="200.00px" viewBox="0 0 1024 1024" version="1.1" xmlns="http://www.w3.org/2000/svg"><path d="M745.138371 843.116781q0 30.147203-21.605496 52.255152t-59.791953 22.107949l-295.442591 0q-43.210991 0-65.821394-24.117763t-22.610402-60.294406l0-638.1158q0-27.132483 18.088322-45.220805t52.255152-18.088322l326.594701 0q36.176644 0 52.255152 18.088322t16.078508 47.230618l0 646.155054zM429.597645 745.640824l0 50.245339 165.809617 0 0-50.245339-165.809617 0zM487.882237 215.050049l0 57.279686-58.284593 0 0 50.245339 58.284593 0 0 58.284593 49.240432 0 0-58.284593 58.284593 0 0-50.245339-58.284593 0 0-57.279686-49.240432 0zM513.004907 0q10.049068 1.004907 20.098135 1.004907 8.039254 0 18.088322 0.502453t19.093229 0.502453q18.088322 1.004907 23.615309 11.053974t5.526987 28.13739l0 33.161923 0 14.068695-174.853778 0 0-38.186457q0-8.039254 1.004907-20.600589t9.044161-19.595682q9.044161-8.039254 30.147203-8.541708t48.235525-1.50736z" /></svg>