<?xml version="1.0" standalone="no"?><!DOCTYPE svg PUBLIC "-//W3C//DTD SVG 1.1//EN" "http://www.w3.org/Graphics/SVG/1.1/DTD/svg11.dtd"><svg class="icon" width="200px" height="139.99px" viewBox="0 0 1463 1024" version="1.1" xmlns="http://www.w3.org/2000/svg"><path d="M628.40637838 767.38840793v-490.13828943H397.75337323v490.13828943h230.65300515zM455.41583954 219.58765218H397.75441986c-31.71550757 0-57.66351295 25.94800539-57.66351295 57.66351294v490.13724281c0 31.71446094 25.94800539 57.66246632 57.66351296 57.66246635h230.65300517c31.71446094 0 57.66246632-25.94800539 57.66246632-57.66246635v-490.13828943c0-31.71446094-25.94800539-57.66246632-57.66246632-57.66246632h-57.66455959c0-15.85723116-12.97295606-28.83227913-28.83018586-28.83228049h-57.66455958c-15.8561845 0-28.83123384 12.97504933-28.83123383 28.83228049z m28.83228047 28.8322791H628.40637838c15.85723116 0 28.83123384 12.97295606 28.83123387 28.83123384v490.13724281c0 15.85723116-12.9740027 28.83227913-28.83228049 28.8322805H397.75441986c-15.85723116 0-28.83227913-12.97504933-28.83227913-28.8322805v-490.13828943c0-15.85723116 12.97504933-28.83123384 28.83227914-28.83123384h86.49474677zM1063.62414662 767.38736131V277.2501185H832.97114145v490.13828943h230.65300517zM890.63465439 219.58765218H832.97009481c-31.71446094 0-57.66351295 25.94905203-57.66351296 57.66455958v490.13619617c0 31.71550757 25.94905203 57.66455959 57.6645596 57.6645596h230.65195854c31.71446094 0 57.66351295-25.94905203 57.66351294-57.6645596V277.2501185c0-31.71446094-25.94905203-57.66351295-57.66351296-57.66351296h-57.66351294c0-15.85723116-12.9740027-28.83123384-28.83123248-28.83123385h-57.66351296c-15.85723116 0-28.83227913 12.9740027-28.83228047 28.83228049z m28.83228047 28.8322791H1063.62309997c15.85723116 0 28.83227913 12.9740027 28.83228049 28.83228048v490.13619617c0 15.85723116-12.97504933 28.83227913-28.83228047 28.8322805H832.97114145c-15.85723116 0-28.83227913-12.97504933-28.83227912-28.8322805V277.2501185c0-15.85723116 12.97504933-28.83227913 28.83227912-28.83228048h86.49474679z" /></svg>