<?xml version="1.0" standalone="no"?><!DOCTYPE svg PUBLIC "-//W3C//DTD SVG 1.1//EN" "http://www.w3.org/Graphics/SVG/1.1/DTD/svg11.dtd"><svg class="icon" width="200px" height="200.00px" viewBox="0 0 1024 1024" version="1.1" xmlns="http://www.w3.org/2000/svg"><path d="M922.418791 144.311844c-12.793603-11.770115-29.169415-17.3993-45.545228-17.3993h-4.605697c-1.023488 0-11.770115 1.023488-28.145927 1.023488-28.145927 0-81.367316-2.046977-132.541729-14.328836-66.014993-15.352324-142.264868-88.01999-164.269865-102.348825C536.563718 4.605697 523.258371 0.511744 510.464768 0.511744s-25.075462 4.093953-36.845578 10.746627c-3.070465 2.046977-82.390805 83.926037-159.664168 102.348825-51.174413 12.793603-106.442779 14.328836-133.565217 14.328836-17.3993 0-28.145927-1.023488-29.169415-1.023488h-4.093953c-17.3993 0-32.751624 5.629185-45.545228 17.3993-13.817091 11.770115-21.493253 29.169415-21.493253 46.568716v160.687656c0 592.087956 401.207396 668.337831 417.583208 671.408296 4.093953 1.023488 7.676162 1.023488 11.770115 1.023488 4.093953 0 7.676162 0 11.770115-1.023488 17.3993-3.070465 420.653673-79.32034 420.653673-671.408296V190.88056c1.023488-17.911044-6.652674-35.310345-19.446276-46.568716z m-40.939531 206.744628c0 126.4008-19.446277 237.449275-57.827086 329.563218-30.192904 72.155922-72.155922 132.541729-124.353823 180.645677-91.602199 83.926037-185.763118 100.301849-186.786607 100.813594h-1.535232-0.511744-1.023489c-1.023488 0-93.649175-16.887556-184.227886-99.790105-52.709645-48.103948-94.16092-108.489755-124.353823-180.645678-38.38081-92.113943-58.338831-203.162419-58.33883-330.586706V190.368816l0.511744-0.511745 1.023488-1.023488c1.023488-0.511744 1.023488-1.023488 3.582209-1.023488h2.046976c4.605697 0.511744 15.352324 1.023488 30.704648 1.023488 30.704648 0 90.066967-2.046977 147.894053-16.375812 54.756622-12.793603 117.189405-51.174413 180.645677-110.536732 1.023488-0.511744 1.535232-0.511744 1.535233-0.511744 1.023488 0 2.558721 0.511744 3.582209 1.023489 3.070465 2.046977 11.258371 8.69965 17.911044 14.328835 37.869065 30.192904 101.325337 81.367316 165.293353 96.207896 57.827086 14.328836 116.677661 16.375812 146.870565 16.375812 14.84058 0 25.587206-0.511744 30.192904-1.023488h2.55872c1.535232 0 3.070465 0.511744 3.582209 1.023488 0.511744 0.511744 0.511744 1.023488 0.511744 1.535233v160.175912zM627.142429 401.207396c-3.582209 1.535232-7.164418 3.582209-9.723139 6.652674l-0.511744 0.511744c-12.281859-53.733133-44.521739-132.029985-134.076961-167.34033-7.676162-3.070465-15.864068-2.046977-23.028486 2.046977-6.652674 4.093953-11.258371 11.258371-12.281859 19.446277-3.070465 34.798601-20.981509 132.541729-64.991504 167.852074C330.330835 471.828086 277.621189 542.448776 286.832584 615.628186c8.187906 66.014993 63.456272 122.306847 163.246377 166.828586 11.258371 5.117441 24.051974 1.535232 31.216391-8.699651 7.164418-9.723138 6.14093-23.54023-2.046976-32.23988-0.511744-0.511744-46.056972-51.686157-37.869066-106.442778 3.070465-23.028486 15.352324-44.521739 36.333833-63.968016 7.164418 21.493253 23.028486 47.592204 54.244878 72.667666 42.474763 33.263368-3.070465 98.254873-5.117441 100.813593-6.14093 8.69965-6.652674 20.469765-0.511744 29.169415 4.605697 7.164418 12.793603 11.258371 20.981509 11.258371 2.046977 0 4.093953 0 6.140929-0.511744 5.629185-1.535232 139.706147-35.822089 174.504748-140.217891 22.516742-68.061969-2.046977-146.870565-73.691154-234.378811-5.117441-9.211394-16.887556-12.281859-27.122439-8.69965z m53.733133 225.679161c-13.305347 40.93953-50.662669 68.061969-83.414293 84.949525 9.211394-36.845577 5.117441-78.808596-33.263368-109.001499-45.545227-35.822089-41.451274-69.597201-40.93953-73.179411 3.070465-10.234883-1.023488-20.469765-9.211394-26.610694-8.187906-6.652674-19.958021-6.652674-29.169416-1.023488-55.78011 33.775112-86.996502 76.249875-94.160919 125.377311-3.070465 23.54023-0.511744 45.545227 5.117441 65.503248-34.798601-26.098951-54.244878-54.244878-58.338831-83.926037-6.652674-52.197901 37.357321-107.466267 76.76162-138.682658 48.615692-38.892554 70.108946-118.724638 78.808595-166.316842 77.273363 51.686157 78.808596 154.546727 78.808596 159.152424 0 10.234883 6.14093 19.958021 15.864068 23.54023 9.723138 4.093953 20.469765 1.535232 28.145927-5.629186l16.887556-16.887556c47.08046 63.456272 62.944528 118.212894 48.103948 162.734633z" /></svg>