<?xml version="1.0" standalone="no"?><!DOCTYPE svg PUBLIC "-//W3C//DTD SVG 1.1//EN" "http://www.w3.org/Graphics/SVG/1.1/DTD/svg11.dtd"><svg class="icon" width="200px" height="121.90px" viewBox="0 0 1680 1024" version="1.1" xmlns="http://www.w3.org/2000/svg"><path d="M371.636926 268.526249c0.06-35.06971 0.069999-70.14942 0.249998-105.22913 0-3.449971-1.089991-4.379964-4.409964-4.329964-12.699895 0.159999-25.39979-0.129999-38.099684 0.169999-4.319964 0.099999-5.539954-1.23999-5.259957-5.389956a81.679324 81.679324 0 0 0 0-15.479872c-0.769994-6.159949 1.949984-6.819944 7.189941-6.799943 53.15956 0.179999 106.319121 0 159.47868 0.219998a14.999876 14.999876 0 0 0 11.759903-4.999959Q563.135342 65.377929 623.904839 4.268435A12.869894 12.869894 0 0 1 633.944756 0.00847q106.219121 0.189998 212.428243 0c5.149957 0 6.699945 1.399988 6.259948 6.399947a78.159354 78.159354 0 0 0 0 14.829877c0.539996 5.319956-1.579987 6.239948-6.429946 6.229949-66.719448-0.159999-133.438896-0.06-200.158345-0.219998A14.249882 14.249882 0 0 0 634.884749 32.008205q-61.269493 61.999487-122.758985 123.738977a10.719911 10.719911 0 0 1-8.50993 3.349972c-18.939843-0.139999-37.879687 0-56.81953-0.109999-3.179974 0-5.079958 0.139999-4.999958 4.319964 0.219998 35.07971 0.209998 70.15942 0.269997 105.23913-2.239981 2.649978-5.379955 2.319981-8.309931 2.32998q-26.879778 0.149999-53.769555 0c-2.979975-0.01-6.119949 0.319997-8.349931-2.34998z" fill="#D02A1D" /><path d="M155.078717 360.425489c1.709986 1.119991 3.62997 1.14999 5.589954 1.13999l59.999504-0.109999a3.939967 3.939967 0 0 1 1.749985 2.739978 33.679721 33.679721 0 0 1 0.299998 6.579945c0.05 2.509979 0.06 4.999959 0 7.539938 0 1.429988 0.05 2.869976 0 4.299964 0.079999 2.519979 0.05 4.999959 0 7.549938s0.079999 5.059958 0 7.589937c0 1.819985 0.069999 3.63997 0 5.449955 0.089999 2.559979 0.06 5.119958 0 7.689936 0.109999 2.589979 0.079999 5.189957 0 7.789936 0.139999 2.649978 0.06 5.299956 0 7.999934 0.179999 4.639962 0.149999 9.279923 0 13.919885 0.149999 4.309964 0.139999 8.619929 0 12.929893 0.149999 5.499955 0.179999 10.999909 0 16.489863 0.089999 3.499971 0.149999 6.999942 0 10.489913 0.099999 3.849968 0.129999 7.689936 0 11.539905 0.079999 3.059975 0.119999 6.119949 0 9.179924 0.129999 2.699978 0.079999 5.409955 0 8.109933 0.209998 4.369964 0.129999 8.729928 0 13.099892-0.069999 9.079925-0.169999 9.189924-8.789928 9.189924h-57.389525a2.649978 2.649978 0 0 1-2.179982-0.939993c-2.489979-6.309948-0.999992-12.889893-1.269989-19.34984q-0.389997-16.599863 0-33.199725c-0.199998-12.659895-0.279998-25.309791 0-37.999686 0-2.729977-0.169999-5.459955 0-8.179932 0-2.259981-0.119999-4.519963 0-6.779944-0.079999-2.239981-0.06-4.479963 0-6.719944-0.139999-2.999975-0.079999-5.99995 0-8.999926-0.139999-3.819968-0.119999-7.639937 0-11.459905-0.119999-3.839968-0.129999-7.689936 0-11.529905-0.099999-3.829968-0.139999-7.659937 0-11.499905 0-3.439972-0.179999-6.889943 0.109999-10.329914a5.409955 5.409955 0 0 1 1.879984-4.219965zM593.075094 361.45548l62.719482 0.06 0.999991 0.799993c1.529987 2.539979 1.129991 5.379955 1.129991 8.119933v44.76963c-0.129999 5.449955-0.149999 10.89991 0.999992 16.279865a46.939612 46.939612 0 0 1 0.309997 8.379931c-1.16999 29.179759-1.559987 58.379517-1.489988 87.579275a7.079941 7.079941 0 0 1-0.589995 2.49998 2.849976 2.849976 0 0 1-1.859984 1.559987c-18.469847 0.179999-36.949694 0-55.419542 0.069999-8.779927 0-8.849927-0.069999-8.999925-8.999925-0.109999-4.379964-0.199998-8.759928 0-13.139892-0.05-2.709978-0.149999-5.419955 0-8.119933-0.109999-3.059975-0.099999-6.119949 0-9.189924-0.129999-3.839968-0.119999-7.679936 0-11.529904-0.139999-3.499971-0.109999-6.999942 0-10.489913q-0.249998-8.249932 0-16.499864c-0.139999-4.299964-0.159999-8.609929 0-12.919893-0.109999-4.639962-0.159999-9.279923 0-13.919885 0-2.649978-0.139999-5.299956 0-7.949934 0-2.599978-0.099999-5.199957 0-7.799936 0-2.559979-0.089999-5.119958 0-7.679936 0-1.819985-0.079999-3.62997 0-5.449955q-0.109999-3.789969 0-7.589937c0-2.519979-0.069999-4.999959 0-7.549938 0-1.439988-0.069999-2.879976 0-4.319964-0.069999-2.529979 0-4.999959 0-7.579937a33.439723 33.439723 0 0 1 0.269997-6.629946 3.879968 3.879968 0 0 1 1.929984-2.759977z" fill="#B4B2A5" /><path d="M592.755097 521.924153c0.359997 9.63992-1.669986 9.049925 9.509921 9.059925h53.829555a0.939992 0.939992 0 0 1 0 1.21999c-18.999843 0-38.079685 0-57.129527 0.119999-2.249981 0-5.419955-1.419988-6.279948 2.479979-3.499971 2.999975-7.759936 2.099983-11.749903 2.099983q-112.509069 0.089999-224.998139 0h-123.798976c-3.789969 0-7.819935 0.769994-11.109908-2.099983-0.479996-3.149974-2.999975-2.519979-4.999959-2.519979q-30.439748 0-60.879496 0.109999a0.999992 0.999992 0 0 1-0.329998-0.929992c0.06-0.329997 0.139999-0.489996 0.219999-0.489996h56.409533c11.179908 0 9.149924 0.579995 9.509921-9.059925 3.519971-2.949976 7.769936-2.089983 11.769903-2.099983q109.629093-0.079999 219.278186 0h129.638928c3.779969 0.02 7.809935-0.719994 11.109908 2.109983z" fill="#D0CFCE" /><path d="M236.368045 285.556108a36.999694 36.999694 0 0 1 15.529871-11.399906c3.169974 1.049991 6.399947 0.249998 9.599921 0.249998q144.118808 0.089999 288.227616 0c3.999967 0 8.089933 1.309989 12.0899-0.199998a37.229692 37.229692 0 0 1 15.499872 11.419905c1.23999 3.159974-1.18999 3.65997-3.209974 4.199966-2.509979 0.669994-5.129958 0.489996-7.699936 0.489996H247.257955c-2.579979 0-5.189957 0.179999-7.699937-0.489996-2.029983-0.579995-4.429963-1.129991-3.189973-4.269965z" fill="#787772" /><path d="M220.978172 571.003747v-11.599904c3.519971-2.999975 7.769936-2.069983 11.769903-2.069983q117.689027-0.089999 235.378053 0h113.489061c3.799969 0 7.819935-0.749994 11.129908 2.079983V571.003747c-2.199982 1.20999-4.599962 0.869993-6.999942 0.869993H227.898115c-2.319981-0.05-4.719961 0.289998-6.919943-0.869993z" fill="#DBDBDA" /><path d="M221.108171 342.395638v-10.319915c3.499971-2.999975 7.769936-2.069983 11.749903-2.079983q127.828943-0.089999 255.657885 0h93.619226c3.57997 0 7.399939-0.709994 10.459913 2.079983v10.319915c-3.489971 3.049975-7.759936 2.089983-11.749902 2.089983q-122.338988 0.089999-244.687977 0H231.568085c-3.57997 0-7.399939 0.719994-10.459914-2.089983z" fill="#8D8C87" /><path d="M220.998172 534.814046h371.706925v10.339915c-3.509971 2.999975-7.769936 2.089983-11.759902 2.089982q-112.839067 0.089999-225.688134 0H232.08808c-3.789969 0-7.809935 0.749994-11.109908-2.099982z" fill="#D3D3D2" /><path d="M221.098171 324.325787c-0.189998-3.499971-0.439996-6.999942 1.099991-10.329914 3.529971-2.919976 7.769936-2.079983 11.779903-2.089983q110.939082-0.069999 221.878164 0h124.478971c3.799969 0 7.819935-0.729994 11.129908 2.089983a24.1398 24.1398 0 0 1 1.12999 10.329914c-3.489971 2.999975-7.759936 2.079983-11.749902 2.079983q-123.628977 0.089999-247.267955 0.05h-101.999156c-3.58997-0.05-7.409939 0.669994-10.479914-2.129983z" fill="#868580" /><path d="M592.735097 559.353843H220.968172v-8.999925c3.519971-2.999975 7.769936-2.079983 11.769903-2.079983q116.06904-0.089999 232.13808 0H581.595189c3.789969 0 7.819935-0.749994 11.119908 2.089983l0.02 8.989925z" fill="#D8D8D7" /><path d="M221.108171 342.395638H592.595098v9.049925c-3.489971 2.999975-7.759936 2.079983-11.749902 2.079983q-122.668985 0.089999-245.337971 0.049999H231.568085c-3.57997 0-7.399939 0.709994-10.469914-2.089982z" fill="#91908C" /><path d="M591.525107 577.453694c0.109999 3.689969-0.159999 7.27994-2.559979 10.349914-1.709986 1.23999-3.65997 0.999992-5.599953 0.999992-115.999041-0.429996-231.948081-0.079999-347.917123-0.219998-3.57997 0-7.29994 1.279989-10.759911-0.769994-2.38998-3.069975-2.659978-6.659945-2.569978-10.349914 3.489971-3.059975 7.759936-2.089983 11.739903-2.089983q118.749018-0.089999 237.508035 0h109.709093c3.58997-0.01 7.449938-0.729994 10.449913 2.079983z" fill="#E1E1E0" /><path d="M224.588142 304.66595a16.799861 16.799861 0 0 1 3.999967-8.799927 38.469682 38.469682 0 0 1 8.999926-0.789994h338.5472a34.889711 34.889711 0 0 1 8.949925 0.829993 16.759861 16.759861 0 0 1 3.999967 8.829927c-0.109999 3.049975-2.599978 2.999975-4.599962 3.359973a45.169626 45.169626 0 0 1-7.719936 0.269997H236.828041a42.30965 42.30965 0 0 1-7.719936-0.289997c-1.999983-0.349997-4.489963-0.319997-4.519963-3.409972z" fill="#7F7F7A" /><path d="M224.708141 587.803608a34.679713 34.679713 0 0 1 10.819911-1.349989q171.338583 0.06 342.697165 0a34.749713 34.749713 0 0 1 10.789911 1.349989 13.639887 13.639887 0 0 1-3.899968 8.999926c-1.699986 1.25999-3.65997 0.999992-5.589954 0.999991-113.379062-0.409997-226.758124-0.069999-340.127186-0.219998-3.57997 0-7.30994 1.289989-10.749911-0.779993a13.589888 13.589888 0 0 1-3.939968-8.999926z" fill="#E4E4E4" /><path d="M585.065161 295.916022c-1.899984 2.109983-4.429963 1.25999-6.679945 1.25999q-171.548581 0.06-343.117162 0c-2.249981 0-4.78996 0.859993-6.659945-1.309989a25.889786 25.889786 0 0 1 7.759936-10.309915c0.809993 3.949967 3.999967 2.549979 6.279948 2.559979 27.519772 0.089999 55.049545 0.05 82.569317 0.049999q122.248989 0 244.507978-0.089999c2.569979 0 6.289948 1.999983 7.589937-2.479979a25.489789 25.489789 0 0 1 7.749936 10.319914z" fill="#7B7A75" /><path d="M221.098171 324.325787h371.496927v7.749936H221.108171q0-3.889968-0.01-7.749936z" fill="#898883" /><path d="M593.075094 361.45548l-0.299997 2.899976c-3.519971 2.939976-7.769936 2.089983-11.769903 2.099983q-110.619085 0.069999-221.23817 0H232.058081c-3.799969 0-7.819935 0.719994-11.129908-2.099983l-0.299998-2.899976c0.159999-1.609987 0.309997-3.229973 0.469996-4.84996 3.499971-2.999975 7.769936-2.069983 11.759903-2.069983q127.508945-0.089999 254.997891 0h94.25922c3.57997 0 7.399939-0.699994 10.469913 2.079983 0.169999 1.609987 0.329997 3.229973 0.489996 4.83996z" fill="#979692" /><path d="M591.525107 577.453694H222.138163c-1.999983-1.869985-0.999992-4.289965-1.169991-6.499947 2.329981-1.459988 4.929959-1.25999 7.509938-1.259989h356.737049c2.579979 0 5.179957-0.199998 7.499938 1.259989-0.189998 2.199982 0.869993 4.629962-1.18999 6.499947z" fill="#DEDEDD" /><path d="M224.588142 304.66595c1.739986 2.37998 4.299964 1.549987 6.549946 1.549987q175.678547 0.06 351.347094 0c2.259981 0 4.80996 0.839993 6.589945-1.469988a16.199866 16.199866 0 0 1 2.389981 9.249924H222.198162a16.479864 16.479864 0 0 1 2.38998-9.329923z" fill="#82817B" /><path d="M0.179999 478.004516v-37.45969c2.239981-2.139982 5.089958-1.999983 7.859934-1.999983q29.209758-0.109999 58.409517 0c2.559979 0 5.169957 0 7.389939 1.649986a8.059933 8.059933 0 0 1 1.769986 5.329956c0.249998 9.339923 0.289998 18.679845 0 27.999768a7.999934 7.999934 0 0 1-1.569987 4.769961c-2.579979 1.999983-5.659953 1.809985-8.639929 1.819985q-28.329766 0.089999-56.679531 0c-2.989975-0.04-6.08995 0.199998-8.539929-2.109983z" fill="#B8B7B5" /><path d="M228.618109 596.823533a35.249708 35.249708 0 0 1 10.779911-1.329989q167.458615 0.06 334.89723 0a34.999711 34.999711 0 0 1 10.78991 1.329989c0.05 2.999975-2.939976 4.099966-3.909967 6.449947-2.999975 1.999983-6.449947 2.129982-9.919918 2.129982H242.447995c-3.469971 0-6.899943-0.099999-9.919918-2.139982-1.719986-1.889984-3.56997-3.699969-3.909968-6.439947z" fill="#E7E7E6" /><path d="M73.449392 478.004516v-37.43969c-1.999983-2.699978-1.629987-5.849952-1.619986-8.919926s-0.109999-5.99995 0-9.079925c-0.069999-3.359972-0.109999-6.719944 0-10.079917 0-2.209982-0.119999-4.419963 0-6.629945 0-2.189982-0.079999-4.389964 0-6.579946a95.949206 95.949206 0 0 1 0-6.569945c-0.099999-2.579979-0.069999-5.149957 0-7.729936-0.099999-2.999975-0.099999-5.929951 0-8.889927-0.079999-2.609978-0.099999-5.209957 0-7.809935-0.079999-2.999975-0.099999-5.949951 0-8.919926-0.05-2.599978-0.099999-5.189957 0-7.789936-0.079999-2.219982-0.079999-4.449963 0-6.669945-0.089999-3.339972-0.089999-6.689945 0-9.999917-0.06-2.229982-0.089999-4.459963 0-6.689945-0.089999-2.999975-0.089999-5.99995 0-8.949926-0.099999-2.629978-0.089999-5.259956 0-7.889934-0.139999-3.049975-0.079999-6.109949 0-9.159925 0-3.509971-0.619995-7.129941 1.809985-10.199915a13.699887 13.699887 0 0 1 7.819935 0c2.169982 2.659978 1.859985 5.829952 1.809985 8.939926 0.079999 3.409972 0.119999 6.819944 0 10.239915 0 2.609978 0.109999 5.229957 0 7.839935 0.069999 2.229982 0.089999 4.459963 0 6.689945 0.089999 2.999975 0.079999 5.99995 0 8.939926 0.109999 2.629978 0.089999 5.259956 0 7.889935 0.129999 3.419972 0.109999 6.839943 0 10.259915 0.119999 3.839968 0.119999 7.669937 0 11.509905 0.119999 3.459971 0.119999 6.929943 0 10.389914q0.189998 5.789952 0 11.579904c0.119999 3.849968 0.139999 7.709936 0 11.559904 0.099999 3.819968 0.139999 7.639937 0 11.459905 0.05 2.999975 0.129999 5.99995 0 8.999926 0 2.229982 0.109999 4.469963 0 6.709944 0.109999 2.259981 0.05 4.519963 0 6.779944 0.219998 2.729977 0.06 5.449955 0 8.179933 0.289998 12.669895 0.259998 25.32979 0 37.999685 0.229998 11.129908 0.259998 22.249816 0 33.369724 0.179999 6.529946 0.209998 13.059892 0 19.589838q0.319997 11.639904 0 23.259808 0.319997 12.949893 0 25.889786c0.289998 4.069966 0.189998 8.149933 0.119999 12.219899-0.139999 8.859927-0.739994 9.369922-9.68992 8.729928-3.439972-4.429963-1.699986-9.579921-1.999983-14.449881-0.189998-7.30994-0.209998-14.619879 0-21.929819-0.179999-6.469946-0.199998-12.939893 0-19.399839q-0.279998-9.109925 0-18.219849-0.309997-12.249899 0-24.499798c0.569995-8.189932-1.849985-16.529863 1.749985-24.529797z" fill="#1A324F" /><path d="M656.104573 532.214068v-1.27999c1.499988-5.209957 0.229998-10.539913 0.689994-15.789869 0.199998-2.259981-0.789993-4.699961 0.929993-6.749944 2.489979-1.659986 5.339956-1.459988 8.109933-1.469988q29.609755-0.069999 59.21951 0c2.999975 0 5.99995-0.209998 8.699928 1.649986 2.519979 3.389972 1.769985 7.359939 1.579987 11.059909-0.349997 6.889943 1.599987 13.999884-1.419989 20.659829-1.999983 1.589987-4.359964 1.729986-6.729944 1.739986-20.859827 0.129999-41.709655 0.089999-62.569482 0-2.599978 0-5.179957-0.209998-7.27994-2.059983-0.239998-2.589979 0.289998-5.339956-1.22999-7.759936z" fill="#BFBCBA" /><path d="M657.324563 595.533544v-30.999744c2.479979-2.169982 5.539954-2.079983 8.529929-2.079982q29.909753-0.079999 59.799506 0c2.769977 0 5.609954-0.089999 8.059933 1.629986 2.349981 2.999975 1.799985 6.489946 1.609987 9.789919-0.409997 7.319939 1.569987 14.799878-1.419988 21.999818-1.999983 1.589987-4.369964 1.729986-6.739945 1.739986-20.849828 0.129999-41.709655 0.089999-62.559482 0-2.599978-0.03-5.179957-0.229998-7.27994-2.079983z" fill="#C5C2BF" /><path d="M564.405332 617.483362c-6.05995 3.849968-12.729895 6.369947-19.849836 6.379948q-137.078866 0.179999-274.157733 0a36.149701 36.149701 0 0 1-21.099825-6.389947c1.559987-2.489979 4.089966-2.999975 6.699945-3.219974a69.779423 69.779423 0 0 1 7.089941-0.189998q143.758811 0 287.527622 0.059999c4.769961 0.01 10.049917-1.24999 13.789886 3.359972z" fill="#EEEEEE" /><path d="M561.815353 274.176202c-1.289989 4.059966-4.699961 2.289981-7.119941 2.289981q-123.638977 0.149999-247.287955 0.08c-16.569863 0-33.139726 0-49.709589-0.05-2.119982 0-4.999959 1.17999-5.799952-2.339981 7.859935-4.409964 16.379865-5.619954 25.269791-5.599953 31.48974 0.06 62.999479 0 94.469219 0 23.459806 0.639995 46.919612 0.599995 70.379418 0 28.759762 0 57.519524 0.109999 86.279286 0 11.539905-0.069999 23.00981-0.239998 33.519723 5.619953z" fill="#75746F" /><path d="M812.153282 359.0655c0.099999 2.139982 0.279998 4.279965 0.279998 6.419947 0 75.999371-0.179999 152.078742 0 228.118113 0 6.509946-1.789985 8.51993-8.339931 8.379931-20.999826-0.449996-42.099652-0.289998-63.139478-0.359997a4.469963 4.469963 0 0 1-0.259998-2.289981c0.319997-6.389947 0-12.779894 0.179999-19.169842 0-2.529979-0.229998-5.179957 1.859984-7.19994 2.939976-1.779985 6.209949-1.399988 9.399923-1.409989h48.819596c7.439938 0 7.999934-0.649995 8.079933-8.109933 0.109999-5.99995-0.169999-11.999901 0.149999-17.999851q-0.269998-7.329939 0-14.649878-0.369997-17.939852 0-35.889704c-0.219998-11.109908-0.259998-22.229816 0-33.339724-0.149999-7.629937-0.229998-15.269874 0-22.89981 0-2.339981-0.159999-4.689961 0-6.999943-0.099999-3.069975-0.089999-6.149949 0-9.219923-0.139999-3.849968-0.119999-7.699936 0-11.549905q-0.209998-6.389947 0-12.779894c-0.119999-3.859968-0.139999-7.719936 0-11.579904-0.089999-3.799969-0.139999-7.599937 0-11.389906 0-3.319973-0.089999-6.649945 0.069999-9.999917a11.249907 11.249907 0 0 1 0.999992-5.359956 1.479988 1.479988 0 0 1 1.899984-0.719994z" fill="#C7C3C0" /><path d="M232.528077 603.26348h348.647116a19.939835 19.939835 0 0 1-6.419947 6.469947c-2.999975 1.999983-6.459947 2.119982-9.929918 2.119982H248.877941c-3.479971 0-6.889943-0.159999-9.939917-2.119982a19.659837 19.659837 0 0 1-6.409947-6.469947z" fill="#E9E9E9" /><path d="M238.938024 609.743427h335.817222c-2.44998 3.919968-6.579946 5.579954-10.349914 7.739935a35.269708 35.269708 0 0 0-10.139917-1.339988q-147.418781 0.089999-294.827561 0a35.269708 35.269708 0 0 0-10.139916 1.339988c-3.769969-2.149982-7.899935-3.819968-10.359914-7.739935z" fill="#ECEBEB" /><path d="M741.323868 600.603502a1.22999 1.22999 0 0 0-0.389997 0.999992h-5.639953a4.149966 4.149966 0 0 1-1.559987-1.999984c0.519996-13.449889 1.139991-26.869778-0.549996-40.329666-1.089991-8.719928 1.18999-17.529855 0.929993-26.239783-1.25999-40.729663-0.999992-81.459326-1.23999-122.198989 0.329997-36.559698 0.219998-73.129395 0-109.699093 0-3.249973-0.309997-6.489946 1.919984-9.239923a11.789902 11.789902 0 0 1 7.669937 0.239998c1.999983 4.579962 0.589995 9.349923 0.599995 13.999884q0.159999 80.579333 0.089999 161.158667v85.479293c0.06 16.009868-1.309989 31.899736-1.829985 47.829604z" fill="#1C3350" /><path d="M592.725097 550.323918H220.978172v-5.169957h371.736925c0 1.719986 0 3.439972 0.01 5.169957z" fill="#D6D5D4" /><path d="M592.605098 356.60552H221.098171v-5.159957h371.496927c0.01 1.719986 0.01 3.439972 0.01 5.159957z" fill="#94938F" /><path d="M81.629325 580.003673v-25.799787c2.42998-2.36998 5.559954-2.049983 8.529929-2.059983q28.099768-0.099999 56.179536 0c2.999975 0 6.08995-0.259998 8.549929 2.059983V580.003673c-2.41998 2.299981-5.509954 2.059983-8.46993 2.069982q-28.149767 0.089999-56.329534 0c-2.949976 0.01-6.04995 0.309997-8.45993-2.069982z" fill="#C4C1BE" /><path d="M733.523933 564.5438h-76.19937v-24.529797h76.19937a87.709275 87.709275 0 0 1 0 24.529797z" fill="#C2BFBC" /><path d="M73.449392 502.544313v24.539797c-2.40998 2.35998-5.509954 1.999983-8.45993 2.059983q-28.169767 0.109999-56.339534 0c-2.999975 0-5.99995 0.219998-8.479929-2.069983v-24.529797c2.42998-2.289981 5.509954-2.059983 8.46993-2.069983q28.169767-0.089999 56.349533 0c2.949976 0.02 6.04995-0.279998 8.45993 2.069983z" fill="#BDBBB8" /><path d="M73.449392 502.544313H0.179999V478.004516h73.269393z" fill="#BAB9B6" /><path d="M154.888719 554.193886H81.629325V531.004078c2.40998-2.36998 5.519954-2.059983 8.46993-2.069983q28.219767-0.099999 56.429533 0c2.999975 0 5.99995-0.129999 8.50993 2.059983 0 0.469996 0.079999 0.939992 0.109999 1.419988l-0.259998 21.77982z" fill="#C1BDBB" /><path d="M81.629325 580.003673h73.259394c0 5.129958-0.179999 10.279915 0.229998 15.389872s-1.22999 6.619945-6.409947 6.549946c-20.109834-0.299998-40.209667-0.129999-60.319501-0.109999-4.909959 0-9.819919 0.089999-14.719878 0.139999q-0.489996-0.429996-0.329998-0.869993c0.109999-0.289998 0.219998-0.439996 0.329998-0.439996 6.249948 2.089983 8.40993-0.239998 7.839935-6.619946-0.419997-4.619962 0.02-9.329923 0.119999-14.039883z" fill="#C7C3C0" /><path d="M73.449392 564.5338v21.999818c-2.40998 2.349981-5.509954 1.999983-8.45993 1.999984q-28.169767 0.109999-56.349533 0c-2.999975 0-5.99995 0.209998-8.47993-2.069983v-21.999818c2.42998-2.279981 5.509954-1.999983 8.46993-2.059983q28.189767-0.089999 56.359533 0c2.949976 0.079999 6.04995-0.229998 8.45993 2.129982z" fill="#C5C2BF" /><path d="M73.449392 564.5338H0.159999v-19.369839c2.43998-2.279981 5.519954-1.999983 8.47993-2.059983q28.169767-0.089999 56.349533 0c2.939976 0 5.99995-0.299998 8.449931 2.059983z" fill="#C2BFBC" /><path d="M73.449392 545.163961H0.169999v-18.089851h73.279393z" fill="#C0BDBA" /><path d="M0.159999 586.483619h73.289393l0.219999 14.189883V602.003491l-65.209461-0.149999c-8.42993 0-8.43993 0-8.42993-8.269932 0-2.36998 0.079999-4.739961 0.129999-7.099941z" fill="#C8C4C1" /><path d="M734.813922 291.946055l0.119999 111.24908c0 2.559979-0.179999 5.129958-0.279998 7.689936-2.999975-0.629995-2.41998-3.189974-2.799977-5.229956-0.129999-2.159982-0.089999-4.329964-0.059999-6.489947s0-4.339964 0-6.509946c-0.109999-2.559979-0.069999-5.129958 0-7.689936q-0.129999-4.439963 0-8.889927c-0.079999-2.599978-0.099999-5.199957 0-7.799935-0.079999-2.999975-0.099999-5.949951 0-8.919926-0.06-2.599978-0.099999-5.189957 0-7.789936-0.079999-2.219982-0.079999-4.449963 0-6.669945-0.089999-3.349972-0.099999-6.699945 0-9.999917-0.069999-2.249981-0.089999-4.489963 0-6.729944-0.119999-2.999975-0.079999-6.05995 0-9.089925-0.199998-2.699978-0.05-5.409955 0-8.109933 0.099999-5.609954-3.329972-6.579946-7.999934-6.559946q-28.409765 0.109999-56.81953 0c-3.189974 0-6.499946 0.449996-9.379922-1.559987a16.999859 16.999859 0 0 1 0-10.659912z" fill="#767570" /><path d="M81.619325 364.375456v-11.619904c2.42998-2.36998 5.549954-2.069983 8.529929-2.079983q28.079768-0.089999 56.149536 0c2.999975 0 6.09995-0.289998 8.539929 2.059983l0.239998 7.689937c0 1.309989-0.069999 2.619978-0.109999 3.929967-2.43998 2.249981-5.509954 2.069983-8.47993 2.079983q-28.199767 0.079999-56.399533 0c-2.949976-0.02-6.04995 0.289998-8.46993-2.059983z" fill="#8E8D88" /><path d="M741.523866 467.684602q0-65.999454-0.079999-131.88891v-35.999702c0-2.559979-0.279998-5.169957 0.999992-7.579937q34.259717-0.999992 68.539433 0a14.219882 14.219882 0 0 1 0 9.309923c-2.859976 1.999983-6.179949 1.569987-9.359923 1.579987-16.339865 0.069999-32.67973 0.159999-48.999594 0-5.669953-0.069999-8.559929 1.869985-8.159933 7.739936 0 2.689978 0.159999 5.379955 0 8.069933 0 2.259981 0.109999 4.529963 0 6.789944 0.089999 2.999975 0.089999 5.99995 0 8.999925 0.109999 2.629978 0.089999 5.269956 0 7.899935 0.129999 3.419972 0.109999 6.839943 0 10.259915 0.119999 3.839968 0.119999 7.669937 0 11.509905q0.179999 5.189957 0 10.399914c0.129999 3.859968 0.129999 7.729936 0 11.589904q0.189998 5.819952 0 11.629904c0.129999 4.259965 0.139999 8.529929 0 12.789894 0.099999 3.849968 0.149999 7.689936 0 11.539905 0.069999 3.059975 0.129999 6.119949 0 9.179924 0.139999 2.299981 0.069999 4.599962 0 6.899943q0.269998 10.999909 0 21.999818c-0.069999 2.279981 0.079999 4.599962-0.999992 6.719944a1.379989 1.379989 0 0 1-1.939984 0.559996z" fill="#757470" /><path d="M73.469392 334.675702V345.005616c-2.43998 2.349981-5.569954 1.999983-8.539929 1.999984q-28.079768 0.109999-56.169535 0c-2.999975 0-6.09995 0.269998-8.53993-2.069983V334.605702c2.44998-2.329981 5.569954-1.999983 8.549929-2.059983q28.079768-0.089999 56.169536 0c2.969975 0.06 6.08995-0.239998 8.529929 2.129983z" fill="#868580" /><path d="M154.838719 352.735552H81.619325v-10.309914c2.42998-2.36998 5.549954-2.069983 8.529929-2.079983q28.079768-0.089999 56.159536 0c2.999975 0 6.08995-0.289998 8.529929 2.059983z" fill="#898883" /><path d="M73.629391 292.006055q-0.06 5.199957-0.139999 10.409914c-2.41998 2.329981-5.519954 1.999983-8.46993 2.049983q-28.169767 0.099999-56.339534 0c-2.999975 0-5.99995 0.259998-8.45993-2.059983-0.619995-10.599912-0.619995-10.619912 9.999917-10.589913q31.699738 0.05 63.409476 0.189999z" fill="#767570" /><path d="M81.599325 311.425894v-10.329915c2.43998-2.35998 5.559954-2.059983 8.529929-2.069982q28.099768-0.109999 56.169536 0c2.999975 0 6.09995-0.289998 8.539929 2.049983v10.339914c-2.43998 2.349981-5.559954 1.999983-8.529929 2.059983q-28.089768 0.109999-56.169536 0c-2.979975-0.01-6.09995 0.289998-8.539929-2.049983z" fill="#797873" /><path d="M73.449392 412.155061v10.329914c-2.43998 2.36998-5.569954 1.999983-8.539929 1.999984q-28.079768 0.109999-56.169535 0c-2.999975 0-6.08995 0.249998-8.53993-2.079983v-10.269915c2.44998-2.319981 5.569954-1.999983 8.54993-1.999983q28.079768-0.109999 56.169535 0c2.969975-0.04 6.09995-0.359997 8.529929 2.019983z" fill="#A9A8A6" /><path d="M154.838719 301.07598H81.599325l-0.149999-9.119925 69.189428-0.179998c8.089933 0.01 3.119974 6.05995 4.199965 9.299923z" fill="#757470" /><path d="M73.459392 359.205499v8.999925c-2.43998 2.36998-5.569954 1.999983-8.539929 1.999984q-28.079768 0.109999-56.169535 0c-2.999975 0-6.08995 0.259998-8.53993-2.069983v-8.999926c2.44998-2.329981 5.569954-2.049983 8.54993-2.059983q28.079768-0.089999 56.169535 0c2.969975 0.069999 6.09995-0.239998 8.529929 2.129983z" fill="#908F8A" /><path d="M73.459392 376.00536v8.999925c-2.43998 2.36998-5.569954 1.999983-8.539929 2.049983q-28.079768 0.099999-56.169535 0c-2.999975 0-6.08995 0.259998-8.53993-2.079982v-8.999926c2.44998-2.329981 5.569954-2.049983 8.54993-2.059983q28.079768-0.099999 56.169535 0c2.969975 0.02 6.09995-0.289998 8.529929 2.089983z" fill="#979692" /><path d="M0.219998 302.375969h73.309394v8.999925c-2.41998 2.329981-5.509954 1.999983-8.45993 2.049984q-28.169767 0.109999-56.339534 0c-2.999975 0-5.99995 0.249998-8.45993-2.059983z" fill="#797873" /><path d="M0.199998 422.464976h73.249394v8.999925c-2.41998 2.35998-5.519954 1.999983-8.45993 2.049983q-28.169767 0.099999-56.339534 0c-2.999975 0-5.99995 0.219998-8.45993-2.079983 0-2.939976 0-5.959951 0.01-8.969925z" fill="#AEADAB" /><path d="M73.529392 319.17583v8.999925c-2.43998 2.349981-5.559954 1.999983-8.53993 1.999984q-28.079768 0.109999-56.169535 0c-2.999975 0-6.09995 0.269998-8.539929-2.069983v-8.999925c2.41998-2.309981 5.509954-1.999983 8.45993-1.999984q28.169767-0.109999 56.339534 0c2.889976 0.01 5.979951-0.269998 8.44993 2.069983z" fill="#7F7F79" /><path d="M0.189998 431.504901h73.259394v8.999925H0.179999c0-2.969975 0-5.98995 0.009999-8.999925z" fill="#B4B3B1" /><path d="M81.609325 334.665702v-8.999926c2.43998-2.36998 5.559954-2.069983 8.529929-2.079983q28.079768-0.089999 56.159536 0c2.999975 0 6.09995-0.289998 8.539929 2.059983v8.999926c-2.43998 2.35998-5.559954 2.059983-8.529929 2.069983q-28.079768 0.089999-56.159536 0c-2.979975 0-6.09995 0.289998-8.539929-2.049983z" fill="#81817B" /><path d="M81.609325 334.665702h73.229394v7.749936H81.619325c-0.01-2.579979-0.01-5.159957-0.01-7.749936z" fill="#85847F" /><path d="M73.529392 319.17583H0.269998v-7.739936h73.259394z" fill="#7B7B76" /><path d="M81.599325 311.425894h73.239394v7.739936c-2.43998 2.35998-5.559954 2.059983-8.539929 2.069983q-28.079768 0.109999-56.159536 0c-2.999975 0-6.09995 0.299998-8.539929-2.049983z" fill="#7B7A75" /><path d="M73.459392 376.00536H0.209998v-7.749936h73.249394z" fill="#94938F" /><path d="M73.459392 359.205499H0.209998v-7.749936c2.44998-2.329981 5.569954-2.049983 8.54993-2.059983q28.079768-0.089999 56.169535 0c2.999975 0 6.09995-0.299998 8.529929 2.069983z" fill="#8D8C87" /><path d="M0.209998 385.005285h73.249394v7.749936c-2.42998 2.35998-5.559954 1.999983-8.529929 2.049983q-28.079768 0.099999-56.169535 0c-2.999975 0-6.08995 0.269998-8.53993-2.069983z" fill="#9B9A96" /><path d="M734.883921 600.673502a1.049991 1.049991 0 0 1 0.409997 0.999991c-24.279799 0.069999-48.559598 0-72.829398 0.309998-5.229957 0.06-5.599954-2.549979-5.139957-6.419947h76.19937c1.519987 1.439988-0.159999 3.67997 1.359988 5.109958z" fill="#C9C6C3" /><path d="M73.449392 412.155061H0.199998v-6.449947c2.44998-2.329981 5.569954-1.999983 8.53993-2.059983q28.099768-0.089999 56.169535 0c2.999975 0 6.09995-0.299998 8.539929 2.069983z" fill="#A5A4A1" /><path d="M73.459392 351.455563H0.209998v-6.459947h73.249394c0.01 2.159982 0 4.309964 0 6.459947z" fill="#898984" /><path d="M0.219998 328.195755h73.249394v6.459947H0.209998q0.02-3.229973 0.01-6.459947z" fill="#82827C" /><path d="M81.599325 319.17583h73.239394v6.459947H81.609325c0-2.159982-0.01-4.309964-0.01-6.459947z" fill="#7E7E78" /><path d="M73.459392 405.695114H0.209998v-6.459946c2.44998-2.329981 5.569954-2.049983 8.54993-2.059983q28.079768-0.089999 56.169535 0c2.999975 0 6.09995-0.309997 8.529929 2.069983z" fill="#A2A19E" /><path d="M73.459392 399.245168H0.209998v-6.459947h73.249394z" fill="#9E9E9A" /><path d="M657.524561 292.146054c0.06 3.409972 0.109999 6.809944 0.169999 10.209915 1.999983 2.699978 1.579987 5.819952 1.569987 8.869927 0.069999 2.619978 0.109999 5.249957 0 7.879935 0.069999 2.999975 0.099999 5.949951 0 8.929926 0.069999 2.219982 0.089999 4.449963 0 6.669944 0.089999 3.309973 0.099999 6.619945 0 9.919918 0 2.159982 0.099999 4.319964 0 6.469947 0 2.46998 0.06 4.939959-0.169999 7.399939a6.349947 6.349947 0 0 1-0.999991 2.999975 1.359989 1.359989 0 0 1-1.849985 0.349997l-0.329997-0.309997c0.129999-20.929827 0.219998-41.869654 0.439996-62.799481-0.079999-2.209982-1.17999-4.729961 1.16999-6.589945z" fill="#B4B2A5" /><path d="M810.953292 301.07598q0-4.449963 0.07-8.899927c2.249981 1.269989 1.23999 3.449971 1.239989 5.189957 0 20.56983-0.06 41.12966-0.109999 61.69949a7.399939 7.399939 0 0 1-0.999991 0.259998c-1.999983-1.789985-1.849985-4.169966-1.879985-6.499946q-0.179999-5.119958 0-10.229916c-0.069999-2.619978-0.109999-5.239957 0-7.859935-0.069999-2.999975-0.099999-5.99995 0-8.929926-0.06-2.229982-0.089999-4.469963 0-6.709944-0.129999-2.639978-0.06-5.279956 0-7.929935-0.05-3.469971-0.679994-7.039942 1.679986-10.089916z" fill="#93928D" /><path d="M592.805097 453.474719v16.789861c-3.529971 2.909976-7.769936 2.079983-11.779903 2.079983q-110.939082 0.069999-221.898165 0H232.048081c-3.799969 0-7.819935 0.699994-11.129908-2.089983v-16.789861c3.529971-2.919976 7.769936-2.089983 11.779902-2.089983q108.379104-0.069999 216.748207 0H581.695189c3.829968 0.01 7.829935-0.699994 11.109908 2.099983z" fill="#BDBCBA" /><path d="M592.815097 426.354943v14.199883c-3.529971 2.919976-7.769936 2.089983-11.779903 2.089983q-109.659093 0.079999-219.328186 0H232.038081c-3.799969 0-7.819935 0.689994-11.129908-2.099983v-14.199883c3.529971-2.919976 7.779936-2.089983 11.779902-2.089982q109.349096-0.069999 218.698191 0H581.695189c3.829968 0.01 7.829935-0.689994 11.119908 2.099982z" fill="#B7B6B4" /><path d="M592.755097 521.924153H220.948172v-12.909893c3.519971-2.999975 7.769936-2.099983 11.769903-2.099983q109.99909-0.069999 219.938181 0h128.998933c3.799969 0 7.819935-0.729994 11.119908 2.099983z" fill="#CCCCCA" /><path d="M220.898173 440.554826h371.906924v12.919893H220.898173z" fill="#BAB9B7" /><path d="M592.785097 480.594495v11.619904c-3.529971 2.929976-7.779936 2.089983-11.779903 2.089982q-112.229072 0.079999-224.468143 0H232.048081c-3.799969 0-7.819935 0.719994-11.129908-2.089982v-11.619904c3.519971-2.929976 7.769936-2.089983 11.769902-2.089983q109.329096-0.069999 218.668192 0h130.308922c3.799969 0 7.859935-0.719994 11.119908 2.089983z" fill="#C4C3C1" /><path d="M592.785097 480.594495H220.918173v-10.329915H592.795097c0 3.439972 0 6.889943-0.01 10.329915z" fill="#C1C0BE" /><path d="M220.918173 492.214399h371.866924v8.999925c-3.529971 2.929976-7.769936 2.079983-11.769903 2.089983q-112.249072 0.069999-224.468143 0H232.06808c-3.799969 0-7.819935 0.719994-11.129907-2.089983z" fill="#C6C5C4" /><path d="M592.815097 410.855072v7.749936c-3.529971 2.909976-7.779936 2.089983-11.779903 2.089982q-109.349096 0.069999-218.698191 0H232.028081c-3.809968 0-7.819935 0.699994-11.139908-2.089982v-7.749936c3.529971-2.909976 7.779936-2.089983 11.779902-2.089983q109.99909-0.069999 219.998181 0h128.998933c3.859968 0 7.859935-0.699994 11.149908 2.089983z" fill="#AFAEAC" /><path d="M592.805097 390.185243v7.749935c-3.529971 2.919976-7.769936 2.089983-11.779903 2.099983q-108.999098 0.06-217.998197 0h-130.998916c-3.799969 0-7.819935 0.699994-11.129908-2.099983v-7.749935c3.529971-2.909976 7.779936-2.079983 11.779902-2.079983q111.27908-0.079999 222.55816 0h126.428954c3.859968 0 7.859935-0.709994 11.139908 2.079983z" fill="#A6A5A2" /><path d="M220.888173 418.605008h371.926924v7.749935H220.888173z" fill="#B3B2B0" /><path d="M592.805097 390.185243H220.898173v-7.749936c2.279981-2.139982 5.129958-1.909984 7.919934-1.909985h356.057055c2.789977 0 5.639953-0.229998 7.919935 1.909985z" fill="#A2A19E" /><path d="M592.775097 370.815403v7.749936c-2.269981 2.149982-5.129958 1.929984-7.919935 1.929984h-355.997055c-2.779977 0-5.639953 0.219998-7.909935-1.929984v-7.749936c3.529971-2.919976 7.779936-2.079983 11.779903-2.079983q112.229072-0.079999 224.468143 0h124.478971c3.769969 0 7.789936-0.729994 11.099908 2.079983z" fill="#9C9B98" /><path d="M220.928173 501.254324h371.846924v7.759936H220.938173c0-2.589979-0.01-5.169957-0.01-7.759936z" fill="#C9C8C7" /><path d="M592.815097 410.855072H220.888173v-7.749936c3.529971-2.909976 7.779936-2.089983 11.779902-2.089983q109.99909-0.069999 219.998181 0h128.998933c3.799969 0 7.819935-0.699994 11.139908 2.089983z" fill="#ABAAA8" /><path d="M81.629325 478.004516v-38.729679c2.40998-2.35998 5.519954-2.059983 8.46993-2.069983q28.199767-0.109999 56.419533 0c2.999975 0 5.99995-0.139999 8.49993 2.069983V478.004516c-2.45998 2.209982-5.529954 2.059983-8.49993 2.069983q-28.219767 0.069999-56.419533 0c-2.949976-0.01-6.04995 0.299998-8.46993-2.069983z" fill="#B7B6B4" /><path d="M81.629325 478.004516h73.389393v33.569723c-2.46998 2.209982-5.529954 2.069983-8.50993 2.069982q-28.199767 0.079999-56.409533 0c-2.949976 0-6.05995 0.299998-8.46993-2.059983z" fill="#BBB9B7" /><path d="M592.775097 370.815403H220.918173v-6.459947h371.856924z" fill="#999895" /><path d="M592.815097 403.105136H220.888173v-5.169958h371.916924c0 1.719986 0 3.449971 0.01 5.169958z" fill="#A9A8A5" /><path d="M220.918173 378.565339h371.866924v3.869968H220.908173c0-1.289989 0.01-2.579979 0.01-3.869968z" fill="#9F9E9A" /><path d="M81.629325 511.584238h73.389393v19.35984H81.609325z" fill="#BEBBB9" /><path d="M81.629325 386.325275V374.705371c2.40998-2.35998 5.509954-2.059983 8.45993-2.069983q28.199767-0.109999 56.399533 0c2.999975 0 5.99995-0.169999 8.49993 2.059983v11.629904c-2.44998 2.229982-5.519954 2.069983-8.48993 2.069982q-28.199767 0.089999-56.399533 0c-2.949976-0.02-6.05995 0.279998-8.46993-2.069982z" fill="#989793" /><path d="M81.629325 409.575082V398.005178c2.40998-2.35998 5.509954-2.069983 8.45993-2.079983q28.219767-0.109999 56.409533 0c2.999975 0 5.99995-0.149999 8.50993 2.059983v11.629904c-2.45998 2.219982-5.529954 2.069983-8.49993 2.079983q-28.219767 0.069999-56.419533 0c-2.939976-0.079999-6.03995 0.229998-8.45993-2.119983z" fill="#A3A29F" /><path d="M155.008718 397.925179H81.629325v-11.599904h73.359393c0.01 3.859968 0.01 7.729936 0.02 11.599904z" fill="#9C9B97" /><path d="M154.988718 374.685371H81.629325v-10.329915h73.349393c0 3.439972 0 6.889943 0.01 10.329915z" fill="#92918D" /><path d="M81.629325 409.575082h73.389393v8.999926c-2.45998 2.219982-5.519954 2.069983-8.49993 2.079983q-28.219767 0.079999-56.419533 0c-2.949976 0-5.99995 0.299998-8.46993-1.999984z" fill="#A8A7A4" /><path d="M155.018718 439.264837H81.629325v-7.749936c2.40998-2.35998 5.519954-2.059983 8.46993-2.069983q28.219767-0.109999 56.419533 0c2.999975 0 5.99995-0.139999 8.49993 2.069983z" fill="#B3B2B0" /><path d="M81.629325 418.615007h73.389393v6.459947c-2.45998 2.199982-5.519954 2.059983-8.49993 2.069983q-28.219767 0.069999-56.419533 0c-2.949976 0-5.99995 0.299998-8.46993-2.059983z" fill="#ACABA8" /><path d="M81.629325 425.064954h73.389393v6.449947H81.629325z" fill="#AFAEAB" /><path d="M657.384562 509.00426c-0.729994 7.28994 1.539987 14.759878-1.299989 21.929818 0.119999-30.559747-0.449996-61.129494 1.299989-91.669241 2.45998-2.209982 5.519954-2.069983 8.49993-2.079983q29.819753-0.06 59.629507 0c2.759977 0 5.599954-0.169999 7.999934 1.669986 1.329989 9.999917 0.729994 20.109834 0.319997 30.17975-2.889976 2.549979-6.459947 1.939984-9.819919 1.999984-18.439847 0.079999-36.869695 0-55.299542 0-8.999926 0-9.209924 0.269998-9.259924 9.489921v20.56983c-0.06 2.799977-0.03 5.629953-2.069983 7.909935z" fill="#B7B6B4" /><path d="M656.134573 361.825477c0.389997 0 0.789993-0.05 1.17999-0.059999 1.929984 1.739986 1.819985 4.079966 1.869985 6.369947 0.109999 2.619978 0.099999 5.229957 0 7.849935 0.089999 2.999975 0.099999 5.929951 0 8.889927 0.06 2.599978 0.099999 5.199957 0 7.789935 0.089999 2.259981 0.06 4.509963 0 6.769944 0.209998 2.319981 0 4.629962 0.059999 6.999942 0 5.209957 3.149974 6.339948 7.629937 6.319948q26.109784-0.06 52.249568 0h5.169957c10.119916 0.149999 10.85991 1.069991 9.269923 11.409906-2.819977 2.139982-6.139949 1.699986-9.319923 1.709985q-27.999768 0.089999-56.089536 0c-10.419914 0-10.419914 0-12.0799-9.819918z" fill="#AAA9A6" /><path d="M656.104573 416.005029c0.659995 8.109933 5.99995 7.999934 12.369898 7.869935 21.679821-0.329997 43.369641-0.109999 64.999462-0.099999 0.999992 2.819977 1.339989 5.609954-0.289998 8.339931-2.079983 1.409988-4.469963 1.429988-6.819943 1.439988q-30.569747 0.099999-61.139494 0c-2.779977 0-5.619954 0-7.889935-2.069983-2.40998-4.959959-0.759994-10.299915-1.22999-15.479872z" fill="#AEADAB" /><path d="M657.384562 431.514901h76.119371a9.429922 9.429922 0 0 1 0 7.729936h-76.119371z" fill="#B4B3B0" /><path d="M657.384562 509.00426c0-11.189907 0.239998-22.389815-0.109999-33.559723-0.149999-5.069958 1.349989-6.649945 6.519946-6.589945 23.229808 0.269998 46.479616 0.119999 69.719424 0.129999a236.768042 236.768042 0 0 1 0 39.999669z" fill="#BAB9B6" /><path d="M733.523933 509.00426v-39.999669-37.439691-7.749936c0.089999-9.059925 0.089999-9.069925-8.809927-9.069925h-58.439517c-8.879927 0-8.879927 0-8.889927-8.999925 2.46998-2.209982 5.549954-2.069983 8.52993-2.079983q29.599755-0.079999 59.16951 0c2.999975 0 6.05995-0.099999 8.53993 2.079983 0.229998 1.749986-0.419997 3.67997 0.999992 5.199957q0.119999 94.899215 0.229998 189.78843c-1.999983-1.309989-1.069991-3.379972-1.369989-5.139957V509.00426z" fill="#A6A5A2" /><path d="M811.033292 494.784377v36.159701c-2.249981 2.069983-5.079958 2.069983-7.849936 2.079983q-26.60978 0.089999-53.209559 0c-2.549979 0-5.169957 0-7.33994-1.699986a242.117997 242.117997 0 0 1-0.149998-36.729696c1.709986-1.579987 3.879968-1.789985 5.99995-1.799985q27.999768-0.239998 55.929537 0c2.39998-0.02 4.749961 0.209998 6.619946 1.989983z" fill="#BDBBB9" /><path d="M811.033292 494.784377h-68.229436a2.589979 2.589979 0 0 1-0.799993-2.149982c0.249998-8.319931-0.559995-16.669862 0.429996-24.999793l0.349997-6.439947c2.219982-2.169982 5.069958-2.049983 7.829935-2.059983q26.279783-0.119999 52.559566 0c2.769977 0 5.599954 0 7.859935 2.059983z" fill="#B9B8B5" /><path d="M811.033292 545.153961c0 7.29994-0.259998 14.629879 0.119999 21.909819 0.249998 4.999959-1.21999 6.699945-6.459947 6.629945-20.619829-0.289998-41.259659-0.109999-61.889488-0.109999-1.849985-6.769944-0.299998-13.669887-0.809993-20.499831 0.399997-2.809977-0.889993-5.809952 0.889992-8.47993 2.259981-1.589987 4.87996-1.499988 7.439939-1.509987q26.409782-0.079999 52.809563 0c2.789977 0.02 5.629953-0.01 7.899935 2.059983z" fill="#C3C0BC" /><path d="M811.033292 461.214655h-68.249436V438.004847c2.219982-2.169982 5.069958-2.059983 7.829935-2.069983q26.279783-0.099999 52.559566 0c2.769977 0 5.599954 0 7.859935 2.049983z" fill="#B6B5B3" /><path d="M811.033292 545.153961H742.793856a26.839778 26.839778 0 0 1 0-14.199883h68.239436z" fill="#C1BDBB" /><path d="M742.793856 410.875071V398.005178c2.209982-2.189982 5.069958-2.079983 7.819935-2.089983q26.289783-0.119999 52.579565 0c2.779977 0 5.599954 0 7.869935 2.059983v12.909893c-2.249981 2.069983-5.069958 2.059983-7.849935 2.069983q-26.279783 0.109999-52.559565 0c-2.769977-0.05-5.629953 0.05-7.859935-2.079983z" fill="#A3A29F" /><path d="M742.793856 410.875071h68.249435v11.619904c-2.249981 2.069983-5.069958 2.069983-7.849935 2.079983q-26.279783 0.089999-52.549565 0c-2.759977 0-5.619954 0.129999-7.839935-1.999983z" fill="#A9A8A5" /><path d="M810.983292 352.705553c0 2.199982 0.089999 4.409964 0.139999 6.619945v4.999958c-2.279981 1.999983-5.089958 2.059983-7.879935 2.069983q-26.299782 0.089999-52.599565 0c-2.759977 0-5.619954 0.119999-7.859935-1.999983v-11.619904c2.219982-2.169982 5.059958-2.079983 7.819935-2.089983q26.279783-0.119999 52.539566 0c2.749977 0.01 5.589954-0.069999 7.839935 2.019984z" fill="#8E8D88" /><path d="M742.793856 386.335274v-11.609904c2.41998-2.339981 5.519954-2.089983 8.47993-2.099982q25.659788-0.089999 51.319575 0c2.999975 0 5.99995-0.099999 8.50993 2.089983v11.609904c-2.259981 1.999983-5.079958 2.059983-7.859935 2.069982q-26.299782 0.089999-52.579565 0c-2.789977-0.03-5.649953 0.109999-7.869935-2.059983z" fill="#989793" /><path d="M742.793856 386.335274h68.279435v11.619904h-68.269435z" fill="#9C9B98" /><path d="M811.093291 374.705371h-68.309435v-10.329915h68.339435c-0.02 3.439972-0.02 6.879943-0.03 10.329915z" fill="#93928D" /><path d="M742.793856 422.494975h68.239436v8.999926c-2.249981 2.079983-5.079958 2.059983-7.859935 2.079983q-26.259783 0.089999-52.549566 0c-2.749977 0-5.609954 0.119999-7.839935-1.999984 0-3.059975 0.01-6.06995 0.01-9.079925z" fill="#AEADAB" /><path d="M742.783856 431.534901h68.249436V438.004847h-68.249436z" fill="#B2B1AF" /><path d="M742.433859 552.903897q0.199998 10.329915 0.369997 20.679829c-0.06 6.999942 0 14.079884-0.229998 21.109825 0 1.999983 0.929992 4.329964-1.25999 5.909951l0.259998-47.689605z" fill="#7E7E78" /><path d="M742.433859 552.903897h-0.859993v-59.399509h0.859993c0.119999 0.439996 0.239998 0.879993 0.369997 1.309989v50.359584z" fill="#7B7A75" /><path d="M742.433859 493.494388h-0.859993v-25.829786h0.879993z" fill="#797873" /><path d="M657.64456 345.005616v-10.359914c2.40998-2.36998 5.519954-1.999983 8.45993-1.999983q29.479756-0.109999 58.949513 0c2.999975 0 5.99995-0.139999 8.499929 2.079982V345.005616c-2.45998 2.219982-5.519954 2.059983-8.499929 2.069983q-29.469756 0.079999-58.999512 0c-2.909976-0.069999-6.01995 0.289998-8.409931-2.069983z" fill="#868580" /><path d="M657.64456 328.185755v-8.999925c2.40998-2.36998 5.519954-1.999983 8.45993-1.999984q29.479756-0.109999 58.999512 0c2.999975 0 5.99995-0.149999 8.48993 2.079983v8.999926c-2.45998 2.219982-5.519954 1.999983-8.49993 2.059983q-29.469756 0.079999-58.999512 0c-2.939976-0.069999-6.04995 0.259998-8.44993-2.139983z" fill="#7F7F79" /><path d="M657.394562 385.005285v-8.999925c2.46998-2.209982 5.539954-2.069983 8.52993-2.079983q29.569755-0.069999 59.139511 0c2.999975 0 6.05995-0.129999 8.529929 2.079983v8.999925c-2.46998 2.199982-5.539954 2.069983-8.529929 2.079983q-29.559755 0.069999-59.149511 0c-2.979975 0.01-6.04995 0.159999-8.51993-2.079983z" fill="#979692" /><path d="M657.64456 311.405894v-8.999925h66.999446c8.939926 0 8.939926 0 8.909926 9.049925-2.45998 2.209982-5.519954 2.049983-8.499929 2.059983q-29.469756 0.069999-58.999512 0c-2.899976-0.05-6.01995 0.279998-8.409931-2.109983z" fill="#797873" /><path d="M657.384562 368.235424c0-2.159982 0-4.309964-0.069999-6.469946 0.109999-0.859993 0.209998-1.729986 0.309997-2.589979 2.41998-2.35998 5.529954-1.999983 8.46993-1.999983q29.489756-0.109999 58.999512 0c2.999975 0 5.99995-0.139999 8.49993 2.079982v8.999926c-2.46998 2.219982-5.539954 2.069983-8.519929 2.079983q-29.579755 0.079999-59.139511 0c-3.009975-0.03-6.07995 0.119999-8.54993-2.099983z" fill="#908F8A" /><path d="M657.64456 311.405894h75.909372v7.749936h-75.909372z" fill="#7B7B76" /><path d="M657.394562 385.005285h76.19937v7.749936c-2.46998 2.189982-5.529954 2.069983-8.529929 2.079983q-29.579755 0.069999-59.159511 0c-2.999975 0-5.99995 0.139999-8.51993-2.079983z" fill="#9B9A96" /><path d="M657.384562 368.235424h76.18937v7.749936h-76.199369z" fill="#94938F" /><path d="M733.523933 359.205499h-75.939372v-7.749936c2.40998-2.35998 5.519954-1.999983 8.46993-1.999984q29.479756-0.109999 58.999512 0c2.999975 0 5.99995-0.139999 8.48993 2.079983q-0.02 3.789969-0.02 7.669937z" fill="#8D8C87" /><path d="M657.64456 328.185755h75.909372v6.449947h-75.919372c0.01-2.139982 0.01-4.299964 0.01-6.449947z" fill="#82827C" /><path d="M733.523933 351.455563h-75.919372v-6.459947l75.919372 0.01z" fill="#8A8984" /><path d="M733.623932 405.685114h-76.23937v-6.459946c2.46998-2.209982 5.539954-2.069983 8.52993-2.069983q29.579755-0.069999 59.159511 0c2.999975 0 6.05995-0.099999 8.539929 2.079983z" fill="#A2A19E" /><path d="M733.623932 399.225168H657.394562v-6.449947h76.20937q0.02 3.229973 0.02 6.449947z" fill="#9E9E9A" /><path d="M810.953292 301.07598v10.329914c-2.239981 2.119982-5.079958 2.059983-7.839935 2.069983q-26.279783 0.109999-52.559565 0c-2.769977 0-5.609954 0.06-7.859935-1.999983a31.159742 31.159742 0 0 0-0.099999-3.869968c-0.689994-4.999959 1.16999-6.679945 6.399947-6.599946 20.659829 0.249998 41.309658 0.069999 61.959487 0.07z" fill="#797873" /><path d="M810.983292 352.705553l-68.219436 0.069999v-10.339914c2.219982-2.149982 5.069958-2.069983 7.829935-2.079983q26.269783-0.119999 52.539566 0c2.759977 0 5.599954-0.06 7.849935 1.999983z" fill="#898883" /><path d="M810.963292 325.605777v8.999925c-2.229982 2.129982-5.069958 2.069983-7.829935 2.089983q-26.279783 0.099999-52.549565 0c-2.759977 0-5.599954 0.079999-7.839936-1.999983v-8.999926c2.219982-2.139982 5.069958-2.069983 7.829936-2.079983q26.279783-0.119999 52.549565 0c2.749977-0.04 5.599954-0.119999 7.839935 1.989984z" fill="#81817B" /><path d="M742.743856 334.685702h68.219436v7.749936h-68.219436c0.01-2.579979 0-5.169957 0-7.749936z" fill="#85847F" /><path d="M742.703857 311.435894h68.259435v7.739936c-2.229982 2.129982-5.069958 2.069983-7.829935 2.079983q-26.279783 0.109999-52.549565 0c-2.769977 0-5.609954 0.069999-7.859935-1.999984l-0.02-7.819935z" fill="#7B7A75" /><path d="M742.713857 319.18583h68.239435v6.459946h-68.229435c0-2.149982 0-4.299964-0.01-6.459946z" fill="#7E7E78" /></svg>