<svg width="17" height="18" viewBox="0 0 17 18" fill="none" xmlns="http://www.w3.org/2000/svg">
<path d="M8.5 2.625C12.0063 2.625 14.875 5.49375 14.875 9C14.875 12.5063 12.0063 15.375 8.5 15.375C4.99375 15.375 2.125 12.5063 2.125 9C2.125 5.49375 4.99375 2.625 8.5 2.625ZM8.5 1.5625C4.35625 1.5625 1.0625 4.85625 1.0625 9C1.0625 13.1438 4.35625 16.4375 8.5 16.4375C12.6438 16.4375 15.9375 13.1438 15.9375 9C15.9375 4.85625 12.6438 1.5625 8.5 1.5625Z" fill="#0975E5" stroke="#0975E5" stroke-width="0.2"/>
<path d="M10.7328 6.02498L8.50156 8.25623L6.27031 6.02498C6.05781 5.81248 5.73906 5.81248 5.52656 6.02498C5.31406 6.23748 5.31406 6.55623 5.52656 6.76873L7.75781 8.99998L5.52656 11.2312C5.31406 11.4437 5.31406 11.7625 5.52656 11.975C5.73906 12.1875 6.05781 12.1875 6.27031 11.975L8.50156 9.74373L10.7328 11.975C10.9453 12.1875 11.2641 12.1875 11.4766 11.975C11.6891 11.7625 11.6891 11.4437 11.4766 11.2312L9.24531 8.99998L11.4766 6.76873C11.6891 6.55623 11.6891 6.23748 11.4766 6.02498C11.2641 5.81248 10.9453 5.81248 10.7328 6.02498Z" fill="#0975E5" stroke="#0975E5" stroke-width="0.2"/>
</svg>
