<?xml version="1.0" standalone="no"?><!DOCTYPE svg PUBLIC "-//W3C//DTD SVG 1.1//EN" "http://www.w3.org/Graphics/SVG/1.1/DTD/svg11.dtd"><svg class="icon" width="200px" height="175.04px" viewBox="0 0 1170 1024" version="1.1" xmlns="http://www.w3.org/2000/svg"><path d="M658.285714 1024H0V512h146.285714a512 512 0 1 1 512 512z" fill="#A3BAD4" /><path d="M658.285714 950.857143H73.142857V585.142857h153.6A485.961143 485.961143 0 0 1 219.428571 512a438.857143 438.857143 0 1 1 438.857143 438.857143z" fill="#E9EEF5" /><path d="M658.285714 512m-365.714285 0a365.714286 365.714286 0 1 0 731.428571 0 365.714286 365.714286 0 1 0-731.428571 0Z" fill="#456080" /><path d="M1010.834286 635.611429l-172.617143 152.868571L643.657143 601.234286l-266.24 153.6-46.08-226.742857L585.142857 455.68V146.285714l219.428572 73.142857-65.097143 258.925715zM659.748571 512z" fill="#70BAFF" /></svg>