<?xml version="1.0" standalone="no"?><!DOCTYPE svg PUBLIC "-//W3C//DTD SVG 1.1//EN" "http://www.w3.org/Graphics/SVG/1.1/DTD/svg11.dtd"><svg class="icon" width="200px" height="200.00px" viewBox="0 0 1024 1024" version="1.1" xmlns="http://www.w3.org/2000/svg"><path d="M380.16 811.52h-119.04c-42.24 0-76.8-34.56-76.8-76.8s34.56-76.8 76.8-76.8h87.04l290.56-290.56c14.08-14.08 34.56-23.04 53.76-23.04h110.08c42.24 0 76.8 34.56 76.8 76.8s-34.56 76.8-76.8 76.8h-78.08L433.92 788.48c-14.08 14.08-33.28 23.04-53.76 23.04z" fill="#00A8A6" /><path d="M486.4 243.2m-64 0a64 64 0 1 0 128 0 64 64 0 1 0-128 0Z" fill="#00A8A6" /><path d="M422.4 533.76V371.2c0-21.76 16.64-38.4 38.4-38.4h51.2c21.76 0 38.4 16.64 38.4 38.4v34.56l-128 128z" fill="#00A8A6" /></svg>