<?xml version="1.0" standalone="no"?><!DOCTYPE svg PUBLIC "-//W3C//DTD SVG 1.1//EN" "http://www.w3.org/Graphics/SVG/1.1/DTD/svg11.dtd"><svg class="icon" width="200px" height="200.00px" viewBox="0 0 1024 1024" version="1.1" xmlns="http://www.w3.org/2000/svg"><path d="M105.549941 9.341762l-1.001817 1006.40425 829.962725 0 2.025123-1006.40425L105.549941 9.341762zM886.447181 958.868607l-728.71681 0L157.730371 46.279023l728.71681 0L886.447181 958.868607zM840.411705 827.348178 203.764823 827.348178l0 25.494651 636.646881 0L840.411705 827.348178zM840.411705 909.676232 203.764823 909.676232l0 25.664519 636.646881 0L840.411705 909.676232zM840.411705 170.311921 203.764823 170.311921l0 25.455765 636.646881 0L840.411705 170.311921zM840.411705 85.748966 203.764823 85.748966l0 27.710109 636.646881 0L840.411705 85.748966zM705.940061 495.369228l39.926338-23.034623-68.74878-39.663348 66.76152-38.617529-19.970844-34.573423-66.76152 38.543851 0-79.396281-39.945781 23.054065 0 79.415724-86.167498 49.796126 0-99.55746 68.74878-39.732933 0-46.112224-68.74878 39.717583 0-77.126588-39.906895 0 0 77.126588-68.768223-39.717583 0 46.112224 68.768223 39.732933 0 99.55746-86.185918-49.796126 0-79.415724-39.903825-23.054065 0 79.396281-66.800405-38.543851-19.955494 34.573423 66.76152 38.617529-68.74878 39.663348 39.906895 23.034623 68.787666-39.737026 86.167498 49.815569-86.167498 49.819662-68.768223-39.756469-39.926338 23.092951 68.74878 39.659255-66.76152 38.621623 19.955494 34.534538 66.800405-38.543851 0 79.435167 39.903825-23.092951L404.940682 589.836763l86.185918-49.776683 0 99.538017-68.768223 39.698141 0 46.108131 68.768223-39.678698 0 77.091796 39.906895 0 0-77.091796 68.74878 39.678698 0.019443-46.108131-68.768223-39.698141 0-99.538017 86.167498 49.776683 0 79.380932 39.945781 23.092951 0-79.435167 66.76152 38.543851 19.970844-34.534538-66.742077-38.621623 68.729338-39.659255-39.906895-23.092951-68.747757 39.717583-86.206384-49.780777 86.206384-49.815569L705.940061 495.369228z" fill="#93A7BF" /></svg>