<?xml version="1.0" standalone="no"?><!DOCTYPE svg PUBLIC "-//W3C//DTD SVG 1.1//EN" "http://www.w3.org/Graphics/SVG/1.1/DTD/svg11.dtd"><svg class="icon" width="200px" height="200.00px" viewBox="0 0 1024 1024" version="1.1" xmlns="http://www.w3.org/2000/svg"><path d="M466.488889 796.444444c-45.511111-51.2 0-102.4 0-102.4 17.066667-22.755556 45.511111-85.333333 45.511111-85.333333 119.466667 113.777778 62.577778 182.044444 62.577778 182.044445 182.044444-68.266667 79.644444-261.688889 79.644444-261.688889-11.377778-39.822222 0-62.577778 0-62.577778-34.133333 5.688889-51.2 51.2-51.2 51.2C585.955556 369.777778 455.111111 341.333333 455.111111 341.333333c28.444444 28.444444 0 108.088889-28.444444 136.533334-34.133333 34.133333-45.511111 91.022222-45.511111 91.022222 0-11.377778-17.066667-39.822222-17.066667-39.822222C278.755556 750.933333 466.488889 796.444444 466.488889 796.444444z" fill="#666666" /><path d="M853.333333 227.555556h-56.888889V113.777778h28.444445c17.066667 0 28.444444-11.377778 28.444444-28.444445s-11.377778-28.444444-28.444444-28.444444h-625.777778c-17.066667 0-28.444444 11.377778-28.444444 28.444444s11.377778 28.444444 28.444444 28.444445H227.555556v113.777778H170.666667c-34.133333 0-56.888889 22.755556-56.888889 56.888888v568.888889c0 34.133333 22.755556 56.888889 56.888889 56.888889h682.666666c34.133333 0 56.888889-22.755556 56.888889-56.888889V284.444444c0-34.133333-22.755556-56.888889-56.888889-56.888888z m-227.555555-113.777778h113.777778v113.777778h-113.777778V113.777778zM455.111111 113.777778h113.777778v113.777778H455.111111V113.777778zM284.444444 113.777778h113.777778v113.777778H284.444444V113.777778z m568.888889 739.555555H170.666667V284.444444h682.666666v568.888889z" fill="#666666" /></svg>