<?xml version="1.0" standalone="no"?><!DOCTYPE svg PUBLIC "-//W3C//DTD SVG 1.1//EN" "http://www.w3.org/Graphics/SVG/1.1/DTD/svg11.dtd"><svg class="icon" width="200px" height="200.00px" viewBox="0 0 1024 1024" version="1.1" xmlns="http://www.w3.org/2000/svg"><path d="M153.3 77.4c-31.4 40.8-53.8 81.7-67.3 127s-22.4 95.3-22.4 145.2c0 49.9 9 99.8 22.4 145.2 17.9 45.4 40.4 90.7 67.3 127l31.4-27.2c-53.8-68-80.7-154.2-80.7-245s31.4-176.9 80.7-245l-31.4-27.2zM319.2 204.5l-31.4-27.2c-40.4 49.9-58.3 108.9-58.3 172.4 0 31.8 4.5 63.5 17.9 95.3 9 31.8 26.9 59 44.8 81.7l31.4-27.2c-31.4-40.8-49.3-95.3-49.3-149.7s13.5-104.5 44.9-145.3zM700.3 204.5c31.4 40.8 49.3 90.7 49.3 145.2 0 49.9-13.5 95.3-40.4 136.1l35.9 22.7c31.4-45.4 49.3-99.8 49.3-158.8 0-63.5-22.4-122.5-58.3-172.4l-35.8 27.2zM679.8 340.5c0-91.3-75.1-165.3-167.8-165.3s-167.8 74-167.8 165.3c0 63.8 36.7 119.2 90.4 146.7l-90 445.7 68.3 22.7 90.9-450c2.7 0.1 5.5 0.2 8.2 0.2 2.6 0 5.3-0.1 7.9-0.2l89.4 454.5 70-22.7-88.6-450.9c53-27.7 89.1-82.7 89.1-146zM512.7 455.1c-63.5 0-115-51.5-115-115s51.5-115 115-115 115 51.5 115 115-51.5 115-115 115zM933.5 190.8c-13.5-45.4-35.9-86.2-67.3-127L834.9 91c53.8 72.6 85.2 163.3 85.2 254s-26.9 177-80.8 249.6l31.4 27.2c26.9-36.3 49.3-81.7 67.3-127 13.5-45.4 22.4-95.3 22.4-145.2 0-49.9-8.9-99.8-26.9-158.8z" /></svg>