<?xml version="1.0" standalone="no"?><!DOCTYPE svg PUBLIC "-//W3C//DTD SVG 1.1//EN" "http://www.w3.org/Graphics/SVG/1.1/DTD/svg11.dtd"><svg class="icon" width="200px" height="200.00px" viewBox="0 0 1024 1024" version="1.1" xmlns="http://www.w3.org/2000/svg"><path d="M650.777684 363.809127H332.311337V38.794749a38.781413 38.781413 0 1 0-77.562826 0V363.809127h-78.683059A37.701188 37.701188 0 0 0 139.471162 402.59054v546.247135a37.701188 37.701188 0 0 0 36.607626 38.781412H650.777684a109.249427 109.249427 0 0 0 109.249427-114.69056V478.513024a109.249427 109.249427 0 0 0-109.249427-114.690561z"  /><path d="M613.636613 715.269014c-28.005835-1.653678-63.586581-45.222755-144.710148-48.53011-110.689727 12.682642-114.010419 68.387581-114.010419 68.387581s15.896645-7.721609 54.811419-19.857471 122.78558 2.200458 122.78558 2.200459-90.445509-2.747239-155.659095 17.657012-138.135445 66.173786-138.135445 66.173786 67.427381-15.443217 89.898729-15.443217 92.645968 32.540113 142.523025 33.086893c158.966451-2.213795 203.909148-112.503438 203.909148-112.503439s-33.433632 10.482184-61.346114 8.81517zM428.117963 504.398416a77.789539 77.789539 0 1 0 77.78954 77.78954 77.802876 77.802876 0 0 0-77.78954-77.78954z m0 128.360075a50.570536 50.570536 0 1 1 50.570536-50.570535 50.570536 50.570536 0 0 1-50.570536 50.570535z m0 0" fill="#FFFFFF" /></svg>