<?xml version="1.0" standalone="no"?><!DOCTYPE svg PUBLIC "-//W3C//DTD SVG 1.1//EN" "http://www.w3.org/Graphics/SVG/1.1/DTD/svg11.dtd"><svg class="icon" width="200px" height="200.00px" viewBox="0 0 1024 1024" version="1.1" xmlns="http://www.w3.org/2000/svg"><path d="M870.997 73.984c33.707 0 61.099 31.915 61.099 71.253v713.216c0 39.339-27.307 71.254-61.099 71.254H136.96c-33.792 0-61.184-31.915-61.184-71.254V145.237c0-39.338 27.392-71.253 61.184-71.253h734.037z m0 53.419H136.96c-8.533 0-15.36 8.021-15.36 17.92v713.13c0 9.814 6.827 17.835 15.36 17.835h734.037c8.448 0 15.275-8.021 15.275-17.92V145.323c0-9.814-6.827-17.835-15.36-17.835z m-212.821 35.669c14.763 0 26.795 11.947 26.795 26.795v94.464a107.008 107.008 0 0 1 0 207.189v322.304a26.71 26.71 0 0 1-53.504 0V491.52a107.008 107.008 0 0 1 0-207.19v-94.463c0-14.763 11.946-26.795 26.709-26.795z m-301.739 0c14.763 0 26.71 11.947 26.71 26.795v311.808a107.008 107.008 0 0 1 0 207.189v104.96a26.71 26.71 0 0 1-53.504 0v-104.96a107.008 107.008 0 0 1 0-207.19V189.868c0-14.763 11.946-26.795 26.794-26.795z m0 388.693a53.504 53.504 0 1 0 0 107.008 53.504 53.504 0 0 0 0-107.008z m301.739-218.453a53.504 53.504 0 1 0 0 107.008 53.504 53.504 0 0 0 0-106.923z" /></svg>