<?xml version="1.0" standalone="no"?><!DOCTYPE svg PUBLIC "-//W3C//DTD SVG 1.1//EN" "http://www.w3.org/Graphics/SVG/1.1/DTD/svg11.dtd"><svg class="icon" width="200px" height="200.00px" viewBox="0 0 1024 1024" version="1.1" xmlns="http://www.w3.org/2000/svg"><path d="M864 917.333333H853.333333v-189.866666c0-14.933333-4.266667-32-12.8-44.8L746.666667 533.333333H277.333333l-93.866666 149.333334c-8.533333 14.933333-12.8 29.866667-12.8 44.8V917.333333h-10.666667c-17.066667 0-32 14.933333-32 32S142.933333 981.333333 160 981.333333h704c17.066667 0 32-14.933333 32-32s-14.933333-32-32-32z m-170.666667-64h-362.666666c-17.066667 0-32-14.933333-32-32s14.933333-32 32-32h362.666666c17.066667 0 32 14.933333 32 32s-14.933333 32-32 32zM277.333333 469.333333h469.333334V234.666667H277.333333v234.666666z m320-138.666666c0-17.066667 14.933333-32 32-32s32 14.933333 32 32v42.666666c0 17.066667-14.933333 32-32 32s-32-14.933333-32-32v-42.666666z m-128 0c0-17.066667 14.933333-32 32-32s32 14.933333 32 32v42.666666c0 17.066667-14.933333 32-32 32s-32-14.933333-32-32v-42.666666zM704 170.666667h85.333333V149.333333c0-23.466667-19.2-42.666667-42.666666-42.666666h-42.666667V42.666667H320v64h-42.666667c-23.466667 0-42.666667 19.2-42.666666 42.666666v21.333334h469.333333z" /></svg>