<?xml version="1.0" standalone="no"?><!DOCTYPE svg PUBLIC "-//W3C//DTD SVG 1.1//EN" "http://www.w3.org/Graphics/SVG/1.1/DTD/svg11.dtd"><svg class="icon" width="200px" height="200.00px" viewBox="0 0 1024 1024" version="1.1" xmlns="http://www.w3.org/2000/svg"><path d="M601.25 374.13c0-2.38-5.54-4.44-13.63-5.46v-60.58a10.14 10.14 0 0 0-10.14-10.14h-39.84c-1.58-29.21-13.53-52.52-28.7-56.3v-0.55H176.81v0.21c-13.87 2.26-24.75 23.86-24.75 50.18s10.88 47.93 24.75 50.18v0.21h59c2.55 14.15 9.43 24.61 17.72 26v0.12H505.6c15.44-0.86 28.23-21.84 31.44-49.71h20.16a10.14 10.14 0 0 1 10.14 10.14v40c-9.52 0.87-16.29 3.12-16.29 5.75v15.14h-44.37v296.83h224.7V389.27H601.25z" fill="#555555" /><path d="M622.21 718.46h-243a17.75 17.75 0 0 1-17.75-17.75v-14.56h133.66V389.27h-224.7v296.88H326v50.06A17.75 17.75 0 0 0 343.71 754h304.56V718.46h-26.06zM125.59 389.5c-37.88 4.29-68 69-68 148.21s30.08 143.92 68 148.21v0.23h133.27V389.27H125.59zM896.38 390.42v-1.15H742.94v296.88h153.44V685c35.51-9.12 63-71.59 63-147.29s-27.49-138.17-63-147.29z" fill="#555555" /></svg>