<?xml version="1.0" standalone="no"?><!DOCTYPE svg PUBLIC "-//W3C//DTD SVG 1.1//EN" "http://www.w3.org/Graphics/SVG/1.1/DTD/svg11.dtd"><svg class="icon" width="200px" height="200.00px" viewBox="0 0 1024 1024" version="1.1" xmlns="http://www.w3.org/2000/svg"><path d="M512 830.976a400.384 400.384 0 0 0 409.6-389.632A400.384 400.384 0 0 0 512 51.2a400.384 400.384 0 0 0-409.6 389.632 400.384 400.384 0 0 0 409.6 390.144z m0-734.208a353.28 353.28 0 0 1 361.472 344.064A353.28 353.28 0 0 1 512 784.896a353.28 353.28 0 0 1-361.472-344.064A353.28 353.28 0 0 1 512 96.768zM417.28 440.832a94.72 90.112 0 1 0 189.44 0 94.72 90.112 0 1 0-189.44 0ZM465.92 337.92a125.44 125.44 0 0 1 92.672 0L614.4 228.864v-10.752C614.4 196.608 596.48 153.6 512 153.6s-102.4 40.96-102.4 61.952v13.824zM256 414.72l13.312 6.144 124.416 6.656A110.08 110.08 0 0 1 409.6 385.024a115.712 115.712 0 0 1 31.232-33.792l-71.168-102.4L358.4 244.736c-18.944-10.752-65.536-15.872-108.032 53.76S238.08 403.968 256 414.72zM358.4 637.952l12.288-8.192 68.096-99.328A115.712 115.712 0 0 1 409.6 497.152a110.08 110.08 0 0 1-15.36-42.496L267.776 460.8 256 467.968c-18.944 10.752-47.616 46.08-5.12 116.224s90.624 64 107.52 53.76zM558.08 544.256a125.44 125.44 0 0 1-92.672 0L409.6 652.8V665.6c0 20.992 17.92 61.952 102.4 61.952s102.4-40.96 102.4-61.952v-13.824zM768 467.456L753.664 460.8l-124.416-6.656a110.08 110.08 0 0 1-14.848 42.496 115.712 115.712 0 0 1-31.232 33.792l71.168 102.4 10.24 5.632c18.944 10.752 65.536 15.872 108.032-53.76s13.312-107.008-4.608-117.248zM614.4 385.024a110.08 110.08 0 0 1 15.36 42.496l126.976-8.192 10.24-5.632c18.944-10.752 47.616-46.08 5.12-116.224S682.496 233.472 665.6 244.224l-12.288 8.192-70.656 98.816a115.712 115.712 0 0 1 31.744 33.792zM716.8 814.592a460.8 460.8 0 0 1-409.6 0l-39.936 120.32H220.16V972.8h583.68v-37.888h-47.616z" /></svg>