<svg width="17" height="18" viewBox="0 0 17 18" fill="none" xmlns="http://www.w3.org/2000/svg">
<path d="M10.771 6.84435C10.8832 6.95655 11.0243 7.01605 11.1485 7.01605C11.2403 7.01605 11.3236 6.98545 11.3865 6.92255L13.4441 4.86725C13.5937 4.71765 13.558 4.44565 13.3641 4.25015L13.1227 4.00875C12.9288 3.81495 12.6568 3.77925 12.5054 3.92885L10.4496 5.98245C10.3 6.13205 10.3323 6.40405 10.5295 6.59955L10.771 6.84435ZM14.92 8.24855H12.0106C11.798 8.24855 11.628 8.46615 11.628 8.74155V9.08325C11.628 9.35865 11.7946 9.57625 12.0106 9.57625H14.9166C15.1292 9.57625 15.2992 9.35865 15.2992 9.08325V8.74155C15.2992 8.46445 15.1326 8.24855 14.92 8.24855ZM11.5141 10.9516C11.4529 10.8904 11.3678 10.8581 11.2743 10.8581C11.1451 10.8581 11.0073 10.921 10.8968 11.0315L10.6554 11.2729C10.4615 11.4667 10.4258 11.7387 10.5788 11.89L12.6347 13.9453C12.6976 14.0082 12.7826 14.0388 12.8727 14.0388C12.9985 14.0388 13.138 13.981 13.2502 13.8671L13.4917 13.6257C13.6855 13.4319 13.7212 13.1599 13.5716 13.0086L11.5141 10.9516ZM8.75938 12.1331H8.4176C8.14213 12.1331 7.92447 12.2997 7.92447 12.5122V15.4175C7.92447 15.63 8.13873 15.8 8.4176 15.8H8.75938C9.03485 15.8 9.25251 15.6334 9.25251 15.4175V12.5122C9.25081 12.2997 9.03485 12.1331 8.75938 12.1331ZM6.22405 11.1556C6.0302 10.9618 5.75813 10.9278 5.6068 11.0757L3.54928 13.131C3.39964 13.2806 3.43535 13.5526 3.6292 13.7481L3.87066 13.9895C3.95398 14.0728 4.05431 14.1289 4.15633 14.1527C4.18694 14.1595 4.21925 14.1629 4.24816 14.1629C4.34168 14.1629 4.425 14.1289 4.48792 14.0694L6.54373 12.0158C6.60494 11.9546 6.63895 11.8696 6.63895 11.7778C6.63895 11.6486 6.57604 11.5109 6.46551 11.4004L6.22405 11.1556ZM5.36704 9.26175V8.92005C5.36704 8.64465 5.20039 8.42705 4.98444 8.42705H2.07841C1.86586 8.42705 1.69922 8.64465 1.69922 8.92005V9.26175C1.69922 9.53715 1.86586 9.75475 2.07841 9.75475H4.98444C5.19869 9.75135 5.36704 9.53715 5.36704 9.26175ZM5.48096 7.04835C5.54218 7.10955 5.6187 7.14015 5.72072 7.14355C5.84996 7.14355 5.98769 7.08065 6.09822 6.97015L6.33968 6.72875C6.53353 6.53495 6.56924 6.26295 6.4162 6.11165L4.36378 4.05635C4.21415 3.90675 3.94208 3.93905 3.74653 4.13625L3.50507 4.37765C3.31122 4.57145 3.27551 4.84345 3.42855 4.99475L5.48096 7.04835ZM8.58084 5.86685V5.86855C8.85631 5.86855 9.07396 5.70195 9.07396 5.48945V2.58245C9.07396 2.36995 8.85971 2.19995 8.58084 2.19995H8.23905C7.96358 2.19995 7.74593 2.36655 7.74593 2.58245V5.48775C7.74593 5.70025 7.96018 5.86685 8.23905 5.86685H8.58084Z" fill="#0975E5"/>
</svg>
