<?xml version="1.0" standalone="no"?><!DOCTYPE svg PUBLIC "-//W3C//DTD SVG 1.1//EN" "http://www.w3.org/Graphics/SVG/1.1/DTD/svg11.dtd"><svg class="icon" width="200px" height="200.00px" viewBox="0 0 1024 1024" version="1.1" xmlns="http://www.w3.org/2000/svg"><path d="M389.92 12H0v996.84h139.48V556.32h250.44c152 0 276-123.4 276-272C665.8 132.28 542.08 12 389.92 12z m-22.16 401.88H139.48V151.24h228.28c66.56 3.16 126.8 63.32 126.8 129.76 3.2 66.44-60.24 129.76-126.8 132.88zM1008 765.16c-3.2-9.44-16-19-16-19l-50.4-132.88c-9.52-25.32-41.24-37.96-53.92-37.96h-263.16c-12.68 0-44.32 12.64-53.88 37.96l-50.72 136s-12.68 9.48-16 19-9.52 16-9.52 76c0 56.96 12.68 79.16 25.36 85.44l9.52 6.36v53.8c0 18.96 3.16 22.12 22.2 22.12h38.04c16 0 28.52 0 28.52-18.96V939.2h282.16v53.84c0 18.96 12.68 18.96 28.56 18.96h38c16 0 22.24-6.28 22.24-22.12V936l9.48-6.36c12.68-6.28 25.36-28.48 25.36-85.44-6.16-63.2-9.32-69.56-15.84-79.04z m-424.68-34.76c3.16-6.36 16-66.52 22.2-88.64 3.2-6.36 19-28.48 38.04-28.48h218.8c18.96 0 34.84 19 38 28.48 6.32 22.12 19 79.12 22.16 88.64 6.4 9.48-3.16 9.48-3.16 9.48h-329.68s-6.36 0-6.36-9.48z m6.36 145.6a41.12 41.12 0 1 1 41.2-41.12 40 40 0 0 1-41.2 41.12z m332.84 0a41.12 41.12 0 1 1 41.24-41.12c-3.12 25.12-19 41.12-41.24 41.12z" /></svg>