<?xml version="1.0" standalone="no"?><!DOCTYPE svg PUBLIC "-//W3C//DTD SVG 1.1//EN" "http://www.w3.org/Graphics/SVG/1.1/DTD/svg11.dtd"><svg class="icon" width="200px" height="199.22px" viewBox="0 0 1028 1024" version="1.1" xmlns="http://www.w3.org/2000/svg"><path d="M933.12 147.2l-42.88 43.52H135.68L99.2 147.2H3.84v731.52h95.36l36.48-43.52h754.56l42.88 43.52h95.36V147.2h-95.36z m0 648.32H99.2V230.4h833.92v565.12zM142.72 264.32v497.92h755.2V264.32h-755.2z m584.96 95.36c21.76 0 39.68 17.92 39.68 39.68s-17.92 39.68-39.68 39.68-39.68-17.92-39.68-39.68 17.92-39.68 39.68-39.68zM520.32 585.6H215.68V420.48h304.64v165.12z m0-213.12H215.68v-24.96h304.64v24.96z m135.04 161.92c-21.76 0-39.68-17.92-39.68-39.68s17.92-39.68 39.68-39.68 39.68 17.92 39.68 39.68-17.92 39.68-39.68 39.68z m72.32 90.24c-21.76 0-39.68-17.92-39.68-39.68s17.92-39.68 39.68-39.68 39.68 17.92 39.68 39.68-17.92 39.68-39.68 39.68zM800 534.4c-21.76 0-39.68-17.92-39.68-39.68s17.92-39.68 39.68-39.68c21.76 0 39.68 17.92 39.68 39.68s-17.92 39.68-39.68 39.68z" /></svg>