<?xml version="1.0" standalone="no"?><!DOCTYPE svg PUBLIC "-//W3C//DTD SVG 1.1//EN" "http://www.w3.org/Graphics/SVG/1.1/DTD/svg11.dtd"><svg class="icon" width="200px" height="200.00px" viewBox="0 0 1024 1024" version="1.1" xmlns="http://www.w3.org/2000/svg"><path d="M951.18961 1.32987H512a23.764779 23.764779 0 1 0 0 47.542857h439.18961c13.125818 0 23.764779 10.638961 23.76478 23.778078v878.379221c0 13.125818-10.638961 23.764779-23.76478 23.764779H72.81039c-13.125818 0-23.764779-10.638961-23.76478-23.764779V72.81039c0-1.156987 0.159584-2.327273 0.319169-3.324676h-0.332467V5.479065A71.480519 71.480519 0 0 0 1.32987 72.81039v878.37922A71.586909 71.586909 0 0 0 72.81039 1022.67013h878.37922a71.586909 71.586909 0 0 0 71.48052-71.48052V72.81039A71.586909 71.586909 0 0 0 951.18961 1.32987z" fill="#000000" /><path d="M166.393351 147.788468c18.791065 0 34.084571-18.285714 34.084571-40.893507 0-22.607792-34.084571-81.787013-34.084571-81.787013S132.322078 84.287169 132.322078 106.894961c0 22.607792 15.293506 40.893506 34.084571 40.893507z m102.240415 0c18.791065 0 34.084571-18.285714 34.084572-40.893507 0-22.607792-34.084571-81.787013-34.084572-81.787013s-34.084571 59.179221-34.084571 81.787013c0 22.607792 15.293506 40.893506 34.084571 40.893507z m102.067533 0c18.791065 0 34.084571-18.285714 34.084571-40.893507 0-22.607792-34.084571-81.787013-34.084571-81.787013s-34.084571 59.179221-34.084572 81.787013c0 22.607792 15.293506 40.893506 34.084572 40.893507zM144.290909 927.411532h735.418182c26.264935 0 47.702442-21.277922 47.702441-47.702441V403.283117c-21.437506-9.814442-46.864623-17.288312-74.964779-17.288312-85.111688 0-85.111688 68.155844-170.223376 68.155844s-85.111688-68.155844-170.223377-68.155844-85.111688 68.155844-170.223377 68.155844-85.111688-68.155844-170.223376-68.155844c-27.927273 0-53.367688 7.314286-74.978078 17.288312V879.709091a47.82213 47.82213 0 0 0 47.71574 47.702441z" fill="#000000" /></svg>