<?xml version="1.0" standalone="no"?><!DOCTYPE svg PUBLIC "-//W3C//DTD SVG 1.1//EN" "http://www.w3.org/Graphics/SVG/1.1/DTD/svg11.dtd"><svg class="icon" width="200px" height="200.00px" viewBox="0 0 1024 1024" version="1.1" xmlns="http://www.w3.org/2000/svg"><path d="M128 85.333333a42.666667 42.666667 0 1 1 85.333333 0v810.666667h597.333334V128h-83.712L640 128.085333A42.666667 42.666667 0 0 1 640 42.666667h85.333333l3.2 0.170666V42.666667H810.666667a85.333333 85.333333 0 0 1 85.333333 85.333333v768a85.333333 85.333333 0 0 1-85.333333 85.333333H213.333333a85.333333 85.333333 0 0 1-85.333333-85.333333V85.333333z" fill="#6D7278" /><path d="M256 597.845333c0.597333 29.013333 43.52 43.52 128.682667 43.52 54.314667 0 125.909333-74.112 214.869333-85.888 33.706667-4.48 89.856 9.642667 168.448 42.368V768a85.333333 85.333333 0 0 1-85.333333 85.333333H341.333333a85.333333 85.333333 0 0 1-85.333333-85.333333v-170.154667zM392.746667 426.666667S251.904 397.44 314.88 252.885333c6.485333 6.613333 10.752 14.890667 12.330667 23.808 6.954667-21.76 19.072-41.685333 35.413333-58.325333 20.736-18.645333 41.813333-71.381333 22.485333-90.410667 57.301333 12.8 100.096 58.453333 107.008 114.218667 6.314667-16.128 20.352-28.501333 37.76-33.322667-4.906667 13.482667-4.906667 28.16 0 41.642667 4.864 13.525333 80 128.512-57.728 171.946667 0 0 41.258667-44.032-46.336-119.594667a401.92 401.92 0 0 1-32.853333 54.698667A48.042667 48.042667 0 0 0 392.704 426.666667z" fill="#6D7278" /></svg>