<?xml version="1.0" standalone="no"?><!DOCTYPE svg PUBLIC "-//W3C//DTD SVG 1.1//EN" "http://www.w3.org/Graphics/SVG/1.1/DTD/svg11.dtd"><svg class="icon" width="200px" height="200.00px" viewBox="0 0 1024 1024" version="1.1" xmlns="http://www.w3.org/2000/svg"><path d="M326.928 504.022c0 44.964 36.45 81.414 81.414 81.414s81.414-36.45 81.414-81.414c0-44.963-36.45-81.414-81.414-81.414-44.963 0-81.414 36.45-81.414 81.414zM753.925 687.922c-123.737 0-224.39-100.666-224.39-224.39 0.16-22.527 18.46-40.707 40.986-40.72h3.487l11.872-0.076c10.065 0 24.457-0.077 41.725-0.115 33.34 0 78.207-0.09 126.346-0.09 48.138 0 93.006 0 126.345 0.09 17.268 0 31.647 0.064 41.725 0.115l11.86 0.076h3.486c22.527 0.013 40.826 18.193 40.987 40.72-0.025 123.724-100.692 224.39-224.429 224.39zM616.802 503.946c17.946 60.774 73.754 102.485 137.123 102.485 63.369 0 119.177-41.71 137.124-102.485-70.153-0.09-204.12-0.09-274.247 0z m-324.498-79.162a40.72 40.72 0 0 1-20.36-5.446c-9.366-5.395-13.374-12.216-16.924-18.235a1813.21 1813.21 0 0 1-6.032-10.294c-5.09-8.73-12.317-21.174-20.97-36.1a78868.667 78868.667 0 0 1-63.141-109.18 77943.239 77943.239 0 0 1-62.989-109.27 13947.294 13947.294 0 0 1-20.78-36.214 2200.612 2200.612 0 0 1-5.904-10.371c-3.435-6.07-7.317-12.954-7.317-23.745a40.72 40.72 0 0 1 20.36-35.273c107.157-61.869 244.662-25.017 306.53 82.14 61.869 107.155 25.018 244.66-82.139 306.53a40.72 40.72 0 0 1-20.334 5.458zM166.95 86.01c34.955 60.838 101.914 176.813 137.123 237.498 43.652-45.93 51.867-115.113 20.184-169.988-31.683-54.874-95.705-82.35-157.307-67.51z m11.834 937.355a40.72 40.72 0 0 1-20.36-5.46C51.245 955.878 14.573 818.749 76.487 711.502 138.4 604.253 275.49 567.436 382.803 629.235a40.72 40.72 0 0 1 20.36 35.223c0 10.816-3.88 17.713-7.317 23.795-1.361 2.405-3.359 5.917-5.904 10.371-5.014 8.768-12.178 21.25-20.78 36.215a77941.984 77941.984 0 0 1-62.988 109.269 78866.982 78866.982 0 0 1-63.141 109.18 17932.318 17932.318 0 0 1-20.97 36.1c-2.546 4.428-4.62 7.915-6.032 10.295-3.538 6.006-7.559 12.814-16.912 18.222a40.72 40.72 0 0 1-20.334 5.459z m20.283-76.032h0.077-0.077z m71.756-266.777c-12.57 0.01-25.083 1.67-37.22 4.937-48.712 13.081-86.937 50.846-100.606 99.397-13.67 48.55-0.765 100.71 33.966 137.286C202.16 861.49 269.17 745.426 304.138 684.59a141.132 141.132 0 0 0-33.314-4.034z m71.26 19.189l0.114 0.064-0.114-0.064z" fill="#000000" /></svg>