<?xml version="1.0" standalone="no"?><!DOCTYPE svg PUBLIC "-//W3C//DTD SVG 1.1//EN" "http://www.w3.org/Graphics/SVG/1.1/DTD/svg11.dtd"><svg class="icon" width="200px" height="200.00px" viewBox="0 0 1024 1024" version="1.1" xmlns="http://www.w3.org/2000/svg"><path d="M790.23 872.89a31.925 31.925 0 0 1-4.19-0.42h-0.251a33.056 33.056 0 0 0-4.483-0.46 61.629 61.629 0 0 1-49.437-31.464 127.824 127.824 0 0 1-11.69-61.126c0-10.473 0.713-21.66 1.51-33.516l0.292-4.19c1.97-20.068 5.447-38.753 8.799-56.768a362.608 362.608 0 0 0 8.379-64.562 132.14 132.14 0 0 0-19.775-67.368 32.385 32.385 0 0 0-28.782-12.569 79.602 79.602 0 0 0-16.759 2.346l-1.885 0.42-10.977 2.136-3.938 0.796-2.137 0.419V823.62a44.996 44.996 0 0 1-44.954 44.955h-430.06a44.996 44.996 0 0 1-44.954-44.955V180.06a44.996 44.996 0 0 1 44.955-44.954h429.682a44.996 44.996 0 0 1 44.954 44.954v332.066h0.377a124.807 124.807 0 0 1 35.528-5.614 65.483 65.483 0 0 1 57.565 28.782 160.293 160.293 0 0 1 24.257 86.263 443.718 443.718 0 0 1-9.091 71.223c-3.184 17.22-6.452 34.983-8.002 52.789l-0.293 4.19c-0.755 10.85-1.467 20.947-1.467 29.87a101.89 101.89 0 0 0 8.086 44.955 26.101 26.101 0 0 0 23.378 14.412h6.284a45.29 45.29 0 0 0 37.706-20.696 98.287 98.287 0 0 0 17.974-44.033 606.106 606.106 0 0 0 8.086-97.994A907.671 907.671 0 0 0 812.56 416.52a66.447 66.447 0 0 1-11.438 1.005 51.909 51.909 0 0 1-43.278-20.948 50.987 50.987 0 0 1-4.44-46.42 47.258 47.258 0 0 0-8.17-49.772 64.855 64.855 0 0 1-6.704-22.624 69.547 69.547 0 0 0-4.19-16.046c-4.44-5.363-34.773-30.333-35.024-30.584a12.192 12.192 0 0 1-3.687-8.17 23.42 23.42 0 0 1 5.488-17.01 27.232 27.232 0 0 1 18.812-11.102 8.086 8.086 0 0 1 4.566 1.257l120.45 102.477 0.88 0.922a67.578 67.578 0 0 1 9.008 93.47 58.277 58.277 0 0 1-10.726 9.97 936.747 936.747 0 0 1 44.913 272.323 670.332 670.332 0 0 1-8.128 103.356 150.531 150.531 0 0 1-24.258 59.325 79.853 79.853 0 0 1-65.608 34.187l-0.88 0.88zM219.484 455.818a11.102 11.102 0 0 0-11.689 10.767 11.144 11.144 0 0 0 11.689 10.81h351.463a11.689 11.689 0 0 0 11.69-10.81 11.102 11.102 0 0 0-11.69-10.767z m37.706-259.754a44.996 44.996 0 0 0-44.954 44.954v112.365a44.996 44.996 0 0 0 44.954 44.954h275.046a44.996 44.996 0 0 0 44.954-44.954V241.018a44.996 44.996 0 0 0-44.954-44.954zM781.81 317.311a14.58 14.58 0 0 0-12.276 14.495l-7.206 42.231a18.685 18.685 0 0 0 2.22 14.161 8.589 8.589 0 0 0 5.824 3.77h1.215a14.58 14.58 0 0 0 12.317-14.453l7.206-42.231a18.727 18.727 0 0 0-2.22-14.161 8.756 8.756 0 0 0-5.866-3.854z" fill="#65789B" /></svg>