<?xml version="1.0" standalone="no"?><!DOCTYPE svg PUBLIC "-//W3C//DTD SVG 1.1//EN" "http://www.w3.org/Graphics/SVG/1.1/DTD/svg11.dtd"><svg class="icon" width="200px" height="149.71px" viewBox="0 0 1368 1024" version="1.1" xmlns="http://www.w3.org/2000/svg"><path d="M1288 269.333333V114.133333C1288 92 1273.733333 68 1251.6 68H1104c-22.266667 0-37.333333 24-37.333333 46.133333V269.333333h-101.333334V114.133333C965.333333 92 944.266667 68 922.133333 68H774.533333C752.4 68 744 92 744 114.133333V269.333333h-100V114.133333C644 92 618.266667 68 596.133333 68H448.533333C426.266667 68 402.666667 92 402.666667 114.133333V269.333333h-101.333334V114.133333C301.333333 92 291.333333 68 269.066667 68H121.6C99.333333 68 80 92 80 114.133333V269.333333H0v684h1368V269.333333h-80z m-81.333333 341.333334v61.333333H985.333333v-61.333333h221.333334zM764 410.666667h261.333333v60H764v-60z m41.333333 200v61.333333H562.666667v-61.333333h242.666666zM362.666667 410.666667h261.333333v60H362.666667v-60z m40 200v61.333333H141.333333v-61.333333h261.333334zM40 410.666667h181.333333v60H40v-60z m181.333333 442.666666H40v-61.333333h181.333333v61.333333z m402.666667 0H362.666667v-61.333333h261.333333v61.333333z m401.333333 0H764v-61.333333h261.333333v61.333333z m282.666667 0H1126.666667v-61.333333h181.333333v61.333333z m0-382.666666H1126.666667v-60h181.333333v60z" /></svg>