<?xml version="1.0" standalone="no"?><!DOCTYPE svg PUBLIC "-//W3C//DTD SVG 1.1//EN" "http://www.w3.org/Graphics/SVG/1.1/DTD/svg11.dtd"><svg class="icon" width="200px" height="200.00px" viewBox="0 0 1024 1024" version="1.1" xmlns="http://www.w3.org/2000/svg"><path d="M781.372636 399.827837c41.616354 0 74.602251 21.356723 91.278048 56.171106l3.876392 8.996154 45.053908 110.148028h29.987179c29.987179 0 50.100531 20.040212 50.100531 50.100532 0 13.165103-7.679643 22.453815-19.674515 24.574859l-5.41232 0.438836h-45.053909c8.411038 12.506848 16.748937 25.013696 19.235679 40.446122l0.804534 9.654409v150.228454c0 22.673233-20.479049 45.346466-42.932864 49.442276h41.616354c25.013696 0 50.027392 25.013696 50.027391 50.100531 0 22.819512-20.698468 45.565884-43.225421 49.515415l-6.80197 0.658256H50.051162c-25.013696 0-50.027392-25.086835-50.027392-50.173671 0-22.819512 20.698468-45.639024 43.152283-49.588555l6.875109-0.585116v-100.274201l200.036427 100.274201h143.719041a55.65913 55.65913 0 0 1-42.347748-42.567166l-0.585115-6.80197V700.357883c0-16.675797 6.948249-29.987179 15.066729-42.567166l4.973483-7.533365h-45.053908c-14.99359 0-25.013696-10.020106-25.013696-25.013695 0-27.354159 16.529518-46.370419 42.12833-49.588555l7.899062-0.511977h25.013695l45.053909-110.148028c13.896498-37.008567 49.076579-61.217729 85.938867-64.728424l9.215572-0.438836h265.276826z m70.067604 425.671665H451.001689v25.086835c0 22.673233-20.479049 45.346466-42.932864 49.442276h486.377419a55.65913 55.65913 0 0 1-42.420888-42.640306l-0.585116-6.80197v-25.013696zM50.563138 650.257352l200.182706 100.201062v100.127923L50.489999 750.385275V650.257352z m400.438551 0c-29.987179 0-50.100531 20.040212-50.100531 50.100531 0 29.987179 20.040212 50.100531 50.100531 50.100531 29.987179 0 50.027392-20.040212 50.027392-50.100531 0-30.060319-19.967073-50.100531-50.027392-50.100531z m400.438551 0c-29.987179 0-50.027392 20.040212-50.027391 50.100531 0 29.987179 20.040212 50.100531 50.027391 50.100531 30.060319 0 50.100531-20.040212 50.100531-50.100531 0-30.060319-20.040212-50.100531-50.100531-50.100531zM50.563138 500.028899l200.182706 100.201062v100.127922L50.489999 600.156821v-100.201062zM726.298622 650.257352H576.070168c-14.99359 0-25.013696 10.020106-25.013696 25.013696 0 13.165103 7.679643 22.453815 19.601376 24.574859l5.41232 0.511976H726.298622c15.066729 0 25.086835-10.020106 25.086835-25.086835 0-14.99359-10.020106-25.013696-25.086835-25.013696z m19.967073-205.302468h-190.1626c-32.181363 0-60.120637 20.991025-72.261788 51.490181l-2.925578 8.557317-14.99359 45.127048c-4.973483 19.967073 10.020106 35.033802 25.086836 29.987179a1203.509837 1203.509837 0 0 1 310.330734 0c17.992308 0 31.961945-12.141151 30.937992-29.182645l-0.877673-5.851157-15.066729-50.100531a75.333645 75.333645 0 0 0-70.067604-50.027392z m255.25672-395.391928c0 17.480331-11.482895 35.033802-27.792995 45.785303l-7.167668 4.242089-715.889048 260.230203v190.1626L50.489999 449.855228V349.800445c0-55.074014 45.053908-100.127923 100.201062-100.127923 15.944403 0 31.961945 3.218136 45.419605 9.654409l9.58127 5.41232L936.574573 4.435908c29.987179-14.99359 65.094121 10.020106 65.094121 45.053909zM150.691061 299.699914c-29.987179 0-50.027392 20.040212-50.027392 50.100531 0 29.987179 20.040212 50.027392 50.027392 50.027392 30.060319 0 50.100531-20.040212 50.100531-50.027392 0-29.987179-20.040212-50.027392-50.100531-50.027392z" fill="#666666" /></svg>