<?xml version="1.0" standalone="no"?><!DOCTYPE svg PUBLIC "-//W3C//DTD SVG 1.1//EN" "http://www.w3.org/Graphics/SVG/1.1/DTD/svg11.dtd"><svg class="icon" width="200px" height="200.00px" viewBox="0 0 1024 1024" version="1.1" xmlns="http://www.w3.org/2000/svg"><path d="M511.960503 512.039497m-511.960503 0a511.960503 511.960503 0 1 0 1023.921006 0 511.960503 511.960503 0 1 0-1023.921006 0Z" fill="#040000" /><path d="M356.85376 255.51872a17.895131 17.895131 0 0 1 17.813211 16.1792l0.083383 1.717394v459.354697H637.2352V273.415314c0.005851-9.217463 7.00416-16.928183 16.183589-17.811748l1.72032-0.083383h119.310628c9.545143 0.002926 17.408 7.502994 17.867337 17.036434 0.4608 9.536366-6.64576 17.751771-16.149943 18.676297l-1.717394 0.08192H673.031314v445.033326c0 16.95744-12.966766 31.093029-29.656503 32.155063l-2.021668 0.058514H370.633874c-16.976457 0-30.589806-13.481691-31.616731-30.196297l-0.058514-2.030446V291.313371h-89.482972c-9.549531-0.005851-17.409463-7.502994-17.8688-17.036434-0.457874-9.537829 6.64576-17.754697 16.147017-18.674834l1.721783-0.083383h107.378103z" fill="#FFFFFF" /><path d="M587.792091 649.249646c9.549531 0.005851 17.408 7.502994 17.870263 17.037897 0.457874 9.53344-6.650149 17.753234-16.14848 18.673371l-1.721783 0.083383H420.754286c-9.545143-0.007314-17.406537-7.502994-17.867337-17.037897-0.457874-9.531977 6.648686-17.750309 16.149942-18.673371l1.717395-0.083383h167.037805zM587.792091 565.730743c9.549531 0.004389 17.408 7.498606 17.870263 17.036434 0.457874 9.534903-6.650149 17.751771-16.14848 18.671909l-1.721783 0.086308H420.754286c-9.545143-0.007314-17.406537-7.501531-17.867337-17.036434-0.457874-9.536366 6.648686-17.753234 16.149942-18.673371l1.717395-0.084846h167.037805zM587.792091 482.21184c9.549531 0.007314 17.408 7.502994 17.870263 17.037897 0.457874 9.536366-6.650149 17.753234-16.14848 18.673372l-1.721783 0.083382H420.754286c-9.545143-0.002926-17.406537-7.498606-17.867337-17.034971-0.457874-9.536366 6.648686-17.751771 16.149942-18.673371l1.717395-0.086309h167.037805zM587.792091 386.763337c9.549531 0.005851 17.408 7.502994 17.870263 17.036434 0.457874 9.536366-6.650149 17.751771-16.14848 18.67776l-1.721783 0.08192H420.754286c-9.545143-0.005851-17.406537-7.502994-17.867337-17.037897-0.457874-9.536366 6.648686-17.753234 16.149942-18.673371l1.717395-0.083383h167.037805z" fill="#FFFFFF" /></svg>