<?xml version="1.0" standalone="no"?><!DOCTYPE svg PUBLIC "-//W3C//DTD SVG 1.1//EN" "http://www.w3.org/Graphics/SVG/1.1/DTD/svg11.dtd"><svg class="icon" width="200px" height="200.00px" viewBox="0 0 1024 1024" version="1.1" xmlns="http://www.w3.org/2000/svg"><path d="M563.2 339.968h-17.408V79.872a34.816 34.816 0 0 0-68.608 0v260.096H460.8a102.4 102.4 0 0 0-102.4 98.816v311.808a99.328 99.328 0 0 0 70.656 94.208v66.56h37.376V972.8h91.136v-61.44h37.376v-66.56A99.328 99.328 0 0 0 665.6 750.592V438.784a102.4 102.4 0 0 0-102.4-98.816z m-38.4 278.528a15.36 15.36 0 0 1-21.504 0 14.336 14.336 0 0 1-3.584-15.872l-16.896-16.384a5.632 5.632 0 0 1 0-8.192 6.656 6.656 0 0 1 8.704 0l16.896 16.384a15.872 15.872 0 0 1 16.384 3.584 14.336 14.336 0 0 1 0 20.992zM512 544.768a59.904 59.904 0 0 0-60.416 58.88 7.168 7.168 0 0 1-14.336 0 71.68 71.68 0 0 1 22.016-51.2 76.288 76.288 0 0 1 105.984 0 71.168 71.168 0 0 1 22.016 51.2 7.168 7.168 0 0 1-14.336 0A59.904 59.904 0 0 0 512 544.768z m102.4 102.4a102.4 102.4 0 0 1-23.552 34.816 10.752 10.752 0 0 1-15.36 0 10.24 10.24 0 0 1 0-14.848 82.432 82.432 0 0 0 0-118.784 88.064 88.064 0 0 0-122.368 0 82.432 82.432 0 0 0 0 118.784 10.24 10.24 0 0 1 0 14.848 10.752 10.752 0 0 1-15.36 0 102.4 102.4 0 0 1-28.16-37.376 102.4 102.4 0 0 1 0-78.848 102.4 102.4 0 0 1 23.552-34.816 107.52 107.52 0 0 1 35.84-23.04 111.616 111.616 0 0 1 81.408 0 107.52 107.52 0 0 1 35.84 23.04 102.4 102.4 0 0 1 23.552 34.816 102.4 102.4 0 0 1 0 78.848z" /></svg>