<svg width="17" height="18" viewBox="0 0 17 18" fill="none" xmlns="http://www.w3.org/2000/svg">
<g clip-path="url(#clip0_5785_24526)">
<path d="M15.0574 8.76422H14.4287C14.3364 8.76469 14.2522 8.71125 14.2146 8.62782C14.1769 8.54438 14.1924 8.44688 14.256 8.37938L15.4093 6.84938C15.431 6.82056 15.4592 6.79717 15.4915 6.78106C15.5239 6.76495 15.5595 6.75657 15.5957 6.75657C15.6319 6.75657 15.6675 6.76495 15.6999 6.78106C15.7322 6.79717 15.7603 6.82056 15.782 6.84938L16.9528 8.39297C16.9789 8.42709 16.9949 8.46781 16.999 8.51051C17.003 8.55322 16.995 8.5962 16.9758 8.6346C16.9566 8.673 16.927 8.70527 16.8903 8.72776C16.8537 8.75026 16.8114 8.76208 16.7684 8.76188H16.1401L16.1444 8.99953C16.1406 13.14 12.7525 16.4953 8.57336 16.5C4.39281 16.4953 1.00471 13.1409 1 9C1.00471 4.86094 4.39187 1.50563 8.57336 1.50001C10.0557 1.49813 11.506 1.92844 12.7403 2.73704C12.8194 2.78871 12.8834 2.86028 12.9258 2.94452C12.9682 3.02875 12.9875 3.12265 12.9818 3.21671C12.9761 3.31077 12.9455 3.40165 12.8931 3.48015C12.8408 3.55866 12.7686 3.62199 12.6838 3.66376C12.5987 3.70583 12.504 3.72499 12.4091 3.71931C12.3143 3.71364 12.2226 3.68334 12.1431 3.63141C11.0833 2.9369 9.84194 2.56802 8.57336 2.57063C4.98997 2.57532 2.08655 5.45204 2.08278 9.00094C2.08655 12.5484 4.99044 15.4238 8.57336 15.428C9.44437 15.4271 10.3064 15.2523 11.1084 14.9139C11.9104 14.5756 12.6362 14.0804 13.2428 13.4578C13.8471 12.8376 14.3194 12.1021 14.6312 11.2956C14.943 10.489 15.088 9.62799 15.0574 8.76422ZM8.96582 5.69063V9.39141H11.5822C11.6607 9.39116 11.7385 9.40633 11.8111 9.43605C11.8838 9.46577 11.9498 9.50946 12.0055 9.56461C12.0612 9.61977 12.1054 9.68531 12.1356 9.7575C12.1659 9.82968 12.1815 9.9071 12.1817 9.98532C12.1822 10.1428 12.1191 10.2938 12.0071 10.4053C11.8942 10.5164 11.7417 10.5792 11.5822 10.5792H8.36584C8.2871 10.5801 8.20898 10.5654 8.13601 10.5359C8.06304 10.5064 7.99669 10.4627 7.94082 10.4075C7.88494 10.3522 7.84065 10.2864 7.81054 10.2139C7.78042 10.1415 7.76508 10.0638 7.76539 9.98532V5.69063C7.76539 5.36204 8.03409 5.09625 8.3649 5.09625C8.4435 5.09595 8.52139 5.11109 8.59411 5.14081C8.66682 5.17053 8.73294 5.21424 8.78867 5.26946C8.84441 5.32467 8.88866 5.39029 8.91889 5.46256C8.94913 5.53483 8.96476 5.61233 8.96488 5.69063H8.96582Z" fill="#0975E5" stroke="#0975E5" stroke-width="0.2"/>
</g>
<defs>
<clipPath id="clip0_5785_24526">
<rect width="17" height="17" fill="white" transform="translate(0 0.5)"/>
</clipPath>
</defs>
</svg>
