<?xml version="1.0" standalone="no"?><!DOCTYPE svg PUBLIC "-//W3C//DTD SVG 1.1//EN" "http://www.w3.org/Graphics/SVG/1.1/DTD/svg11.dtd"><svg class="icon" width="200px" height="200.00px" viewBox="0 0 1024 1024" version="1.1" xmlns="http://www.w3.org/2000/svg"><path d="M512 0c282.7776 0 512 229.2224 512 512s-229.2224 512-512 512S0 794.7776 0 512 229.2224 0 512 0z m0 25.6C243.3792 25.6 25.6 243.3792 25.6 512s217.7792 486.4 486.4 486.4 486.4-217.7792 486.4-486.4S780.6208 25.6 512 25.6z" fill="#0060A9" /><path d="M512 512m-486.4 0a486.4 486.4 0 1 0 972.8 0 486.4 486.4 0 1 0-972.8 0Z" fill="#0091FF" /><path d="M640 332.8a51.2 51.2 0 0 1 51.072 47.36L691.2 384v281.6a51.2 51.2 0 0 1-47.36 51.072L640 716.8h-204.8a51.2 51.2 0 0 1-51.072-47.36L384 665.6V384a51.2 51.2 0 0 1 47.36-51.072L435.2 332.8h204.8z m0 51.2h-204.8v281.6h204.8V384zM332.8 281.7024a25.6 25.6 0 0 1 25.6-25.6h358.4a25.6 25.6 0 1 1 0 51.2H358.4a25.6 25.6 0 0 1-25.6-25.6z" fill="#FFFFFF" /><path d="M343.9104 563.2v-56.96c0-16.768 13.696-25.6768 33.6896-20.6336l6.4 3.328V384l-6.4 2.56c-74.1888 0-121.6 51.3024-121.6 119.68V563.2h87.9104zM332.8 793.6h384a25.6 25.6 0 0 0 0-51.2H332.8a25.6 25.6 0 0 0 0 51.2zM384 256h281.6V230.4H384zM615.04 466.432a49.3824 49.3824 0 0 0-25.984 6.8608c-25.1904 20.0448-57.2672 14.6944-68.9408 0-28.3648-17.4848-49.9968-0.2816-50.2272 0L460.8 449.5616c11.6736-14.6688 50.4832-23.1168 68.8128-0.128 1.1264 1.3824 25.5232 17.1264 50.4832 0 6.3232-7.936 20.3008-12.7744 34.944-12.4928v29.4912zM615.04 543.232a49.3824 49.3824 0 0 0-25.984 6.8608c-25.1904 20.0448-57.2672 14.6944-68.9408 0-28.3648-17.4848-49.9968-0.2816-50.2272 0L460.8 526.3616c11.6736-14.6688 50.4832-23.1168 68.8128-0.128 1.1264 1.3824 25.5232 17.1264 50.4832 0 6.3232-7.936 20.3008-12.7744 34.944-12.4928v29.4912zM615.04 620.032a49.3824 49.3824 0 0 0-25.984 6.8608c-25.1904 20.0448-57.2672 14.6944-68.9408 0-28.3648-17.4848-49.9968-0.2816-50.2272 0L460.8 603.1616c11.6736-14.6688 50.4832-23.1168 68.8128-0.128 1.1264 1.3824 25.5232 17.1264 50.4832 0 6.3232-7.936 20.3008-12.7744 34.944-12.4928v29.4912z" fill="#FFFFFF" /></svg>