<?xml version="1.0" standalone="no"?><!DOCTYPE svg PUBLIC "-//W3C//DTD SVG 1.1//EN" "http://www.w3.org/Graphics/SVG/1.1/DTD/svg11.dtd"><svg class="icon" width="200px" height="200.00px" viewBox="0 0 1024 1024" version="1.1" xmlns="http://www.w3.org/2000/svg"><path d="M954.143001 488.724877h-69.779684v442.146515c0 34.910928-30.222869 93.086436-69.821856 93.086437h-605.089951c-34.903899 0-69.814827-32.58447-69.814827-93.086437V488.724877H69.821856C0.007029 488.724877 0.007029 463.119781 0.007029 439.8552c0-20.945151 4.652916-30.222869 23.271609-44.223788L449.154004 30.250983s39.556815-30.222869 62.835453-30.222869c25.591039-0.028114 58.196594 25.562924 58.196594 25.562925l430.528283 370.033344c13.965777 13.965777 23.271609 25.598067 23.271609 44.223789 0 25.598067-2.326458 48.869676-69.814827 48.869676z m-165.115264-87.857178a14.44372 14.44372 0 0 0-14.450749-14.450748H249.254326a14.44372 14.44372 0 0 0-14.450749 14.450748v525.969292a14.450749 14.450749 0 0 0 14.450749 14.450748h525.329691a14.450749 14.450749 0 0 0 14.450748-14.450748V400.867699z m-116.793817 388.420095h-35.142871v-56.277793h-69.55477v56.277793H470.197555v-56.277793h-69.519627v56.277793h-49.080533a20.481265 20.481265 0 0 1-20.481266-20.481265V640.963793a20.481265 20.481265 0 0 1 20.481266-20.474236h35.037442v14.24692h83.527575v-14.24692h97.275467v-27.994811h41.756759v27.994811h63.039282a20.481265 20.481265 0 0 1 20.481265 20.481265v127.835707a20.481265 20.481265 0 0 1-20.481265 20.481265zM456.393435 620.489557h-55.834993v-56.158308h-27.678525v-28.156468h111.199072v28.156468h-27.685554v56.158308z m0 210.857225h-41.756759v-84.34289h41.756759v84.34289z m166.879437 0h-41.918416v-84.34289h41.918416z" fill="#191919" /></svg>