<?xml version="1.0" standalone="no"?><!DOCTYPE svg PUBLIC "-//W3C//DTD SVG 1.1//EN" "http://www.w3.org/Graphics/SVG/1.1/DTD/svg11.dtd"><svg class="icon" width="200px" height="179.33px" viewBox="0 0 1142 1024" version="1.1" xmlns="http://www.w3.org/2000/svg"><path d="M160.950937 592.475468C54.517403 592.475468 0 537.960296 0 431.524532V158.943094C0 57.699834 54.516288 3.184662 153.164967 0.587852h835.909717C1087.724479 0.587852 1142.239651 55.104139 1142.239651 156.348514v280.367408c0 98.647564-57.111983 153.164967-153.164967 153.164967H820.336662l-659.383494 2.594579z m649.00183-70.091573h192.102623c46.728087 0 67.496993-20.767791 67.496993-67.495878V145.964619c0-49.324898-20.768906-70.092688-72.688383-70.092689H145.375651c-51.919477 0-72.687268 20.767791-72.687268 72.688384v298.539503c0 54.516288 20.767791 75.284078 72.687268 75.284078H809.952767z m25.959181 366.036497c-7.7882 0-18.172096-2.59681-23.364602-7.7882-10.383895-10.385011-7.787085-31.152802-5.19139-38.941002 2.595695-12.97959 5.19139-25.959181 10.383896-36.343077 0-2.595695 2.595695-5.192505 2.595695-10.385011l-7.788201 7.789316c-10.383895 7.787085-20.767791 18.17098-31.151686 25.959181-7.7882 5.192505-20.767791 12.980706-33.747381 12.980706h-2.596811c-7.7882 0-12.97959-7.7882-15.575285-12.980706-2.59681-5.19139-7.7882-15.575285-5.192505-23.363486 5.192505-15.576401 23.364601-25.960296 31.151686-28.555991 10.385011-5.192505 23.364601-7.7882 36.344192-10.385011 2.595695 0 5.192505-2.595695 7.7882-2.595695-2.595695 0-5.192505-2.595695-7.7882-2.595695-10.383895-2.595695-23.363486-7.7882-33.747382-12.97959-7.7882-2.595695-23.364601-12.980706-28.555991-28.555992-2.59681-5.192505 0-12.980706 2.595695-18.172095 2.595695-2.595695 7.7882-15.576401 18.17098-15.576401h5.192506c12.980706 0 28.555991 10.385011 31.152802 12.980706 10.383895 7.787085 20.767791 18.17098 31.151686 25.95918l7.7882 7.788201 2.595695-2.595695c0-2.595695-2.595695-7.7882-2.595695-10.385011-5.192505-12.97959-10.385011-25.959181-12.980706-38.938771-2.595695-10.385011 0-31.152802 7.788201-36.344192 5.192505-5.192505 12.980706-5.192505 23.364601-5.192505 7.787085 0 12.97959 2.59681 18.170981 5.192505 10.385011 5.19139 12.980706 25.960296 12.980705 36.344192-2.595695 12.97959-5.192505 25.959181-10.38501 38.939886 0 2.595695-2.59458 7.7882-2.59458 10.383896h2.595695c2.595695-2.595695 5.19139-2.595695 5.19139-5.192506 7.7882-7.787085 15.576401-15.575285 25.960296-23.363485 10.385011-7.7882 23.364601-12.97959 33.748497-12.979591h5.19139c7.7882 2.595695 12.980706 10.383895 15.576401 15.575286 2.595695 5.192505 7.7882 15.576401 5.19139 23.364601-5.19139 12.97959-20.767791 20.767791-31.151686 25.959181-10.383895 5.192505-20.767791 7.7882-33.747382 12.980706-2.59681 0-5.192505 2.595695-7.7882 2.595695 2.595695 0 5.19139 2.595695 7.7882 2.595695 12.97959 2.59681 25.959181 7.7882 36.343077 12.980705 10.385011 5.19139 25.960296 15.575285 28.555991 25.959181 2.59681 10.385011-7.787085 31.152802-20.767791 36.344192h-7.7882c-10.383895 0-23.363486-5.19139-31.151687-10.383895-10.383895-7.7882-18.17098-15.576401-28.555991-23.363486-2.595695-2.59681-5.19139-5.192505-7.7882-5.192506 0 2.595695 2.59681 5.192505 2.59681 10.385011 2.595695 12.97959 7.787085 23.363486 7.787085 36.343076 0 10.385011 0 31.151686-10.383895 38.941003-10.383895-5.192505-18.17098-5.192505-23.363486-5.192506z m-428.33987 134.991756c-5.192505 0-10.385011 0-15.5764-2.59681-36.344192-20.767791-54.516288-70.091573-59.707678-106.435765v-5.19139c2.595695-7.7882 5.19139-18.172096 10.383895-28.555991 7.7882-20.767791 12.97959-41.536697 23.363486-59.708793 25.960296-54.515172 23.364601-64.899068-18.17098-103.838955-7.7882-7.7882-12.980706-31.152802-7.788201-41.536697 5.19139-7.7882 18.17098-12.97959 28.555992-12.97959 2.595695 0 7.7882 0 10.383895 2.595695C428.339869 680.740253 456.895861 740.44793 443.91627 792.367407c-5.192505 20.768906-15.576401 41.536697-23.364601 62.304488l-5.19139 10.385011c-20.768906 46.726972-18.172096 70.090458 18.17098 109.03146 5.192505 7.787085 5.192505 18.17098 5.192506 28.555991v18.170981h-18.170981c-2.59681 2.59681-7.789316 2.59681-12.980706 2.59681zM246.618911 971.491556c-5.192505 0-10.385011 0-12.979591-2.595695-33.748497-18.17098-51.920593-62.304488-57.111982-101.244375v-5.19139c2.595695-7.7882 5.19139-18.172096 10.383895-25.960296 7.787085-18.17098 12.97959-38.939887 23.363486-59.707678 20.767791-46.728087 20.767791-57.111983-18.17098-90.860479-7.789316-5.19139-7.789316-15.575285-7.789316-25.959181 0-2.59681 0-7.7882-2.595695-10.385011l-2.595695-7.787085 7.7882-2.59681c2.595695 0 7.787085-2.595695 10.383896-2.595695 5.19139-2.595695 12.97959-5.19139 20.76779-5.19139 2.595695 0 5.19139 0 7.788201 2.595695 46.726972 18.17098 70.091573 70.091573 54.515172 124.60786-5.19139 18.17098-12.97959 33.747381-18.17098 49.323782-2.59681 10.385011-5.192505 15.576401-7.788201 20.767791-15.576401 38.941002-12.980706 59.708793 15.575286 93.456174 5.192505 7.7882 7.7882 18.172096 7.7882 25.960297v10.383895l2.595695 7.788201h-7.787085c-2.59681 0-7.7882 0-10.385011 2.595695-5.19139 2.595695-10.383895 2.595695-15.575285 2.595695z m319.307294 2.59681c-5.19139 0-7.787085 0-10.383896-2.59681-33.747381-18.17098-54.515172-49.323782-51.919477-83.071164 2.595695-36.344192 7.7882-72.688383 20.767791-103.84007 20.767791-51.920593 20.767791-57.111983-18.17098-96.052984-7.789316-7.787085-12.980706-31.151686-5.192506-41.535582 5.19139-7.7882 18.17098-10.383895 28.555992-10.383895 5.19139 0 7.787085 0 12.97959 2.595695 38.941002 12.980706 62.304488 57.111983 62.304488 111.62827v2.595695s-2.59681 7.7882-5.192505 12.980706c-5.192505 12.97959-10.385011 33.747381-20.767791 51.919477-20.767791 44.132392-25.960296 77.879773 12.97959 109.032575 7.7882 5.19139 7.7882 20.767791 7.788201 23.363486 0 7.7882-2.595695 12.97959-5.192506 15.576401-7.787085 5.19139-18.17098 7.7882-28.555991 7.7882z" fill="#000000" /><path d="M160.950937 449.695512c-5.19139 0-10.38278 0-12.978475-2.595695 0 0-28.555991-15.575285-25.960296-28.555991 2.595695-12.97959 12.97959-23.363486 23.363485-31.151687 5.192505-2.595695 10.385011-2.595695 15.576401-2.595695h794.375251c10.385011 0 38.941002 0 38.941002 31.151687 0 10.383895-2.59681 18.17098-7.7882 23.363486-7.7882 7.7882-18.172096 7.7882-28.555992 7.7882H163.547747c2.595695 2.595695 0 2.595695-2.595695 2.595695z m2.59681-98.647564c-5.19139 0-12.97959 0-18.17098-2.595695-7.789316-2.595695-20.768906-15.576401-20.768906-25.960297s10.385011-23.363486 18.172095-28.555991c5.192505-5.19139 12.97959-5.19139 20.767791-5.19139h794.376366c15.575285 0 25.959181 2.595695 31.151687 10.383896 5.19139 5.19139 7.7882 12.97959 7.7882 20.76779 0 28.555991-31.152802 28.555991-41.536697 28.555992H173.931643l-10.383896 2.595695z" fill="#000000" /></svg>