<svg width="17" height="18" viewBox="0 0 17 18" fill="none" xmlns="http://www.w3.org/2000/svg">
<g clip-path="url(#clip0_5788_24551)">
<path d="M11.0435 17C10.261 17 9.496 16.7761 8.84535 16.3565C8.19471 15.937 7.68759 15.3407 7.38813 14.643C7.08867 13.9453 7.01032 13.1776 7.16298 12.4369C7.31564 11.6963 7.69247 11.0159 8.2458 10.482C8.79912 9.94797 9.50411 9.58433 10.2716 9.437C11.0391 9.28968 11.8346 9.36529 12.5576 9.65428C13.2805 9.94327 13.8985 10.4327 14.3332 11.0606C14.768 11.6884 15 12.4267 15 13.1818C15 13.6832 14.8977 14.1797 14.6988 14.643C14.5 15.1062 14.2086 15.5271 13.8412 15.8817C13.4738 16.2362 13.0376 16.5175 12.5576 16.7094C12.0775 16.9012 11.5631 17 11.0435 17ZM11.0435 10.1818C10.4286 10.1818 9.8276 10.3578 9.31638 10.6874C8.80516 11.0171 8.40671 11.4856 8.17142 12.0338C7.93613 12.5819 7.87457 13.1851 7.99452 13.7671C8.11446 14.349 8.41054 14.8836 8.8453 15.3031C9.28006 15.7227 9.83397 16.0084 10.437 16.1242C11.04 16.2399 11.6651 16.1805 12.2331 15.9535C12.8012 15.7264 13.2867 15.3419 13.6283 14.8485C13.9699 14.3552 14.1522 13.7752 14.1522 13.1818C14.1524 12.7878 14.0721 12.3976 13.916 12.0335C13.7598 11.6694 13.5309 11.3386 13.2422 11.06C12.9534 10.7814 12.6107 10.5604 12.2334 10.4097C11.8561 10.2591 11.4518 10.1816 11.0435 10.1818ZM12.5978 13.5909H9.48913C9.37672 13.5909 9.26891 13.5478 9.18943 13.4711C9.10995 13.3943 9.0653 13.2903 9.0653 13.1818C9.0653 13.0733 9.10995 12.9693 9.18943 12.8926C9.26891 12.8159 9.37672 12.7727 9.48913 12.7727H12.5978C12.7102 12.7727 12.818 12.8159 12.8975 12.8926C12.977 12.9693 13.0217 13.0733 13.0217 13.1818C13.0217 13.2903 12.977 13.3943 12.8975 13.4711C12.818 13.5478 12.7102 13.5909 12.5978 13.5909ZM10.4783 8.85636V8.68182C10.4782 7.70538 10.0762 6.76895 9.36072 6.07853C8.64524 5.38811 7.67486 5.00023 6.66304 5.00023C5.65123 5.00023 4.68085 5.38811 3.96536 6.07853C3.24988 6.76895 2.84789 7.70538 2.84783 8.68182V12.6364H4.54348V10.8636C4.5435 10.7552 4.58817 10.6511 4.66767 10.5744C4.74716 10.4977 4.85498 10.4546 4.96739 10.4546C5.07981 10.4546 5.18762 10.4977 5.26711 10.5744C5.34661 10.6511 5.39128 10.7552 5.3913 10.8636V12.6364H6.5613C6.53668 12.8172 6.52347 12.9994 6.52174 13.1818C6.52174 13.2745 6.53022 13.3645 6.53587 13.4545H2V8.54545C2 7.38815 2.4764 6.27824 3.32439 5.4599C4.17238 4.64156 5.3225 4.18182 6.52174 4.18182H6.80435C8.00359 4.18182 9.15371 4.64156 10.0017 5.4599C10.8497 6.27824 11.3261 7.38815 11.3261 8.54545V8.83182C11.2328 8.82636 11.1396 8.81818 11.0435 8.81818C10.8544 8.81985 10.6657 8.8326 10.4783 8.85636ZM10.4924 4.19545C10.4362 4.28949 10.3436 4.35812 10.2349 4.38625C10.1263 4.41438 10.0105 4.3997 9.91304 4.34545C9.81561 4.29121 9.74449 4.20183 9.71534 4.09698C9.68619 3.99213 9.70139 3.88039 9.75761 3.78636L10.1815 3.07727C10.2377 2.98324 10.3304 2.91461 10.439 2.88648C10.5477 2.85835 10.6634 2.87302 10.7609 2.92727C10.8583 2.98152 10.9294 3.0709 10.9586 3.17575C10.9877 3.2806 10.9725 3.39233 10.9163 3.48636L10.4924 4.19545ZM6.66304 3.63636C6.55061 3.63636 6.44279 3.59326 6.36329 3.51654C6.28379 3.43982 6.23913 3.33577 6.23913 3.22727V2.40909C6.23913 2.30059 6.28379 2.19654 6.36329 2.11982C6.44279 2.0431 6.55061 2 6.66304 2C6.77547 2 6.8833 2.0431 6.9628 2.11982C7.04229 2.19654 7.08696 2.30059 7.08696 2.40909V3.22727C7.08696 3.33577 7.04229 3.43982 6.9628 3.51654C6.8833 3.59326 6.77547 3.63636 6.66304 3.63636ZM3.41304 4.34545C3.3648 4.37235 3.31155 4.3898 3.25631 4.39681C3.20108 4.40383 3.14496 4.40027 3.09115 4.38634C3.03735 4.37241 2.98691 4.34838 2.94274 4.31562C2.89856 4.28287 2.86151 4.24204 2.8337 4.19545L2.40978 3.48636C2.35357 3.39233 2.33836 3.2806 2.36751 3.17575C2.39666 3.0709 2.46778 2.98152 2.56522 2.92727C2.66266 2.87302 2.77843 2.85835 2.88708 2.88648C2.99573 2.91461 3.08835 2.98324 3.14457 3.07727L3.56848 3.78636C3.59634 3.83292 3.61443 3.88431 3.6217 3.93761C3.62897 3.99091 3.62528 4.04507 3.61084 4.097C3.59641 4.14892 3.57151 4.19759 3.53757 4.24023C3.50363 4.28286 3.46131 4.31861 3.41304 4.34545ZM2.42391 14.2727H6.6687C6.74399 14.5551 6.8491 14.8293 6.98239 15.0909H2.42391C2.3115 15.0909 2.20369 15.0478 2.12421 14.9711C2.04473 14.8943 2.00008 14.7903 2.00008 14.6818C2.00008 14.5733 2.04473 14.4693 2.12421 14.3926C2.20369 14.3159 2.3115 14.2727 2.42391 14.2727Z" fill="#0975E5" stroke="#0975E5" stroke-width="0.2"/>
</g>
<defs>
<clipPath id="clip0_5788_24551">
<rect width="17" height="17" fill="white" transform="translate(0 0.5)"/>
</clipPath>
</defs>
</svg>
