<svg width="17" height="18" viewBox="0 0 17 18" fill="none" xmlns="http://www.w3.org/2000/svg">
<path d="M8.50137 1.54553C4.39587 1.54553 1.04688 4.88603 1.04688 9.00003C1.04688 13.1055 4.38737 16.4545 8.50137 16.4545C12.6069 16.4545 15.9559 13.114 15.9559 9.00003C15.9559 4.89453 12.6154 1.54553 8.50137 1.54553ZM8.50137 15.307C5.02487 15.307 2.19437 12.4765 2.19437 9.00003C2.19437 5.52353 5.02487 2.69303 8.50137 2.69303C11.9779 2.69303 14.8084 5.52353 14.8084 9.00003C14.8084 12.4765 11.9779 15.307 8.50137 15.307Z" fill="#0975E5"/>
<path d="M11.6378 8.07354L7.76181 5.25154C7.53231 5.08154 7.25181 5.01354 6.97131 5.06454C6.69081 5.10704 6.44431 5.26004 6.27431 5.48954C6.13831 5.66804 6.07031 5.88904 6.07031 6.11854V11.7625C6.07031 12.043 6.18081 12.315 6.38481 12.5105C6.58881 12.7145 6.85231 12.825 7.13281 12.825C7.36231 12.825 7.57481 12.757 7.75331 12.621L11.6293 9.79904C11.8588 9.62904 12.0118 9.38254 12.0543 9.10204C12.0968 8.82154 12.0288 8.54104 11.8673 8.31154C11.8078 8.21804 11.7313 8.14154 11.6378 8.07354ZM7.14131 11.754V6.11004L11.0173 8.93204L7.14131 11.754Z" fill="#0975E5"/>
</svg>
